<svg width="400" height="315" viewBox="0 0 400 315" fill="none" xmlns="http://www.w3.org/2000/svg">
<path d="M250.906 48.7561C254.989 32.5607 277.454 11.995 297.364 10.7096C317.276 9.42422 359.395 28.1904 359.395 28.1904L323.658 32.0464C323.658 32.0464 362.714 44.9 371.649 56.4681C378.796 65.9798 381.859 70.8641 381.859 70.8641C381.093 67.7794 380.328 64.6944 379.306 61.6095L377.775 56.9822C377.264 55.4399 376.754 54.1546 375.988 52.355C374.968 50.2985 373.945 48.7561 372.924 47.2135C371.903 45.6712 370.628 44.3859 369.351 43.1005C368.075 41.8151 367.054 40.5298 365.777 39.2444C365.267 38.7303 364.756 38.2162 364.245 37.7021L399.218 33.846L363.735 18.4217C360.416 16.8792 357.354 15.5939 354.035 14.3086C350.716 13.0233 347.653 11.7378 344.334 10.7096C337.953 8.39594 331.315 6.08231 324.424 4.28281C317.531 2.48332 310.639 0.683819 302.725 0.169678C301.704 0.169678 300.429 0.169678 299.406 0.169678C298.642 0.169678 298.385 0.169678 297.876 0.169678H296.344C294.045 0.426757 292.004 0.683819 289.962 1.19796C285.877 1.96918 282.049 3.5116 278.475 5.05403C271.327 8.39594 264.946 12.7662 259.329 17.9076C256.521 20.4782 253.968 23.3061 251.415 26.3908C248.862 29.4757 246.566 32.8177 244.779 36.4166C243.758 38.2162 242.737 40.0156 241.971 42.3294C241.715 42.8435 241.46 43.6147 241.46 44.1288C241.46 44.6429 241.46 44.9 241.46 45.4141C241.46 45.4141 241.205 45.9282 241.46 45.6712V45.9282V46.1853V46.6994V47.9849C241.46 51.0696 241.46 54.4116 241.205 57.7536C240.694 64.4374 240.185 71.3782 238.907 78.3192C238.907 78.8334 247.076 64.6944 250.906 48.7561Z" fill="#101C2E"/>
<path d="M238.907 78.8334C238.907 78.8334 247.076 64.6945 250.906 48.7561C254.989 32.5607 277.454 11.995 297.364 10.7096C317.276 9.42428 359.395 28.1905 359.395 28.1905L323.658 32.0466C323.658 32.0466 362.714 44.9 371.649 56.4681C378.796 65.9798 381.859 70.8641 381.859 70.8641L368.584 60.5813C368.584 60.5813 383.136 82.1752 386.964 93.7435C389.006 99.9132 390.283 124.335 390.283 124.335L366.543 96.5712C366.543 96.5712 373.69 122.278 374.711 140.016C375.732 157.754 369.096 165.466 369.096 165.466L359.395 143.358L354.801 178.063L350.206 154.926L331.06 192.201V175.749L314.978 192.201L303.491 186.031C303.491 186.031 289.196 130.762 275.922 113.795C262.648 96.8283 238.907 78.8334 238.907 78.8334Z" fill="#9AB6DE"/>
<path d="M372.924 57.7534C373.945 59.553 374.966 61.0954 375.988 62.3807C374.202 59.8101 373.179 58.0105 372.924 57.7534Z" fill="#101C2E"/>
<path d="M376.498 115.852L396.154 138.731L395.39 123.821C395.133 119.708 394.112 98.3707 391.816 91.9439C389.772 85.7743 384.923 77.0338 380.583 69.8359L368.585 60.3243C368.585 60.3243 383.136 81.9182 386.965 93.4863C389.006 99.6561 390.284 124.078 390.284 124.078L366.798 96.5712C366.798 96.5712 356.588 82.4323 340.761 80.8899C324.934 79.0905 319.573 78.8334 319.573 78.8334C319.573 78.8334 325.955 70.35 338.719 70.8642C351.482 71.3783 362.969 74.7203 362.969 74.7203C362.969 74.7203 348.163 56.7252 334.889 54.9258C321.615 53.1262 292.259 54.9258 292.259 54.9258C292.259 54.9258 291.493 50.0415 292.259 44.643C293.025 39.2445 298.131 32.5605 298.131 32.5605C298.131 32.5605 280.262 34.3602 272.603 44.643C264.946 54.9258 266.222 84.489 272.603 98.6277C278.985 112.767 309.107 158.525 309.107 158.525L294.046 151.841L307.32 188.088L313.958 195.029L316.254 192.459L319.573 195.8L326.721 188.346V213.282L348.674 170.35L356.333 209.939L362.458 162.124L367.819 174.464L373.181 168.551C373.945 167.523 381.349 158.782 380.072 139.502C379.562 132.304 378.03 123.564 376.498 115.852Z" fill="#101C2E"/>
<path d="M238.398 78.8334C238.398 78.8334 214.146 70.8641 199.596 70.8641C185.047 70.8641 163.348 78.8334 163.348 78.8334C163.348 78.8334 149.053 85.2601 139.608 94.2576C130.163 103.255 121.483 112.51 121.483 112.51C121.483 112.51 106.678 127.934 98.2537 144.129C89.8298 160.325 89.5745 168.551 89.5745 168.551L103.87 156.726L92.3825 185.517L111.528 182.432L107.188 222.022L115.867 216.108C115.867 216.108 115.102 230.506 117.654 241.044C119.441 248.758 125.057 254.413 125.057 254.413L127.865 243.359C127.865 243.359 136.544 259.297 145.734 264.696C159.519 273.18 183.769 273.95 183.769 273.95C183.769 273.95 193.981 274.464 199.596 274.464C205.468 274.722 213.125 273.95 213.125 273.95C213.125 273.95 230.228 274.464 244.013 268.037C255.755 262.639 261.882 257.754 261.882 257.754L275.411 230.506L283.07 238.988L280.007 210.453L289.708 191.687L289.451 176.263L307.831 188.346L294.557 152.098L307.831 157.754L290.728 123.307C290.728 123.307 274.901 103.769 266.222 97.3424C256.776 90.9157 238.398 78.8334 238.398 78.8334Z" fill="#EEF3F7"/>
<path d="M238.398 78.8334C238.398 78.8334 214.146 70.8641 199.596 70.8641C185.047 70.8641 163.348 78.8334 163.348 78.8334C163.348 78.8334 149.053 85.2601 139.608 94.2576C130.163 103.255 121.483 112.51 121.483 112.51C121.483 112.51 106.678 127.934 98.2537 144.129C89.8298 160.325 89.5745 168.551 89.5745 168.551L103.87 156.726L102.849 179.092L114.846 179.862L110.762 217.395L115.867 216.623C115.867 216.623 115.102 231.02 117.654 241.559C119.441 249.272 125.057 254.927 125.057 254.927L127.865 243.873C127.865 243.873 136.544 259.811 145.734 265.21C159.519 273.694 183.769 274.464 183.769 274.464C183.769 274.464 193.981 274.978 199.596 274.978C205.468 275.236 213.636 274.464 213.636 274.464C213.636 274.464 232.016 274.464 244.013 269.065C255.755 263.924 260.35 258.526 260.35 258.526L274.901 231.02L282.558 239.502L279.496 210.967L292.515 220.221L288.941 176.777L307.32 188.86L294.046 152.613L307.32 158.268L290.217 123.821C290.217 123.821 274.39 104.283 265.71 97.8565C256.776 90.9157 238.398 78.8334 238.398 78.8334Z" fill="url(#paint0_linear)"/>
<path d="M233.804 147.728C233.804 147.728 222.826 147.985 224.867 168.551C227.42 191.945 242.481 195.029 242.481 195.029L241.461 180.89C241.461 180.89 251.927 185.775 257.033 182.69C265.456 177.805 267.243 173.95 267.243 165.208C267.243 155.955 263.414 153.641 263.414 153.641C263.414 153.641 266.733 151.584 267.243 144.643C267.498 140.273 261.373 132.818 261.373 132.818C261.373 132.818 262.137 140.53 259.586 143.358C257.033 146.186 250.395 150.813 243.502 155.44C238.398 159.039 232.526 162.124 232.526 161.867C232.526 161.867 230.994 159.039 230.994 156.212C231.505 152.356 233.292 149.014 233.804 147.728Z" fill="white"/>
<path d="M256.776 154.669C255.246 162.124 249.374 173.178 245.034 173.178C240.694 173.178 237.632 171.122 237.632 163.41C237.632 161.61 240.951 159.554 244.779 157.24C249.119 154.926 258.053 147.471 256.776 154.669Z" fill="#101C2E"/>
<path d="M239.928 165.466C240.492 165.466 240.949 164.545 240.949 163.41C240.949 162.274 240.492 161.353 239.928 161.353C239.365 161.353 238.907 162.274 238.907 163.41C238.907 164.545 239.365 165.466 239.928 165.466Z" fill="white"/>
<path d="M165.135 147.728C165.135 147.728 176.111 147.985 174.069 168.551C171.516 191.945 156.455 195.029 156.455 195.029L157.476 180.89C157.476 180.89 147.011 185.775 141.905 182.69C133.481 177.805 131.694 173.95 131.694 165.208C131.694 155.955 135.523 153.641 135.523 153.641C135.523 153.641 132.205 151.584 131.694 144.643C131.439 140.273 137.565 132.818 137.565 132.818C137.565 132.818 136.8 140.53 139.352 143.358C141.905 146.186 148.541 150.813 155.434 155.44C160.54 159.039 166.412 162.124 166.412 161.867C166.412 161.867 167.942 159.039 167.942 156.212C167.433 152.356 165.901 149.014 165.135 147.728Z" fill="white"/>
<path d="M142.16 154.669C143.692 162.124 149.564 173.178 153.904 173.178C158.242 173.178 161.306 171.122 161.306 163.41C161.306 161.61 157.987 159.554 154.158 157.24C149.819 154.926 140.884 147.471 142.16 154.669Z" fill="#101C2E"/>
<path d="M145.734 158.525C146.298 158.525 146.755 157.605 146.755 156.469C146.755 155.333 146.298 154.412 145.734 154.412C145.17 154.412 144.713 155.333 144.713 156.469C144.713 157.605 145.17 158.525 145.734 158.525Z" fill="white"/>
<path d="M163.348 78.8334C163.348 78.8334 167.687 76.2626 174.324 73.6919C176.111 72.9208 177.897 72.4066 179.941 71.8923C181.982 71.3782 184.024 70.607 186.322 70.0929C188.619 69.5788 190.917 69.0646 193.215 68.8076C195.768 68.5505 198.064 68.2935 200.617 68.2935C202.915 68.2935 205.723 68.8076 208.019 69.0646C210.318 69.3217 212.614 69.8358 214.912 70.35C219.252 71.3782 223.337 72.6637 226.911 73.949C233.802 76.5196 238.141 78.8334 238.141 78.8334C238.141 78.8334 233.292 78.0622 226.145 77.0337C222.571 76.5196 218.486 75.7484 214.146 74.9772C211.85 74.7202 209.806 74.4631 207.51 73.949C205.212 73.6919 203.17 73.4349 200.617 73.4349C198.319 73.1778 196.023 73.4349 193.724 73.6919C191.428 73.949 189.13 74.2061 187.088 74.4631C182.748 75.2343 178.663 76.0055 175.09 76.5196C168.197 78.0622 163.348 78.8334 163.348 78.8334Z" fill="#101C2E"/>
<path d="M103.87 156.726L89.5746 168.551C89.5746 168.551 89.8299 160.068 98.2538 144.129C106.678 127.934 121.483 112.51 121.483 112.51C121.483 112.51 130.163 103.255 139.608 94.2577C148.798 85.2601 163.348 78.8334 163.348 78.8334C163.348 78.8334 168.963 76.7768 176.367 74.7203C170.752 68.2935 156.2 51.0697 152.115 45.9283C147.266 39.5016 133.226 5.31114 101.572 5.56821C69.9187 5.82528 26.778 44.643 26.778 44.643L46.4339 36.4166L15.8013 64.6945L35.7125 54.9258C35.7125 54.9258 21.4174 66.2369 17.5883 72.9207C13.7591 79.6046 5.33521 106.083 5.33521 106.083L22.949 89.1163C22.949 89.1163 12.2276 110.453 12.2276 120.736C12.2276 131.019 14.2697 148.242 14.2697 148.242L26.778 118.936C26.778 118.936 25.757 134.618 26.778 145.672C27.7992 156.726 42.0943 176.263 42.0943 176.263V155.698C42.0943 155.698 49.4971 165.466 53.3261 173.95C57.1553 182.433 69.9187 186.289 69.9187 186.289L103.614 164.438L103.87 156.726Z" fill="#9AB6DE"/>
<path d="M126.334 43.8717C118.675 33.5889 91.106 33.5889 91.106 33.5889C91.106 33.5889 103.104 39.5015 106.678 43.8717C109.996 48.2419 106.678 54.1545 106.678 54.1545C106.678 54.1545 90.5956 45.157 77.3215 46.6995C64.0473 48.2419 42.0941 68.5505 42.0941 68.5505C42.0941 68.5505 53.3261 67.0081 58.942 68.2934C66.0895 70.0929 66.8554 78.0621 66.8554 78.0621C66.8554 78.0621 66.6001 76.0055 59.7079 76.5196C43.881 78.0621 35.7124 95.7999 35.7124 95.7999C35.7124 95.7999 33.4149 98.8849 31.1175 103.255L31.3727 97.5994L22.9488 117.394C20.6514 123.049 18.3539 128.448 15.8013 134.104C15.8013 133.589 15.8013 133.075 15.546 132.561C15.2907 129.99 15.0355 127.42 15.0355 125.106C15.0355 123.821 14.7802 122.792 14.7802 121.507C14.7802 120.736 14.7802 120.222 14.7802 119.708C14.7802 119.193 14.7802 118.679 15.0355 118.165C15.2907 115.851 15.8013 113.538 16.567 111.224C17.3329 108.911 18.0986 106.597 18.8645 104.283C20.6514 99.656 22.6935 95.0288 24.7357 90.4015L31.8833 75.4913L20.3961 87.0595L9.41955 98.3707L11.2064 92.2009C12.738 87.3167 14.2696 82.4324 16.0564 77.8051C16.567 76.5196 16.8223 75.4914 17.5882 74.4631L18.0986 73.6919L18.6092 72.9207C18.8645 72.4066 19.3751 71.8923 19.6304 71.3782C21.1619 69.3217 22.6935 67.5223 24.4804 65.7226C28.0543 62.1238 31.628 58.5247 35.4571 55.1828C31.3727 58.2677 27.2884 61.3524 23.4594 64.6944C21.6725 66.4938 19.6304 68.2934 18.0986 70.3499C17.5882 70.8641 17.3329 71.3782 16.8223 71.8923L16.3117 72.6637L15.8013 73.4349C15.2907 74.4631 14.5249 75.7484 14.0143 77.0337C11.9721 81.661 9.92996 86.5454 8.14309 91.1726C6.35622 96.057 4.56935 100.684 3.03777 105.569L0.229736 113.795L6.61151 107.882L14.2696 100.941C14.0143 101.455 14.0143 101.713 13.7592 102.227C12.738 104.54 11.717 107.111 10.9511 109.682C10.1853 112.252 9.41955 114.823 8.90896 117.651C8.65367 118.936 8.65367 120.736 8.65367 122.021C8.65367 123.307 8.65367 124.592 8.65367 125.877C8.65367 128.448 8.90897 131.019 9.16426 133.589C9.41955 138.731 9.92996 143.872 10.6958 149.014L12.2274 162.124L17.5882 150.042C19.3751 146.186 20.9066 142.33 22.4382 138.731C22.4382 140.016 22.4382 141.301 22.6935 142.587C22.6935 143.872 22.9488 145.158 22.9488 146.7V147.728L23.2041 149.014C23.4594 149.785 23.4594 150.556 23.7147 151.07C25.2463 156.469 27.799 161.096 30.3518 165.723C31.628 168.037 33.1596 170.093 34.4361 172.408C35.9677 174.721 37.2439 176.777 38.7757 178.834L45.4126 188.088V176.521V167.265C45.6679 167.523 45.9232 168.037 46.1785 168.293C47.1996 170.093 48.2206 171.894 49.2418 173.692L50.7734 176.521L52.3049 179.348C53.3261 181.404 54.6024 183.204 55.6234 185.003C56.134 186.031 56.8998 186.803 57.6656 187.832C58.1761 188.346 58.4314 188.86 58.6867 189.116L59.7079 190.402C62.5158 193.743 65.5791 196.828 68.6422 199.914L76.8109 208.397L73.2371 197.086C72.216 194.001 71.195 190.658 70.4291 187.317C70.1738 186.803 70.1738 186.289 70.1738 185.517C71.195 185.261 72.9819 184.489 74.5134 184.489C75.2793 185.003 75.7899 185.775 76.5556 186.289C77.5768 187.317 78.3426 188.346 78.853 189.63L79.8742 191.687C80.3848 192.459 80.6399 193.229 81.1505 194.001C84.7242 199.4 88.8087 204.284 93.1482 209.169L96.4668 212.767L95.4456 208.14C95.4456 207.626 95.1903 206.854 95.1903 206.34C95.1903 205.826 94.9352 205.056 94.9352 204.541C94.9352 204.284 94.9352 204.027 94.9352 203.769C95.4456 199.4 96.4668 193.229 96.9774 189.888C98.2537 180.89 104.891 150.813 104.891 150.813L89.8297 157.497C89.8297 157.497 119.952 111.738 126.334 97.5994C132.715 83.4606 133.992 54.1545 126.334 43.8717Z" fill="#101C2E"/>
<path d="M159.008 52.0978C156.711 49.0131 154.158 45.9282 152.626 42.5862C150.839 39.2444 149.052 35.6454 147.01 32.3034C144.968 28.9616 142.671 25.6196 140.118 22.5349C138.842 20.9923 137.565 19.4499 136.289 17.9076C134.757 16.365 133.481 15.0797 131.949 13.5373C130.418 12.252 128.886 10.9666 127.099 9.68123L124.547 7.88175C123.781 7.36761 122.76 6.85347 121.739 6.33932C120.718 5.82518 119.952 5.31104 118.931 5.05396L115.612 4.28274C113.57 3.51154 111.528 3.25446 109.486 2.74032C107.443 2.22618 105.401 2.22618 103.104 1.96912H102.338H101.827H101.572C101.572 1.96912 101.827 1.96912 101.317 1.96912H99.7853L96.9773 2.22618C95.1904 2.22618 92.8929 2.74032 90.8508 3.25446C88.8086 3.51154 86.7665 4.28274 84.9796 4.79688L82.1716 5.5681L79.1084 6.85347C77.3215 7.62467 75.2794 8.13881 73.4925 9.16709C71.7055 9.93831 69.9186 10.9666 68.1317 11.7377L63.0264 14.5656C59.7078 16.6221 56.134 18.6787 52.8154 20.7352C51.0285 21.7635 49.497 22.7919 47.9654 24.0772C46.4336 25.1055 44.6468 26.3908 43.1152 27.419C40.052 29.7328 36.7334 32.3034 33.6702 34.6171C30.6069 37.1877 27.7989 39.7585 24.7357 42.3291L11.2063 54.9257L27.7989 47.4706C30.3516 46.1852 33.1597 45.157 35.7124 43.8717C33.9255 45.9282 31.8832 47.7276 30.0963 49.5272C25.2463 54.4116 20.3961 59.553 15.5459 64.6944C20.9067 60.3242 26.5226 55.9539 31.8832 51.5837C37.244 47.2135 42.6046 42.5862 47.9654 38.2161L57.6656 29.9898L45.6679 34.36H45.4126C46.1785 33.8459 46.6889 33.3318 47.4548 33.0747C50.5181 31.0181 53.8366 28.7045 57.155 26.9049C60.4736 24.8484 63.5368 23.049 66.8554 20.9923L71.9607 18.4217C73.7476 17.6505 75.2794 16.8791 77.0662 16.108C78.8531 15.3368 80.64 14.5656 82.1716 14.0515L84.7243 13.0232L87.277 12.252C89.0639 11.7377 90.8508 10.9666 92.3824 10.7095C94.1694 10.4525 95.701 9.93831 97.7431 9.68123L100.551 9.42417H101.827H102.083H102.338H103.104L105.656 9.68123H106.933L108.209 9.93831C109.996 10.1954 111.783 10.4525 113.315 10.9666L115.867 11.7377C116.633 11.9948 117.399 12.5091 118.42 12.7661C119.186 13.2803 119.952 13.5373 120.718 13.7944L123.015 15.0797C124.547 15.8509 126.078 17.1362 127.355 18.1646C128.886 19.1929 130.162 20.4782 131.439 21.7635C132.715 23.049 133.991 24.3343 135.268 25.8767C137.821 28.7045 140.118 31.7893 142.16 34.8742C144.458 37.9591 146.245 41.3009 148.541 44.6429C149.052 45.6711 149.564 46.1852 150.328 47.2135L152.371 49.5272L156.2 53.8974C161.306 59.81 166.921 65.2085 172.282 70.8641L159.008 52.0978Z" fill="#101C2E"/>
<path d="M221.805 268.551C225.379 267.523 229.207 266.238 232.526 264.952C234.313 264.182 236.1 263.668 237.632 262.895L238.141 262.639H238.398L238.653 262.381L239.928 261.611C240.949 261.097 241.46 260.583 242.226 260.325C243.759 259.297 245.289 258.268 246.821 257.498C248.353 256.726 249.885 255.956 251.161 254.927C253.714 252.871 255.755 250.557 257.542 247.728C258.308 246.444 259.329 244.643 260.095 243.101C260.861 241.558 261.627 239.76 262.393 237.96C263.924 234.619 265.456 231.02 266.988 227.421L271.328 216.881L276.177 226.649C276.177 225.879 276.177 225.106 276.177 224.336L275.922 219.193L275.667 214.052L275.156 208.911L273.881 194.001L284.091 205.056L285.877 207.112V204.542V201.971C285.877 200.943 285.877 199.914 285.877 199.142C285.877 198.372 285.877 197.6 285.623 196.572C285.368 192.973 284.857 189.63 284.091 186.031C283.836 184.233 283.324 182.432 282.815 180.634L282.049 178.063L281.283 175.493L277.709 162.381L288.942 169.836L294.302 173.436L286.389 151.841L285.623 149.785L270.562 142.33C270.562 142.33 276.432 159.297 276.943 164.695C277.709 172.664 277.198 182.69 277.198 182.69L269.284 166.751C269.284 166.751 272.348 192.459 270.816 203.513C269.284 214.566 267.754 222.794 267.754 222.794L259.584 198.372C259.584 198.372 259.84 223.822 248.863 239.76C239.674 252.871 227.42 262.895 221.805 268.551C221.55 268.551 221.55 268.551 221.805 268.551Z" fill="white"/>
<path d="M300.172 158.525C300.938 158.782 301.959 159.04 302.725 159.297L315.49 163.41L308.597 152.87C305.023 147.471 301.704 142.073 298.131 136.674C294.557 131.276 290.983 125.877 287.409 120.479C289.451 126.648 291.494 132.818 293.791 138.731C294.557 141.044 295.578 143.358 296.344 145.672L293.536 144.386L282.815 139.759L286.898 150.813L294.812 172.408L289.451 168.807L278.22 161.353L281.794 174.464L282.558 177.035L283.324 179.606C283.836 181.404 284.09 183.205 284.602 185.003C285.368 188.602 285.877 191.945 286.132 195.544C286.132 196.314 286.388 197.344 286.388 198.114C286.388 198.886 286.388 199.914 286.388 200.943V203.513V206.084L284.602 204.027L274.39 192.973L275.667 207.882L276.177 213.024L276.433 218.165L276.688 223.308C276.688 224.078 276.688 224.85 276.688 225.621L271.837 215.852L267.497 226.393C265.967 229.734 264.69 233.332 262.903 236.931C262.137 238.732 261.372 240.274 260.606 242.073C259.84 243.615 258.819 245.415 258.053 246.7C256.266 249.786 254.225 252.099 251.672 253.899C250.395 254.927 248.862 255.698 247.332 256.47C245.8 257.24 244.268 258.268 242.738 259.297C241.971 259.811 241.205 260.069 240.439 260.583L239.164 261.353L238.907 261.611H238.653L238.141 261.867C236.611 262.639 234.824 263.41 233.037 263.924C229.463 265.21 225.89 266.494 222.316 267.523C218.742 268.551 214.912 269.579 211.338 270.607C207.51 271.636 203.936 272.664 200.107 273.436C207.764 273.436 215.678 273.18 223.337 272.408C227.165 272.15 230.994 271.636 235.079 270.865C237.12 270.607 238.907 270.093 240.951 269.579L244.013 268.809C245.034 268.551 246.055 268.295 247.076 268.037C249.119 267.523 251.161 266.752 252.948 265.724C254.734 264.696 256.521 263.41 258.308 262.125C261.882 259.555 264.946 255.698 266.988 252.099C268.263 250.042 269.029 248.5 270.05 246.7C270.307 246.186 270.307 245.929 270.561 245.415V248.758L270.307 267.266L280.007 251.585C280.517 250.557 281.028 249.786 281.537 249.014C282.049 248.242 282.558 247.214 282.815 246.444C283.581 244.643 284.345 242.845 285.111 241.044C285.877 239.246 286.388 237.189 286.643 235.133C286.898 234.105 286.898 233.076 287.155 232.048C287.155 231.02 287.409 229.734 287.409 228.963C287.409 227.163 287.409 225.364 287.409 223.564V221.764L292.259 227.163L295.068 219.451C295.323 218.937 295.323 218.679 295.323 218.423L295.578 217.651C295.832 217.137 295.832 216.623 295.832 216.108C296.089 215.08 296.089 214.052 296.344 213.024C296.598 210.967 296.855 208.911 296.855 207.112V204.284V201.199C296.855 200.171 296.855 199.4 296.855 198.372C296.855 197.344 296.855 196.314 296.598 195.286C296.344 191.945 295.832 188.346 295.068 185.003L302.725 189.888L315.49 198.372L310.129 183.719L300.172 158.525Z" fill="#101C2E"/>
<path d="M179.175 269.065C175.856 268.037 172.537 267.008 169.474 265.98C167.942 265.466 166.155 264.952 164.623 264.182C163.093 263.667 161.561 262.895 160.029 262.381C159.263 261.867 158.498 261.611 157.732 261.097C156.966 260.583 156.455 260.325 155.689 259.811C154.413 259.04 153.136 258.012 151.605 257.24C148.798 255.956 146.5 254.155 144.457 252.099C143.436 251.071 142.671 250.042 141.905 248.756C141.394 247.986 141.139 247.472 140.628 246.958C140.118 246.186 139.863 245.671 139.607 244.901C138.842 243.615 138.331 242.073 137.565 240.53C137.055 238.988 136.289 237.445 136.034 236.161L133.481 228.191L127.61 233.847C127.099 234.361 127.099 234.619 126.589 234.875C126.333 235.133 126.078 235.389 125.823 235.647C125.823 235.389 125.567 235.133 125.567 234.875C125.312 234.361 125.312 233.076 125.057 232.304C125.057 231.534 124.802 230.762 124.802 229.734C124.291 226.135 124.036 222.536 123.781 218.937C123.781 217.137 123.525 215.338 123.525 213.538C123.525 211.739 123.525 209.939 123.525 208.14V195.029L114.591 204.798L112.549 206.854C112.549 206.34 112.549 205.826 112.549 205.57V204.541L112.804 203.513L113.314 201.199L113.825 198.628C115.357 191.945 116.888 185.261 118.675 178.834L120.973 170.093L112.293 172.664L104.891 174.979L112.293 150.813L115.357 140.273L105.401 144.643L102.593 145.929C103.359 143.615 104.38 141.302 105.146 138.988C107.443 132.818 109.485 126.906 111.528 120.736C107.954 126.134 104.125 131.533 100.806 136.931C97.2325 142.33 93.6586 147.728 90.3401 153.127L83.4478 163.667L96.2113 159.553C97.2325 159.296 98.5088 158.782 99.5299 158.525L92.8929 181.148L90.0848 190.402L99.2746 187.574L107.188 185.261C106.167 189.116 105.401 192.973 104.38 196.828L103.87 199.4L103.359 202.227L103.104 203.769V205.312C103.104 206.34 103.104 207.368 103.104 208.397C103.104 210.453 103.359 212.253 103.614 214.052C103.869 215.08 103.869 215.852 104.125 216.88C104.38 217.909 104.635 218.679 104.891 219.707L107.443 228.449L113.57 221.764L114.08 221.25C114.335 224.592 114.591 228.191 115.101 231.534C115.101 232.562 115.357 233.59 115.612 234.619C115.867 235.647 115.867 236.417 116.123 237.445C116.633 239.502 117.144 241.558 117.909 243.615C118.675 245.415 119.441 247.472 120.462 249.272C120.973 250.042 121.483 251.071 121.994 251.843C122.504 252.613 123.015 253.641 123.525 254.413L129.141 263.41L132.46 253.385V253.127C132.715 253.899 133.226 254.413 133.481 254.927C134.502 256.47 135.778 258.268 137.055 259.554C139.863 262.639 143.181 264.952 146.5 267.008C148.032 268.037 150.073 268.551 151.86 269.323C152.626 269.579 153.647 269.837 154.668 270.093C155.689 270.351 156.455 270.607 157.221 270.607C159.008 271.121 160.795 271.636 162.581 271.893C164.368 272.15 166.155 272.408 167.942 272.922C171.516 273.436 174.835 273.692 178.409 274.206C185.301 274.722 192.449 275.236 199.341 275.236C192.704 272.922 185.811 271.121 179.175 269.065Z" fill="#101C2E"/>
<path d="M128.12 141.559L112.804 149.271L112.293 150.813L105.146 174.721L112.549 172.408L121.228 169.836L118.93 178.577C117.143 185.261 115.612 191.945 114.08 198.372L113.57 200.943L113.059 203.255L112.804 204.284V205.312C112.804 205.826 112.804 206.084 112.804 206.598L114.846 204.542L123.781 194.771V207.882C123.781 209.683 123.781 211.481 123.781 213.282C123.781 215.08 123.781 216.88 124.036 218.679C124.291 222.278 124.546 225.879 125.057 229.477C125.057 230.248 125.312 231.276 125.312 232.048C125.567 232.818 125.567 234.105 125.823 234.619C125.823 234.875 126.078 235.133 126.078 235.389C126.333 235.133 126.589 234.875 126.844 234.619C127.099 234.361 127.354 234.104 127.865 233.59L133.736 227.935L136.289 235.903C136.799 237.189 137.31 238.988 137.82 240.274C138.331 241.816 139.097 243.359 139.863 244.643C140.118 245.415 140.628 245.929 140.884 246.7C141.394 247.472 141.649 247.728 142.16 248.5C142.926 249.786 143.947 250.814 144.713 251.843C146.755 253.899 149.053 255.698 151.86 256.984C153.136 257.754 154.413 258.526 155.945 259.554C156.711 260.069 157.221 260.325 157.987 260.839C158.753 261.353 159.519 261.611 160.285 262.125C161.561 262.895 163.347 263.41 164.88 263.924C166.41 264.438 167.942 265.21 169.729 265.724C170.24 265.98 170.75 265.98 171.516 266.238C166.921 260.583 159.008 251.329 150.328 238.732C139.607 222.792 139.607 197.342 139.607 197.342L131.439 221.764C131.439 221.764 130.162 213.538 128.375 202.485C126.589 191.43 129.907 165.723 129.907 165.723L121.994 181.662C121.994 181.662 121.483 171.636 122.249 163.667C122.504 158.525 128.12 141.559 128.12 141.559Z" fill="white"/>
<path d="M227.165 239.502C226.399 237.703 226.145 235.647 225.633 233.847C225.633 231.79 225.633 228.705 223.592 227.163C224.103 226.907 224.358 226.393 224.613 225.879L224.867 226.135L225.124 226.393C225.124 226.393 225.379 226.393 225.379 226.649C225.633 226.649 225.633 226.907 225.89 226.907C226.399 227.421 227.165 227.935 227.42 228.705C227.42 227.935 227.165 226.907 226.654 226.135C226.654 225.879 226.399 225.621 226.145 225.621L225.633 225.107C225.379 224.85 225.379 224.849 225.124 224.592C224.867 224.334 224.867 224.334 224.358 224.078H224.103L223.337 224.334C222.316 224.592 221.294 224.85 220.273 225.107C219.763 225.107 219.252 225.364 218.997 225.364H218.231H217.465C215.423 225.621 213.38 225.621 211.338 225.621H209.806C209.297 225.621 209.042 225.621 208.531 225.621C207.765 225.364 206.744 225.107 205.723 224.85L202.659 223.82C202.149 223.564 201.383 223.564 200.872 223.306C200.617 223.306 200.362 223.306 199.851 223.306H199.342C199.085 223.306 199.085 223.306 198.575 223.306C198.319 223.306 198.064 223.306 197.809 223.306C197.555 223.306 197.298 223.564 197.043 223.564L196.277 223.82C196.023 223.82 195.768 224.078 195.511 224.078C194.49 224.592 193.724 225.107 192.958 225.621C192.194 226.135 191.428 226.649 190.662 226.907C190.407 226.907 190.407 226.907 190.151 226.907C188.62 226.907 187.343 227.421 186.577 227.935C185.811 227.421 184.79 226.649 183.514 226.907C182.748 226.907 181.728 227.421 181.216 228.191C180.707 227.677 179.684 226.907 178.663 226.649C178.663 226.649 175.601 225.621 174.835 225.364C174.069 225.107 171.516 222.792 171.516 222.792C171.516 222.792 170.495 223.82 169.474 226.393C168.453 228.963 168.453 233.59 168.453 233.59C168.453 233.59 169.474 230.248 170.24 228.963C171.006 227.677 172.537 226.907 172.537 226.907L173.303 229.477C173.303 229.734 173.048 229.992 173.048 230.248C173.048 230.248 171.772 234.875 170.495 238.988C169.22 242.587 166.921 251.329 166.921 251.329C166.921 251.329 167.433 254.413 168.963 255.698C170.24 257.24 175.346 257.754 175.346 257.754C175.346 257.754 174.324 256.47 173.814 255.442C173.559 254.67 178.154 250.813 178.154 250.813C179.429 251.071 180.45 251.329 181.728 251.329C184.79 251.329 197.298 249.784 198.83 249.528C200.362 249.784 211.593 251.071 214.657 251.329H214.912C216.444 251.329 218.231 251.071 219.763 250.299C219.763 250.299 223.846 254.413 223.592 255.442C223.08 256.47 222.06 257.754 222.06 257.754C222.06 257.754 227.165 256.984 228.441 255.698C229.718 254.155 230.484 251.329 230.484 251.329C230.484 251.329 228.441 243.101 227.165 239.502Z" fill="#101C2E"/>
<path d="M220.527 228.449C220.273 228.449 219.252 229.219 218.486 230.248L217.21 232.048L216.444 229.992C216.444 229.734 215.933 228.963 214.402 228.963C212.87 228.963 212.359 229.477 212.359 229.477L211.593 231.276L210.317 229.477C210.317 229.477 209.806 228.963 208.019 228.963C206.232 228.963 205.723 229.477 205.723 229.477L204.702 230.506L203.936 228.963C203.936 228.963 203.425 228.191 202.149 228.191C201.128 228.191 200.617 229.219 200.617 229.219L199.341 232.304L198.064 229.219C198.064 229.219 197.554 228.191 196.532 228.191C195.256 228.191 194.49 229.477 194.49 229.477L193.215 231.276L192.192 229.219C192.192 229.219 191.937 228.963 190.405 228.963C188.618 228.963 187.598 229.992 187.598 229.992L186.577 231.02L185.556 229.734C185.301 229.477 184.535 228.705 183.769 228.705C183.514 228.705 182.748 229.477 182.237 229.992L181.216 231.276L180.195 229.992C179.684 229.477 178.663 228.191 177.642 228.191C177.131 228.191 176.622 228.449 176.367 228.705C175.344 229.992 175.09 232.562 175.344 234.619C175.601 236.417 177.642 238.732 178.408 239.502L179.684 240.788L177.897 241.558C177.897 241.558 175.344 242.587 175.344 244.387C175.344 244.643 175.601 245.157 175.856 245.671C177.131 246.958 179.684 247.986 181.727 247.728C184.79 247.728 198.575 245.929 198.83 245.929H199.085H199.341C199.341 245.929 212.104 247.472 215.167 247.728C217.21 247.728 219.506 247.214 220.527 246.186C221.039 245.671 221.039 245.415 221.039 245.157C221.039 243.101 220.273 242.587 220.273 242.587L218.997 241.816L220.018 240.788C220.018 240.788 222.571 237.96 222.825 234.361C223.591 229.477 222.059 228.705 220.527 228.449Z" fill="white"/>
<path d="M221.293 240.016C220.784 240.53 220.273 241.044 219.763 241.302C218.997 241.816 218.231 242.073 217.72 242.587C217.72 242.073 217.976 241.816 217.976 241.302C217.976 240.274 217.976 239.246 217.72 238.217L217.465 237.445C217.465 237.189 217.21 236.931 217.21 236.675C216.955 236.161 216.699 235.647 216.444 235.389C216.189 234.875 215.933 234.619 215.423 234.105C215.168 233.59 214.657 233.332 214.402 232.818L212.87 231.534L212.359 233.59C212.104 234.875 211.595 235.903 211.595 237.189C211.595 237.445 211.338 237.703 211.338 237.96C211.338 238.217 211.083 238.474 211.083 238.732C210.829 239.246 210.572 239.76 210.317 240.016C210.063 240.274 210.063 240.53 209.808 240.53H209.551H209.297C208.785 240.53 208.276 240.53 207.51 240.53C206.998 240.53 206.232 240.53 205.468 240.53C204.702 240.53 204.191 240.788 203.681 240.788L205.468 241.044C205.978 241.044 206.489 241.302 207.255 241.558C207.764 241.816 208.531 242.073 209.297 242.073C209.551 242.073 209.808 242.073 210.063 242.073C210.063 242.073 210.317 242.073 210.572 241.816C210.572 241.816 210.572 241.816 210.829 241.558C211.083 241.302 211.338 241.044 211.595 241.044C212.104 240.53 212.616 240.016 213.125 239.502C213.382 239.246 213.382 238.988 213.636 238.474C213.891 238.218 213.891 237.703 213.891 237.445C214.146 236.931 214.146 236.417 214.402 235.903L214.657 236.161C214.912 236.417 215.168 236.931 215.423 237.189L215.678 237.703L215.933 238.217C216.189 238.988 216.444 239.76 216.444 240.53C216.444 241.302 216.444 242.33 216.189 243.101L215.678 244.901L216.955 243.873C218.231 243.101 219.252 242.073 220.529 241.044C221.039 240.53 221.805 240.016 222.059 239.246C222.316 238.474 222.825 237.96 222.825 237.189C222.059 238.988 221.55 239.502 221.293 240.016Z" fill="#101C2E"/>
<path d="M195.768 241.302C194.745 241.302 193.724 241.044 192.958 240.788C192.194 240.53 191.171 240.016 190.407 239.502L189.384 238.988V240.274C189.13 240.016 188.875 239.76 188.62 239.502C188.364 239.246 188.109 238.988 187.854 238.474C187.854 238.218 187.598 238.218 187.598 237.96L187.343 237.445C186.577 235.903 185.811 234.105 185.046 232.304L183.769 230.506L182.493 232.048C181.982 232.818 181.473 233.59 180.961 234.361C180.707 234.875 180.45 235.133 180.45 235.647C180.45 235.903 180.195 236.417 180.195 236.675V237.445C180.195 238.474 180.195 239.246 180.45 240.016L180.707 241.302H180.45C179.684 241.044 179.174 240.788 178.663 240.788C177.642 240.274 176.622 239.502 175.855 238.988C176.622 240.016 177.388 240.788 178.154 241.558C178.663 242.073 179.174 242.331 179.684 242.587L181.216 243.359L182.493 244.129V242.587V241.302V240.016C182.493 239.246 182.493 238.474 182.748 237.445V236.931C182.748 236.675 182.748 236.675 182.748 236.675C182.748 236.417 183.003 236.161 183.259 235.647C183.259 235.647 183.259 235.647 183.259 235.389C183.769 236.417 184.28 237.446 184.79 238.732L185.301 239.246C185.556 239.502 185.556 239.76 185.811 240.016C186.067 240.53 186.577 240.788 187.088 241.044C187.598 241.302 187.854 241.558 188.364 241.816C188.875 242.073 189.13 242.331 189.896 242.587L191.171 243.101V241.816V241.302C191.683 241.558 192.449 241.558 192.958 241.558C193.724 241.816 194.745 241.558 195.768 241.302Z" fill="#101C2E"/>
<path d="M179.429 251.843L177.388 254.927C177.388 254.927 178.409 254.413 183.26 253.899C188.109 253.385 193.724 251.329 193.724 251.329L179.429 251.843Z" fill="white"/>
<path d="M170.24 223.05C170.24 223.05 171.261 221.25 172.027 219.965C172.537 219.193 174.069 219.451 174.069 219.451C174.069 219.451 174.58 220.221 175.856 221.764C177.388 223.564 178.663 224.85 178.663 224.85C178.663 224.85 175.09 223.05 174.324 222.536C173.557 222.022 173.048 221.508 173.048 221.508L170.24 223.05Z" fill="white"/>
<path d="M193.469 255.184C193.469 255.184 195.001 252.613 198.83 252.613C202.658 252.613 209.042 255.184 209.042 255.184C209.042 255.184 201.892 254.67 201.383 255.184C200.617 255.698 201.383 260.583 204.445 262.125C207.509 263.668 209.806 262.896 212.359 260.839C214.912 258.783 215.423 258.783 215.423 258.783C215.423 258.783 218.74 261.353 218.997 265.466C219.252 269.579 218.997 270.351 217.465 273.694C214.912 278.835 210.828 280.892 210.828 280.892C210.828 280.892 211.083 274.978 208.019 275.236C204.957 275.492 202.658 277.293 202.658 279.605C202.404 282.434 204.191 286.033 204.191 286.033C204.191 286.033 197.554 283.718 196.788 276.779C196.532 274.464 193.469 273.694 192.448 273.694C190.15 273.694 189.641 275.75 189.896 277.035C190.15 280.377 192.448 281.92 192.448 281.92C192.448 281.92 183.003 279.863 182.748 272.15C182.493 264.182 186.833 258.783 186.833 258.783C186.833 258.783 186.577 259.04 187.343 260.069C188.363 261.611 194.235 264.182 196.788 259.811C197.298 258.783 198.319 257.24 197.554 256.726C196.022 255.698 193.469 255.184 193.469 255.184Z" fill="white"/>
<path d="M132.205 176.263L130.418 173.692C130.418 173.692 128.886 179.092 129.141 182.176C129.397 185.261 129.397 190.658 129.397 190.658C129.397 190.658 129.907 184.747 130.162 181.662C130.418 180.12 132.205 176.263 132.205 176.263Z" fill="white"/>
<path d="M188.364 154.412C188.364 154.412 188.364 153.898 188.364 153.127C188.62 152.356 188.875 151.07 189.641 149.785C190.407 148.499 191.428 146.957 193.215 145.672C193.981 145.158 195.002 144.644 196.023 144.386C196.534 144.386 197.043 144.129 197.555 144.129C198.064 144.129 198.575 144.129 199.341 144.129H200.617C201.128 144.129 201.894 144.386 202.404 144.644C203.425 144.901 204.446 145.415 205.212 145.929C206.999 146.957 208.021 148.499 208.785 149.785C209.551 151.07 209.808 152.356 210.063 153.127C210.318 153.898 210.318 154.412 210.318 154.412C210.318 154.412 208.785 153.127 206.744 151.584C205.723 150.813 204.446 150.299 203.17 149.785C202.404 149.528 201.894 149.271 201.128 149.271C200.872 149.271 200.617 149.271 200.362 149.014H199.085H198.064H197.043C196.277 149.014 195.768 149.271 195.002 149.528C194.49 149.785 193.724 150.042 193.215 150.299C192.704 150.556 191.938 151.07 191.428 151.327C189.896 153.127 188.364 154.412 188.364 154.412Z" fill="#101C2E"/>
<path d="M220.784 174.979C219.506 171.38 213.891 161.096 210.317 157.754C206.744 154.412 199.596 153.127 199.596 153.127C199.596 153.127 192.194 154.155 188.875 157.754C185.556 161.353 179.684 171.38 178.408 174.979C176.876 178.577 175.855 196.316 175.855 202.999C175.855 211.739 175.855 222.28 178.408 224.336C180.961 226.393 199.851 227.421 199.851 227.421C199.851 227.421 218.742 226.393 221.293 224.336C223.846 222.28 223.846 211.739 223.846 202.999C223.337 196.316 222.316 178.319 220.784 174.979Z" fill="#101C2E"/>
<path d="M189.385 163.41C189.385 163.41 182.494 170.35 180.45 183.461C179.175 191.173 180.962 205.826 180.962 205.826C180.962 205.826 181.982 193.229 182.749 185.261C183.769 175.235 189.385 163.41 189.385 163.41Z" fill="white"/>
<path d="M111.017 13.7945C111.017 13.7945 98.5089 13.0233 88.8085 16.3651C80.3846 19.193 72.9818 24.8485 72.9818 24.8485L71.7053 21.7636C71.7053 21.7636 80.8951 15.851 89.0638 13.5374C97.2324 11.4808 111.017 13.7945 111.017 13.7945Z" fill="white"/>
<path d="M179.686 283.462C179.686 283.462 177.897 284.747 177.133 291.174C176.367 297.6 180.45 310.197 182.237 305.57C186.322 295.543 189.641 291.688 194.235 300.172C199.085 308.654 196.532 314.824 196.532 314.824C196.532 314.824 208.019 311.997 206.743 303.771C205.468 295.801 205.977 293.231 210.062 293.745C221.038 295.029 221.038 310.711 221.038 310.711C221.038 310.711 226.144 305.569 224.867 295.287C224.103 287.317 222.316 283.462 222.316 283.462H201.894H179.686Z" fill="#EEF3F7"/>
<defs>
<linearGradient id="paint0_linear" x1="198.403" y1="274.483" x2="198.403" y2="70.9002" gradientUnits="userSpaceOnUse">
<stop stop-color="#3F4B86" stop-opacity="0.7"/>
<stop offset="0.167" stop-color="#576498" stop-opacity="0.778"/>
<stop offset="0.4928" stop-color="#859AC5" stop-opacity="0.93"/>
<stop offset="0.6429" stop-color="#9AB6DE"/>
</linearGradient>
</defs>
</svg>
