<svg width="448" height="509" viewBox="0 0 448 509" fill="none" xmlns="http://www.w3.org/2000/svg">
<path d="M223.872 488.949C223.872 488.949 87.5576 450.902 63.0514 313.37C38.5455 175.836 35.2271 107.456 35.2271 107.456C35.2271 107.456 95.9815 93.0595 129.677 75.0647C163.373 57.0696 224.128 25.9641 224.128 25.9641C224.128 25.9641 284.882 57.0696 318.577 75.0647C352.273 93.0595 413.027 107.456 413.027 107.456C413.027 107.456 409.71 175.836 385.203 313.37C360.696 450.902 223.872 488.949 223.872 488.949Z" fill="url(#paint0_linear)"/>
<path d="M223.871 54.7561C243.272 64.7818 282.074 84.8334 306.324 97.6868C329.553 110.283 363.76 120.823 385.457 126.736C382.65 156.299 376.014 216.967 359.42 308.485C350.486 358.1 324.193 399.23 281.563 430.336C257.567 447.817 234.849 457.33 223.871 461.443C212.895 457.33 189.921 447.817 166.181 430.336C123.295 398.974 97.0024 358.1 88.3232 308.485C71.9859 216.967 65.0935 156.299 62.2857 126.736C84.2389 120.566 118.19 110.026 141.42 97.6868C165.67 85.0904 204.727 64.7818 223.871 54.7561ZM223.871 25.9641C223.871 25.9641 163.117 57.0696 129.422 75.0647C95.7261 93.0595 34.9717 107.456 34.9717 107.456C34.9717 107.456 38.2901 175.836 62.7962 313.37C87.3022 450.902 223.617 488.949 223.617 488.949C223.617 488.949 359.932 450.902 384.437 313.37C408.943 175.836 412.262 107.456 412.262 107.456C412.262 107.456 351.507 93.0595 317.811 75.0647C284.627 57.3267 223.871 25.9641 223.871 25.9641Z" fill="url(#paint1_linear)"/>
<path d="M223.872 29.8202C241.485 38.8177 288.455 63.2393 316.79 78.1494C344.36 92.8025 386.735 105.142 407.666 110.54C405.624 137.019 398.732 205.142 379.333 314.14C369.376 370.181 339.765 416.198 291.52 451.158C262.162 472.495 234.338 483.036 224.128 486.379C214.171 483.036 186.859 472.753 157.502 451.673C108.745 416.712 78.8782 370.439 68.6674 314.14C49.0116 205.142 42.3746 137.019 40.0771 110.54C61.2646 104.885 103.639 92.8025 130.953 78.1494C159.289 62.9822 206.258 38.8177 223.872 29.8202ZM223.872 12.3394C223.872 12.3394 159.544 45.5015 123.806 64.5248C88.068 83.5479 23.9951 98.7151 23.9951 98.7151C23.9951 98.7151 27.5689 171.208 53.6064 316.711C79.6441 462.213 224.128 502.316 224.128 502.316C224.128 502.316 368.355 462.213 394.648 316.711C420.94 171.208 424.259 98.7151 424.259 98.7151C424.259 98.7151 359.932 83.5479 324.193 64.5248C288.201 45.5015 223.872 12.3394 223.872 12.3394Z" fill="#101C2E"/>
<path d="M333.384 295.632C333.384 295.632 328.023 274.295 318.578 264.782C309.132 255.014 283.095 244.732 283.095 244.732L222.341 246.53L161.586 244.732C161.586 244.732 135.549 254.758 126.103 264.782C116.914 274.295 111.298 295.632 111.298 295.632L222.085 294.86L333.384 295.632Z" fill="#101C2E"/>
<path d="M177.158 297.174C177.158 297.174 159.544 283.293 142.951 266.583C126.358 249.873 106.447 226.479 106.447 226.479C106.447 226.479 88.5783 219.282 72.4963 210.284C56.4143 201.286 30.8872 179.436 30.8872 179.436C30.8872 179.436 41.6086 203.6 53.6063 219.282C65.6041 234.963 123.806 277.636 123.806 277.636L177.158 297.174Z" fill="white" stroke="#101C2E" stroke-width="2" stroke-miterlimit="10"/>
<path d="M82.9623 227.508C82.9623 227.508 88.0676 231.621 95.9811 237.79C103.894 243.96 114.361 252.186 125.082 259.899C127.89 261.698 130.443 263.498 133.251 265.297C136.058 267.097 138.611 268.895 141.164 270.696C146.269 274.295 150.864 277.894 154.949 280.722C158.778 283.807 162.096 286.377 164.394 288.176C166.691 289.976 167.967 291.261 167.967 291.261L167.712 291.519C167.712 291.519 166.181 290.747 163.883 289.204C161.33 287.662 158.012 285.349 153.928 282.521C149.843 279.692 144.993 276.351 139.888 272.752C137.335 270.952 134.782 269.153 132.229 267.097C129.422 265.297 126.869 263.24 124.061 261.442C113.339 253.472 103.129 244.988 95.7258 238.562C87.8125 232.135 82.707 227.764 82.9623 227.508Z" fill="#101C2E"/>
<path d="M149.588 275.837L141.675 265.04C156.736 279.436 156.736 279.436 177.413 296.916L123.806 277.379L123.295 276.865L123.806 275.065L149.588 275.837Z" fill="#101C2E"/>
<path opacity="0.4" d="M136.059 265.04C135.804 264.782 103.895 230.592 103.895 230.592C103.895 230.592 81.1758 220.052 73.7731 215.939C66.3701 211.826 45.1826 196.144 45.1826 196.144L136.059 265.04Z" fill="url(#paint2_linear)"/>
<path d="M267.779 297.174C267.779 297.174 285.393 283.293 301.984 266.583C318.577 249.873 338.489 226.479 338.489 226.479C338.489 226.479 356.358 219.282 372.44 210.284C388.522 201.286 414.049 179.436 414.049 179.436C414.049 179.436 403.328 203.6 391.329 219.282C379.333 234.963 321.13 277.636 321.13 277.636L267.779 297.174Z" fill="white" stroke="#101C2E" stroke-width="2" stroke-miterlimit="10"/>
<path d="M362.229 227.764C362.229 227.764 357.124 232.135 349.466 238.562C341.807 244.988 331.597 253.472 321.131 261.442C318.578 263.498 315.77 265.297 312.962 267.097C310.409 268.895 307.602 270.952 305.304 272.752C300.198 276.351 295.348 279.692 291.263 282.521C287.18 285.349 283.606 287.662 281.308 289.204C278.755 290.747 277.48 291.519 277.48 291.519L277.223 291.261C277.223 291.261 278.5 290.232 280.797 288.176C283.095 286.377 286.159 283.549 290.243 280.722C294.071 277.636 298.667 274.037 304.028 270.696C306.581 268.895 309.388 267.097 311.941 265.297C314.749 263.498 317.557 261.698 320.11 259.899C330.831 252.186 341.297 243.96 349.211 237.79C356.868 231.621 361.974 227.508 362.229 227.764Z" fill="#101C2E"/>
<path d="M295.348 275.837L303.262 265.04C288.201 279.436 288.201 279.436 267.524 296.916L321.131 277.379L321.642 276.865L321.131 275.065L295.348 275.837Z" fill="#101C2E"/>
<path opacity="0.4" d="M308.877 265.04C309.132 264.782 341.041 230.592 341.041 230.592C341.041 230.592 363.76 220.052 371.163 215.939C378.567 211.826 399.754 196.144 399.754 196.144L308.877 265.04Z" fill="url(#paint3_linear)"/>
<path d="M119.211 482.262L185.836 420.822L171.798 405.398L105.172 466.838C104.406 467.609 104.406 468.637 105.172 469.409L116.659 482.006C117.169 482.776 118.446 483.034 119.211 482.262Z" fill="#9AB6DE" stroke="#101C2E" stroke-width="2" stroke-miterlimit="10"/>
<path d="M118.559 482.892L186.002 420.789L182.385 416.804L114.941 478.907L118.559 482.892Z" fill="#101C2E"/>
<path d="M106.928 469.704L174.183 407.774L171.943 405.309L104.688 467.238L106.928 469.704Z" fill="#EEF3F7"/>
<path d="M106.958 469.925L105.682 468.64L118.701 482.778L122.275 479.437L110.532 466.326L106.958 469.925Z" fill="#101C2E"/>
<path d="M119.499 476.26L120.818 475.046L109.621 462.713L108.302 463.928L119.499 476.26Z" fill="#EEF3F7"/>
<path d="M118.956 458.614L130.698 471.467L134.528 468.126L122.785 455.271L118.956 458.614Z" fill="#101C2E"/>
<path d="M131.537 464.939L132.856 463.725L121.831 451.584L120.513 452.798L131.537 464.939Z" fill="#EEF3F7"/>
<path d="M131.209 447.303L142.951 460.414L146.78 456.814L135.038 443.961L131.209 447.303Z" fill="#101C2E"/>
<path d="M143.85 453.77L145.169 452.556L133.972 440.224L132.653 441.438L143.85 453.77Z" fill="#EEF3F7"/>
<path d="M143.462 435.993L155.204 449.102L159.033 445.503L147.291 432.65L143.462 435.993Z" fill="#101C2E"/>
<path d="M155.884 442.435L157.203 441.221L146.006 428.891L144.688 430.103L155.884 442.435Z" fill="#EEF3F7"/>
<path d="M328.787 482.264L262.162 420.825L276.2 405.4L342.827 466.84C343.592 467.612 343.592 468.64 342.827 469.411L331.34 482.008C330.574 482.778 329.553 483.036 328.787 482.264Z" fill="#9AB6DE" stroke="#101C2E" stroke-width="2" stroke-miterlimit="10"/>
<path d="M333.18 478.919L265.736 416.816L262.119 420.8L329.562 482.903L333.18 478.919Z" fill="#101C2E"/>
<path d="M343.212 467.361L275.957 405.432L273.717 407.899L340.974 469.827L343.212 467.361Z" fill="#EEF3F7"/>
<path d="M341.041 469.925L342.063 468.64L329.299 482.778L325.47 479.437L337.212 466.326L341.041 469.925Z" fill="#101C2E"/>
<path d="M339.499 463.906L338.179 462.691L326.982 475.023L328.302 476.236L339.499 463.906Z" fill="#EEF3F7"/>
<path d="M328.789 458.614L317.045 471.467L313.217 468.126L325.215 455.271L328.789 458.614Z" fill="#101C2E"/>
<path d="M327.471 452.682L326.152 451.468L315.128 463.608L316.447 464.823L327.471 452.682Z" fill="#EEF3F7"/>
<path d="M316.536 447.303L304.792 460.414L301.218 456.814L312.962 443.961L316.536 447.303Z" fill="#101C2E"/>
<path d="M315.233 441.395L313.914 440.181L302.718 452.513L304.036 453.727L315.233 441.395Z" fill="#EEF3F7"/>
<path d="M304.283 435.993L292.541 449.102L288.967 445.503L300.709 432.65L304.283 435.993Z" fill="#101C2E"/>
<path d="M302.872 430.255L301.554 429.041L290.357 441.373L291.675 442.587L302.872 430.255Z" fill="#EEF3F7"/>
<path d="M426.812 173.009L402.817 230.078L284.116 346.017L250.165 310.799L369.121 194.346L426.812 173.009Z" fill="#1A293D"/>
<path d="M408.177 191.003L394.137 224.165L284.372 331.622L264.715 311.055L374.736 203.344L408.177 191.003ZM426.812 173.009L369.121 194.346L250.165 310.799L284.116 346.017L402.817 229.822L426.812 173.009Z" fill="#59C9E6"/>
<path d="M426.812 173.009L402.817 229.822L284.116 346.018L250.165 310.799L369.121 194.346L426.812 173.009ZM436.258 164.011L425.28 168.124L367.589 189.461L366.568 189.719L365.802 190.489L246.846 306.942L243.272 310.541L246.846 314.14L280.798 349.358L284.372 352.957L287.946 349.358L406.645 233.163L407.411 232.393L407.923 231.364L431.918 174.551L436.258 164.011Z" fill="#101C2E"/>
<path d="M353.294 250.901L352.273 249.873L368.355 234.191L380.097 234.449L388.267 226.221L389.288 227.25L380.609 235.992L368.867 235.734L353.294 250.901Z" fill="#60C3BD"/>
<path d="M358.655 230.592L357.634 229.564L374.482 213.112H383.927L395.924 201.286L396.945 202.572L384.437 214.655H374.993L358.655 230.592Z" fill="#60C3BD"/>
<path d="M308.111 283.549L306.835 282.521L325.98 263.754V253.986L343.339 237.02L344.36 238.048L327.512 254.5V264.526L308.111 283.549Z" fill="#60C3BD"/>
<path d="M323.683 278.664L322.663 277.636L333.384 267.353V256.556L343.339 246.788L344.36 248.073L334.916 257.071V267.867L323.683 278.664Z" fill="#60C3BD"/>
<path d="M334.659 274.551L333.638 273.266L350.486 257.071H356.867L363.505 250.387L364.781 251.671L357.379 258.613H350.997L334.659 274.551Z" fill="#60C3BD"/>
<path d="M356.358 235.22C355.592 235.22 354.571 234.963 354.06 234.191C352.784 232.907 352.784 230.592 354.06 229.306C355.335 228.022 357.633 228.022 358.911 229.306C360.186 230.592 360.186 232.907 358.911 234.191C357.888 234.963 357.122 235.22 356.358 235.22ZM356.358 230.078C355.847 230.078 355.335 230.336 355.081 230.592C354.315 231.364 354.315 232.393 355.081 233.163C355.847 233.935 356.867 233.935 357.633 233.163C358.4 232.393 358.4 231.364 357.633 230.592C357.379 230.336 356.867 230.078 356.358 230.078Z" fill="#60C3BD"/>
<path d="M350.998 255.528C349.975 255.528 349.211 255.27 348.7 254.5C348.188 253.728 347.679 252.958 347.679 252.186C347.679 251.157 347.933 250.387 348.7 249.873C349.466 249.359 350.232 248.845 350.998 248.845C352.019 248.845 352.785 249.101 353.294 249.873C353.805 250.643 354.315 251.415 354.315 252.186C354.315 253.214 354.06 253.986 353.294 254.5C352.528 255.27 351.762 255.528 350.998 255.528ZM350.998 250.387C350.486 250.387 349.975 250.643 349.72 250.901C349.466 251.157 349.211 251.671 349.211 252.186C349.211 252.7 349.466 253.214 349.72 253.472C349.975 253.728 350.486 253.986 350.998 253.986C351.507 253.986 352.019 253.728 352.273 253.472C352.528 253.214 352.785 252.7 352.785 252.186C352.785 251.671 352.528 251.157 352.273 250.901C352.019 250.643 351.507 250.387 350.998 250.387Z" fill="#60C3BD"/>
<path d="M363.761 233.163L362.74 232.135L368.1 226.736H374.482L378.822 222.623L379.842 223.651L375.248 228.278H368.866L363.761 233.163Z" fill="#60C3BD"/>
<path d="M20.9316 173.009L45.1823 230.078L163.628 346.017L197.834 310.799L78.878 194.346L20.9316 173.009Z" fill="#1A293D"/>
<path d="M39.5664 191.003L73.262 203.344L183.283 311.055L163.628 331.622L53.6062 223.909L39.5664 191.003ZM20.9316 173.009L44.927 229.822L163.628 346.017L197.58 310.799L78.878 194.346L20.9316 173.009Z" fill="#59C9E6"/>
<path d="M20.9318 173.009L78.6231 194.346L197.58 310.799L163.628 346.018L45.1827 230.078L20.9318 173.009ZM11.7422 164.011L16.3371 175.065L40.3325 231.879L40.8431 232.907L41.6089 233.677L160.31 349.873L163.884 353.471L167.457 349.873L201.408 314.654L204.982 311.055L201.408 307.456L82.4522 190.747L81.6863 189.975L80.6653 189.719L22.7189 168.124L11.7422 164.011Z" fill="#101C2E"/>
<path d="M94.4496 250.901L79.1335 235.734L67.1356 235.992L58.4565 227.25L59.4775 226.221L67.9015 234.449L79.644 234.191L95.726 249.873L94.4496 250.901Z" fill="#60C3BD"/>
<path d="M89.0891 230.592L72.7518 214.655H63.562L51.0537 202.572L52.0749 201.286L64.0726 213.112H73.5175L90.3654 229.564L89.0891 230.592Z" fill="#60C3BD"/>
<path d="M139.888 283.549L120.487 264.526L120.232 254.5L103.384 238.048L104.661 237.02L121.764 253.986L122.019 263.754L140.909 282.521L139.888 283.549Z" fill="#60C3BD"/>
<path d="M124.061 278.664L113.084 267.867L112.829 257.071L103.639 248.073L104.66 246.788L114.361 256.556L114.616 267.353L125.082 277.636L124.061 278.664Z" fill="#60C3BD"/>
<path d="M113.084 274.551L96.7472 258.613H90.3654L83.2178 251.671L84.2389 250.387L91.1311 257.071H97.5129L114.105 273.266L113.084 274.551Z" fill="#60C3BD"/>
<path d="M91.6422 235.219C90.8763 235.219 89.8553 234.963 89.3447 234.191C88.579 233.677 88.3237 232.649 88.3237 231.879C88.3237 231.106 88.579 230.078 89.3447 229.564C90.6212 228.278 92.6634 228.278 94.1949 229.564C94.9606 230.078 95.2159 231.106 95.2159 231.879C95.2159 232.907 94.9606 233.677 94.1949 234.191C93.4291 234.963 92.6634 235.219 91.6422 235.219ZM91.6422 230.078C91.1316 230.078 90.6212 230.336 90.3659 230.592C90.1106 230.85 89.8553 231.364 89.8553 231.879C89.8553 232.393 90.1106 232.907 90.3659 233.163C90.6212 233.421 91.1316 233.677 91.6422 233.677C92.1528 233.677 92.6633 233.421 92.9185 233.163C93.1738 232.907 93.4291 232.393 93.4291 231.879C93.4291 231.364 93.1738 230.85 92.9185 230.592C92.6633 230.336 92.1528 230.078 91.6422 230.078Z" fill="#60C3BD"/>
<path d="M97.0022 255.528C96.2363 255.528 95.2154 255.272 94.7048 254.5C93.4285 253.214 93.4285 251.157 94.7048 249.615C95.9812 248.33 98.0234 248.33 99.555 249.615C100.831 250.901 100.831 252.958 99.555 254.5C98.7891 255.272 98.0234 255.528 97.0022 255.528ZM97.0022 250.387C96.4916 250.387 95.9812 250.643 95.7259 250.901C94.9601 251.671 94.9601 252.7 95.7259 253.472C95.9812 253.728 96.4916 253.986 97.0022 253.986C97.5128 253.986 98.0234 253.728 98.2785 253.472C99.0444 252.7 99.0444 251.671 98.2785 250.901C98.0234 250.643 97.5128 250.387 97.0022 250.387Z" fill="#60C3BD"/>
<path d="M84.2388 233.163L79.1333 228.278H72.7516L67.9014 223.651L68.9225 222.623L73.2621 226.736H79.6439L85.2598 232.135L84.2388 233.163Z" fill="#60C3BD"/>
<path opacity="0.2" d="M20.9316 173.009L45.1823 230.078L163.628 346.017L180.22 329.05L20.9316 173.009Z" fill="white"/>
<g opacity="0.6">
<path opacity="0.6" d="M20.9316 173.009L34.2056 177.894L20.9316 173.009L27.5685 188.69L47.735 199.229L20.9316 173.009Z" fill="white"/>
</g>
<g opacity="0.6">
<path opacity="0.6" d="M103.64 253.986L41.3535 221.08L43.651 226.736L112.574 262.726L103.64 253.986Z" fill="white"/>
</g>
<g opacity="0.6">
<path opacity="0.6" d="M119.722 269.667L46.459 231.364L77.8573 262.212L151.886 301.287L119.722 269.667Z" fill="white"/>
</g>
<g opacity="0.6">
<path opacity="0.6" d="M52.8406 204.372L28.8452 191.775L39.5666 217.225L93.4287 243.96L52.8406 204.372Z" fill="white"/>
</g>
<path d="M273.906 54.7561C277.989 38.5607 300.454 17.995 320.364 16.7096C340.276 15.4242 382.395 34.1904 382.395 34.1904L346.658 38.0464C346.658 38.0464 385.714 50.9 394.649 62.4681C401.796 71.9798 404.859 76.8641 404.859 76.8641C404.093 73.7794 403.328 70.6944 402.306 67.6095L400.775 62.9822C400.264 61.4399 399.754 60.1546 398.988 58.355C397.968 56.2985 396.945 54.7561 395.924 53.2135C394.903 51.6712 393.628 50.3859 392.351 49.1005C391.075 47.8151 390.054 46.5298 388.777 45.2444C388.267 44.7303 387.756 44.2162 387.245 43.7021L422.218 39.846L386.735 24.4217C383.416 22.8792 380.354 21.5939 377.035 20.3086C373.716 19.0233 370.653 17.7378 367.334 16.7096C360.953 14.3959 354.315 12.0823 347.424 10.2828C340.531 8.48332 333.639 6.68382 325.725 6.16968C324.704 6.16968 323.429 6.16968 322.406 6.16968C321.642 6.16968 321.385 6.16968 320.876 6.16968H319.344C317.045 6.42676 315.004 6.68382 312.962 7.19796C308.877 7.96918 305.049 9.5116 301.475 11.054C294.327 14.3959 287.946 18.7662 282.329 23.9076C279.521 26.4782 276.968 29.3061 274.415 32.3908C271.862 35.4757 269.566 38.8177 267.779 42.4166C266.758 44.2162 265.737 46.0156 264.971 48.3294C264.715 48.8435 264.46 49.6147 264.46 50.1288C264.46 50.6429 264.46 50.9 264.46 51.4141C264.46 51.4141 264.205 51.9282 264.46 51.6712V51.9282V52.1853V52.6994V53.9849C264.46 57.0696 264.46 60.4116 264.205 63.7536C263.694 70.4374 263.185 77.3782 261.907 84.3192C261.907 84.8334 270.076 70.6944 273.906 54.7561Z" fill="#101C2E"/>
<path d="M261.907 84.8333C261.907 84.8333 270.076 70.6944 273.906 54.756C277.989 38.5606 300.454 17.995 320.364 16.7096C340.276 15.4242 382.395 34.1904 382.395 34.1904L346.658 38.0465C346.658 38.0465 385.714 50.8999 394.649 62.4681C401.796 71.9797 404.859 76.8641 404.859 76.8641L391.584 66.5812C391.584 66.5812 406.136 88.1751 409.964 99.7435C412.006 105.913 413.283 130.335 413.283 130.335L389.543 102.571C389.543 102.571 396.69 128.278 397.711 146.016C398.732 163.754 392.096 171.466 392.096 171.466L382.395 149.358L377.801 184.063L373.206 160.926L354.06 198.201V181.749L337.978 198.201L326.491 192.031C326.491 192.031 312.196 136.762 298.922 119.795C285.648 102.828 261.907 84.8333 261.907 84.8333Z" fill="#9AB6DE"/>
<path d="M395.924 63.7534C396.945 65.553 397.966 67.0954 398.988 68.3807C397.202 65.8101 396.179 64.0105 395.924 63.7534Z" fill="#101C2E"/>
<path d="M399.498 121.852L419.153 144.731L418.389 129.821C418.133 125.708 417.112 104.371 414.815 97.9439C412.772 91.7742 407.923 83.0338 403.583 75.8359L391.584 66.3242C391.584 66.3242 406.136 87.9181 409.964 99.4863C412.006 105.656 413.283 130.078 413.283 130.078L389.797 102.571C389.797 102.571 379.587 88.4322 363.76 86.8899C347.933 85.0904 342.573 84.8334 342.573 84.8334C342.573 84.8334 348.954 76.35 361.719 76.8641C374.482 77.3782 385.969 80.7202 385.969 80.7202C385.969 80.7202 371.163 62.7252 357.889 60.9257C344.614 59.1261 315.258 60.9257 315.258 60.9257C315.258 60.9257 314.492 56.0414 315.258 50.6429C316.024 45.2444 321.13 38.5605 321.13 38.5605C321.13 38.5605 303.262 40.3601 295.603 50.6429C287.946 60.9257 289.221 90.4889 295.603 104.628C301.984 118.767 332.106 164.525 332.106 164.525L317.045 157.841L330.319 194.088L336.957 201.029L339.254 198.459L342.573 201.8L349.72 194.346V219.282L371.674 176.35L379.333 215.939L385.458 168.124L390.818 180.464L396.181 174.551C396.945 173.523 404.349 164.782 403.072 145.502C402.562 138.304 401.03 129.564 399.498 121.852Z" fill="#101C2E"/>
<path d="M261.398 84.8333C261.398 84.8333 237.146 76.8641 222.596 76.8641C208.046 76.8641 186.347 84.8333 186.347 84.8333C186.347 84.8333 172.052 91.2601 162.607 100.258C153.162 109.255 144.483 118.509 144.483 118.509C144.483 118.509 129.677 133.934 121.253 150.129C112.83 166.325 112.574 174.551 112.574 174.551L126.87 162.726L115.382 191.517L134.528 188.432L130.188 228.022L138.867 222.108C138.867 222.108 138.101 236.506 140.654 247.044C142.441 254.758 148.057 260.413 148.057 260.413L150.865 249.359C150.865 249.359 159.544 265.297 168.734 270.696C182.519 279.18 206.769 279.95 206.769 279.95C206.769 279.95 216.981 280.464 222.596 280.464C228.468 280.722 236.125 279.95 236.125 279.95C236.125 279.95 253.228 280.464 267.013 274.037C278.755 268.639 284.882 263.754 284.882 263.754L298.411 236.506L306.069 244.988L303.007 216.453L312.707 197.687L312.451 182.263L330.831 194.346L317.557 158.098L330.831 163.754L313.728 129.306C313.728 129.306 297.901 109.769 289.221 103.342C279.776 96.9156 261.398 84.8333 261.398 84.8333Z" fill="#EEF3F7"/>
<path d="M261.398 84.8333C261.398 84.8333 237.146 76.8641 222.596 76.8641C208.046 76.8641 186.347 84.8333 186.347 84.8333C186.347 84.8333 172.052 91.2601 162.607 100.258C153.162 109.255 144.483 118.509 144.483 118.509C144.483 118.509 129.677 133.934 121.253 150.129C112.83 166.325 112.574 174.551 112.574 174.551L126.87 162.726L125.848 185.091L137.846 185.862L133.762 223.395L138.867 222.623C138.867 222.623 138.101 237.02 140.654 247.558C142.441 255.272 148.057 260.927 148.057 260.927L150.865 249.873C150.865 249.873 159.544 265.811 168.734 271.21C182.519 279.694 206.769 280.464 206.769 280.464C206.769 280.464 216.981 280.978 222.596 280.978C228.468 281.236 236.636 280.464 236.636 280.464C236.636 280.464 255.016 280.464 267.013 275.065C278.755 269.924 283.35 264.526 283.35 264.526L297.901 237.02L305.558 245.502L302.496 216.967L315.515 226.221L311.941 182.777L330.32 194.86L317.045 158.613L330.32 164.268L313.217 129.821C313.217 129.821 297.39 110.283 288.71 103.856C279.776 96.9156 261.398 84.8333 261.398 84.8333Z" fill="url(#paint4_linear)"/>
<path d="M256.803 153.728C256.803 153.728 245.825 153.985 247.867 174.551C250.42 197.945 265.481 201.029 265.481 201.029L264.46 186.89C264.46 186.89 274.926 191.775 280.032 188.69C288.455 183.805 290.242 179.95 290.242 171.208C290.242 161.955 286.414 159.641 286.414 159.641C286.414 159.641 289.733 157.584 290.242 150.643C290.497 146.273 284.372 138.818 284.372 138.818C284.372 138.818 285.136 146.53 282.585 149.358C280.032 152.186 273.394 156.813 266.502 161.44C261.398 165.039 255.526 168.124 255.526 167.867C255.526 167.867 253.994 165.039 253.994 162.212C254.505 158.356 256.292 155.014 256.803 153.728Z" fill="white"/>
<path d="M279.776 160.669C278.245 168.124 272.373 179.178 268.034 179.178C263.694 179.178 260.631 177.122 260.631 169.41C260.631 167.61 263.95 165.554 267.779 163.24C272.119 160.926 281.053 153.471 279.776 160.669Z" fill="#101C2E"/>
<path d="M262.928 171.466C263.492 171.466 263.949 170.545 263.949 169.41C263.949 168.274 263.492 167.353 262.928 167.353C262.365 167.353 261.907 168.274 261.907 169.41C261.907 170.545 262.365 171.466 262.928 171.466Z" fill="white"/>
<path d="M188.134 153.728C188.134 153.728 199.11 153.985 197.068 174.551C194.516 197.945 179.455 201.029 179.455 201.029L180.475 186.89C180.475 186.89 170.01 191.775 164.905 188.69C156.481 183.805 154.694 179.95 154.694 171.208C154.694 161.955 158.523 159.641 158.523 159.641C158.523 159.641 155.204 157.584 154.694 150.643C154.439 146.273 160.565 138.818 160.565 138.818C160.565 138.818 159.799 146.53 162.352 149.358C164.905 152.186 171.541 156.813 178.434 161.44C183.54 165.039 189.411 168.124 189.411 167.867C189.411 167.867 190.942 165.039 190.942 162.212C190.432 158.356 188.9 155.014 188.134 153.728Z" fill="white"/>
<path d="M165.16 160.669C166.692 168.124 172.564 179.178 176.903 179.178C181.241 179.178 184.306 177.122 184.306 169.41C184.306 167.61 180.987 165.554 177.158 163.24C172.818 160.926 163.884 153.471 165.16 160.669Z" fill="#101C2E"/>
<path d="M168.734 164.525C169.298 164.525 169.755 163.605 169.755 162.469C169.755 161.333 169.298 160.412 168.734 160.412C168.17 160.412 167.712 161.333 167.712 162.469C167.712 163.605 168.17 164.525 168.734 164.525Z" fill="white"/>
<path d="M186.347 84.8334C186.347 84.8334 190.687 82.2626 197.323 79.6919C199.11 78.9208 200.897 78.4066 202.94 77.8923C204.982 77.3782 207.024 76.607 209.322 76.0929C211.618 75.5788 213.916 75.0646 216.214 74.8076C218.767 74.5505 221.064 74.2935 223.617 74.2935C225.915 74.2935 228.722 74.8076 231.019 75.0646C233.317 75.3217 235.613 75.8358 237.912 76.35C242.251 77.3782 246.336 78.6637 249.91 79.949C256.801 82.5196 261.141 84.8334 261.141 84.8334C261.141 84.8334 256.292 84.0622 249.144 83.0337C245.57 82.5196 241.485 81.7484 237.146 80.9772C234.849 80.7202 232.806 80.4631 230.509 79.949C228.211 79.6919 226.17 79.4349 223.617 79.4349C221.319 79.1778 219.022 79.4349 216.724 79.6919C214.428 79.949 212.129 80.2061 210.088 80.4631C205.748 81.2343 201.663 82.0055 198.089 82.5196C191.197 84.0622 186.347 84.8334 186.347 84.8334Z" fill="#101C2E"/>
<path d="M126.869 162.726L112.574 174.551C112.574 174.551 112.83 166.068 121.254 150.129C129.678 133.934 144.483 118.51 144.483 118.51C144.483 118.51 153.162 109.255 162.607 100.258C171.798 91.2601 186.347 84.8334 186.347 84.8334C186.347 84.8334 191.963 82.7767 199.367 80.7202C193.751 74.2935 179.2 57.0696 175.115 51.9282C170.265 45.5015 156.226 11.3111 124.572 11.5682C92.9184 11.8252 49.7777 50.6429 49.7777 50.6429L69.4337 42.4166L38.8011 70.6944L58.7123 60.9257C58.7123 60.9257 44.4171 72.2368 40.5881 78.9206C36.7589 85.6046 28.335 112.083 28.335 112.083L45.9487 95.1162C45.9487 95.1162 35.2273 116.453 35.2273 126.736C35.2273 137.019 37.2695 154.242 37.2695 154.242L49.7777 124.936C49.7777 124.936 48.7568 140.618 49.7777 151.672C50.7989 162.726 65.094 182.263 65.094 182.263V161.697C65.094 161.697 72.4968 171.466 76.3259 179.95C80.1551 188.432 92.9184 192.289 92.9184 192.289L126.614 170.438L126.869 162.726Z" fill="#9AB6DE"/>
<path d="M149.333 49.8718C141.675 39.5889 114.106 39.5889 114.106 39.5889C114.106 39.5889 126.104 45.5015 129.677 49.8718C132.996 54.242 129.677 60.1546 129.677 60.1546C129.677 60.1546 113.595 51.1571 100.321 52.6996C87.0471 54.242 65.0939 74.5506 65.0939 74.5506C65.0939 74.5506 76.3259 73.0082 81.9418 74.2935C89.0892 76.0929 89.8551 84.0622 89.8551 84.0622C89.8551 84.0622 89.5998 82.0055 82.7076 82.5197C66.8808 84.0622 58.7121 101.8 58.7121 101.8C58.7121 101.8 56.4147 104.885 54.1172 109.255L54.3725 103.599L45.9486 123.394C43.6511 129.049 41.3537 134.448 38.8011 140.104C38.8011 139.589 38.8011 139.075 38.5458 138.561C38.2905 135.99 38.0352 133.42 38.0352 131.106C38.0352 129.821 37.7799 128.792 37.7799 127.507C37.7799 126.736 37.7799 126.222 37.7799 125.708C37.7799 125.194 37.7799 124.679 38.0352 124.165C38.2905 121.852 38.8011 119.538 39.5668 117.224C40.3327 114.911 41.0984 112.597 41.8642 110.283C43.6511 105.656 45.6933 101.029 47.7354 96.4015L54.8831 81.4914L43.3958 93.0595L32.4193 104.371L34.2062 98.201C35.7378 93.3168 37.2693 88.4324 39.0562 83.8051C39.5668 82.5197 39.8221 81.4914 40.5879 80.4632L41.0984 79.692L41.6089 78.9208C41.8642 78.4067 42.3748 77.8924 42.6301 77.3782C44.1617 75.3217 45.6933 73.5223 47.4801 71.7227C51.0541 68.1238 54.6278 64.5248 58.4568 61.1828C54.3725 64.2677 50.2882 67.3525 46.4591 70.6945C44.6723 72.4939 42.6301 74.2935 41.0984 76.35C40.5879 76.8641 40.3327 77.3782 39.8221 77.8924L39.3115 78.6637L38.8011 79.4349C38.2905 80.4632 37.5246 81.7485 37.014 83.0338C34.9719 87.6611 32.9297 92.5454 31.1428 97.1727C29.356 102.057 27.5691 106.684 26.0375 111.569L23.2295 119.795L29.6113 113.882L37.2693 106.941C37.014 107.456 37.014 107.713 36.7589 108.227C35.7378 110.54 34.7168 113.111 33.9509 115.682C33.185 118.252 32.4193 120.823 31.9087 123.651C31.6534 124.936 31.6534 126.736 31.6534 128.021C31.6534 129.307 31.6534 130.592 31.6534 131.877C31.6534 134.448 31.9087 137.019 32.164 139.589C32.4193 144.731 32.9297 149.872 33.6956 155.014L35.2272 168.124L40.5879 156.042C42.3748 152.186 43.9064 148.33 45.438 144.731C45.438 146.016 45.438 147.302 45.6933 148.587C45.6933 149.872 45.9486 151.158 45.9486 152.7V153.728L46.2039 155.014C46.4591 155.785 46.4591 156.556 46.7144 157.07C48.246 162.469 50.7988 167.096 53.3515 171.723C54.6278 174.037 56.1594 176.093 57.4358 178.408C58.9674 180.721 60.2437 182.777 61.7754 184.834L68.4123 194.088V182.521V173.265C68.6676 173.523 68.9229 174.037 69.1782 174.293C70.1994 176.093 71.2204 177.894 72.2415 179.692L73.7731 182.521L75.3047 185.348C76.3259 187.404 77.6021 189.205 78.6231 191.003C79.1337 192.031 79.8996 192.803 80.6653 193.832C81.1759 194.346 81.4312 194.86 81.6865 195.116L82.7076 196.402C85.5155 199.743 88.5788 202.828 91.642 205.914L99.8106 214.397L96.2369 203.086C95.2157 200.001 94.1947 196.658 93.4289 193.318C93.1736 192.803 93.1736 192.289 93.1736 191.517C94.1947 191.261 95.9816 190.489 97.5132 190.489C98.2791 191.003 98.7896 191.775 99.5553 192.289C100.577 193.318 101.342 194.346 101.853 195.63L102.874 197.687C103.385 198.459 103.64 199.229 104.15 200.001C107.724 205.4 111.808 210.284 116.148 215.169L119.467 218.768L118.445 214.14C118.445 213.626 118.19 212.854 118.19 212.34C118.19 211.826 117.935 211.056 117.935 210.542C117.935 210.284 117.935 210.027 117.935 209.769C118.445 205.4 119.467 199.229 119.977 195.888C121.253 186.89 127.89 156.813 127.89 156.813L112.829 163.497C112.829 163.497 142.951 117.738 149.333 103.599C155.715 89.4607 156.991 60.1546 149.333 49.8718Z" fill="#101C2E"/>
<path d="M182.007 58.0979C179.711 55.0132 177.158 51.9282 175.626 48.5863C173.839 45.2445 172.052 41.6454 170.01 38.3034C167.968 34.9616 165.67 31.6197 163.118 28.5349C161.841 26.9924 160.565 25.45 159.289 23.9076C157.757 22.3651 156.481 21.0798 154.949 19.5374C153.417 18.2521 151.886 16.9667 150.099 15.6813L147.546 13.8818C146.78 13.3677 145.759 12.8535 144.738 12.3394C143.717 11.8252 142.951 11.3111 141.93 11.054L138.612 10.2828C136.57 9.5116 134.527 9.25452 132.485 8.74038C130.443 8.22624 128.401 8.22624 126.104 7.96918H125.338H124.827H124.572C124.572 7.96918 124.827 7.96918 124.317 7.96918H122.785L119.977 8.22624C118.19 8.22624 115.893 8.74038 113.851 9.25452C111.808 9.5116 109.766 10.2828 107.979 10.7969L105.171 11.5682L102.108 12.8535C100.321 13.6247 98.2791 14.1389 96.4923 15.1672C94.7052 15.9384 92.9183 16.9667 91.1315 17.7378L86.0261 20.5656C82.7075 22.6221 79.1338 24.6788 75.8152 26.7353C74.0283 27.7636 72.4967 28.792 70.9651 30.0773C69.4334 31.1055 67.6465 32.3908 66.1149 33.4191C63.0518 35.7328 59.7332 38.3034 56.67 40.6172C53.6067 43.1878 50.7986 45.7586 47.7355 48.3292L34.2061 60.9258L50.7986 53.4706C53.3514 52.1853 56.1594 51.1571 58.7122 49.8717C56.9253 51.9282 54.883 53.7277 53.0961 55.5273C48.2461 60.4116 43.3959 65.553 38.5457 70.6945C43.9065 66.3242 49.5224 61.954 54.883 57.5838C60.2437 53.2136 65.6044 48.5863 70.9651 44.2162L80.6654 35.9899L68.6677 40.3601H68.4124C69.1783 39.846 69.6887 39.3319 70.4546 39.0748C73.5179 37.0181 76.8363 34.7046 80.1548 32.905C83.4734 30.8485 86.5366 29.049 89.8552 26.9924L94.9605 24.4217C96.7474 23.6506 98.2791 22.8792 100.066 22.108C101.853 21.3368 103.64 20.5656 105.171 20.0515L107.724 19.0233L110.277 18.2521C112.064 17.7378 113.851 16.9667 115.382 16.7096C117.169 16.4525 118.701 15.9384 120.743 15.6813L123.551 15.4242H124.827H125.083H125.338H126.104L128.656 15.6813H129.933L131.209 15.9384C132.996 16.1954 134.783 16.4525 136.314 16.9667L138.867 17.7378C139.633 17.9949 140.399 18.5091 141.42 18.7662C142.186 19.2803 142.951 19.5374 143.717 19.7945L146.015 21.0798C147.546 21.851 149.078 23.1363 150.354 24.1647C151.886 25.1929 153.162 26.4782 154.439 27.7636C155.715 29.049 156.991 30.3343 158.268 31.8767C160.82 34.7046 163.118 37.7893 165.16 40.8742C167.457 43.9591 169.244 47.301 171.541 50.6429C172.052 51.6712 172.564 52.1853 173.328 53.2135L175.371 55.5273L179.2 59.8975C184.306 65.8101 189.921 71.2086 195.282 76.8641L182.007 58.0979Z" fill="#101C2E"/>
<path d="M244.804 274.551C248.378 273.523 252.207 272.238 255.526 270.952C257.312 270.182 259.099 269.668 260.631 268.895L261.141 268.639H261.397L261.652 268.381L262.928 267.611C263.949 267.097 264.46 266.583 265.226 266.325C266.758 265.297 268.288 264.268 269.821 263.498C271.353 262.726 272.885 261.956 274.16 260.927C276.713 258.871 278.755 256.557 280.542 253.728C281.308 252.444 282.329 250.643 283.095 249.101C283.861 247.558 284.627 245.76 285.393 243.96C286.923 240.619 288.455 237.02 289.987 233.421L294.327 222.881L299.177 232.649C299.177 231.879 299.177 231.106 299.177 230.336L298.922 225.193L298.667 220.052L298.156 214.911L296.88 200.001L307.09 211.056L308.877 213.112V210.542V207.971C308.877 206.943 308.877 205.914 308.877 205.142C308.877 204.372 308.877 203.6 308.622 202.572C308.367 198.973 307.856 195.63 307.09 192.031C306.835 190.233 306.324 188.432 305.814 186.634L305.048 184.063L304.282 181.493L300.709 168.381L311.941 175.836L317.302 179.436L309.388 157.841L308.622 155.785L293.561 148.33C293.561 148.33 299.431 165.297 299.943 170.695C300.709 178.664 300.197 188.69 300.197 188.69L292.284 172.751C292.284 172.751 295.348 198.459 293.816 209.513C292.284 220.566 290.753 228.794 290.753 228.794L282.583 204.372C282.583 204.372 282.84 229.822 271.862 245.76C262.673 258.871 250.42 268.895 244.804 274.551C244.55 274.551 244.55 274.551 244.804 274.551Z" fill="white"/>
<path d="M323.172 164.525C323.938 164.782 324.959 165.04 325.725 165.297L338.49 169.41L331.597 158.87C328.023 153.471 324.704 148.073 321.131 142.674C317.557 137.276 313.983 131.877 310.409 126.479C312.451 132.648 314.494 138.818 316.791 144.731C317.557 147.044 318.578 149.358 319.344 151.672L316.536 150.386L305.815 145.759L309.898 156.813L317.812 178.408L312.451 174.807L301.22 167.353L304.794 180.464L305.558 183.035L306.324 185.606C306.836 187.404 307.09 189.205 307.602 191.003C308.368 194.602 308.877 197.945 309.132 201.544C309.132 202.314 309.388 203.344 309.388 204.114C309.388 204.886 309.388 205.914 309.388 206.943V209.513V212.084L307.602 210.027L297.39 198.973L298.667 213.882L299.177 219.024L299.433 224.165L299.688 229.308C299.688 230.078 299.688 230.85 299.688 231.621L294.837 221.852L290.497 232.393C288.967 235.734 287.69 239.332 285.903 242.931C285.137 244.732 284.372 246.274 283.606 248.073C282.84 249.615 281.819 251.415 281.053 252.7C279.266 255.786 277.225 258.099 274.672 259.899C273.395 260.927 271.862 261.698 270.332 262.47C268.8 263.24 267.268 264.268 265.738 265.297C264.971 265.811 264.205 266.069 263.439 266.583L262.164 267.353L261.907 267.611H261.653L261.141 267.867C259.611 268.639 257.824 269.41 256.037 269.924C252.463 271.21 248.89 272.494 245.316 273.523C241.742 274.551 237.912 275.579 234.338 276.607C230.51 277.636 226.936 278.664 223.107 279.436C230.764 279.436 238.678 279.18 246.337 278.408C250.165 278.15 253.994 277.636 258.079 276.865C260.12 276.607 261.907 276.093 263.951 275.579L267.013 274.809C268.034 274.551 269.055 274.295 270.076 274.037C272.119 273.523 274.161 272.752 275.948 271.724C277.734 270.696 279.521 269.41 281.308 268.125C284.882 265.555 287.946 261.698 289.988 258.099C291.263 256.042 292.029 254.5 293.05 252.7C293.307 252.186 293.307 251.929 293.561 251.415V254.758L293.307 273.266L303.007 257.585C303.517 256.557 304.028 255.786 304.537 255.014C305.049 254.242 305.558 253.214 305.815 252.444C306.581 250.643 307.345 248.845 308.111 247.044C308.877 245.246 309.388 243.189 309.643 241.133C309.898 240.105 309.898 239.076 310.155 238.048C310.155 237.02 310.409 235.734 310.409 234.963C310.409 233.163 310.409 231.364 310.409 229.564V227.764L315.259 233.163L318.068 225.451C318.323 224.937 318.323 224.679 318.323 224.423L318.578 223.651C318.832 223.137 318.832 222.623 318.832 222.108C319.089 221.08 319.089 220.052 319.344 219.024C319.598 216.967 319.855 214.911 319.855 213.112V210.284V207.199C319.855 206.171 319.855 205.4 319.855 204.372C319.855 203.344 319.855 202.314 319.598 201.286C319.344 197.945 318.832 194.346 318.068 191.003L325.725 195.888L338.49 204.372L333.129 189.719L323.172 164.525Z" fill="#101C2E"/>
<path d="M202.175 275.065C198.856 274.037 195.537 273.008 192.474 271.98C190.942 271.466 189.155 270.952 187.623 270.182C186.093 269.667 184.561 268.895 183.029 268.381C182.263 267.867 181.498 267.611 180.732 267.097C179.966 266.583 179.455 266.325 178.689 265.811C177.413 265.04 176.136 264.012 174.605 263.24C171.798 261.956 169.5 260.155 167.457 258.099C166.436 257.071 165.671 256.042 164.905 254.756C164.394 253.986 164.139 253.472 163.628 252.958C163.118 252.186 162.863 251.671 162.607 250.901C161.842 249.615 161.331 248.073 160.565 246.53C160.055 244.988 159.289 243.445 159.034 242.161L156.481 234.191L150.61 239.847C150.099 240.361 150.099 240.619 149.589 240.875C149.333 241.133 149.078 241.389 148.823 241.647C148.823 241.389 148.567 241.133 148.567 240.875C148.312 240.361 148.312 239.076 148.057 238.304C148.057 237.534 147.802 236.762 147.802 235.734C147.291 232.135 147.036 228.536 146.781 224.937C146.781 223.137 146.525 221.338 146.525 219.538C146.525 217.739 146.525 215.939 146.525 214.14V201.029L137.591 210.798L135.549 212.854C135.549 212.34 135.549 211.826 135.549 211.57V210.541L135.804 209.513L136.314 207.199L136.825 204.628C138.357 197.945 139.888 191.261 141.675 184.834L143.973 176.093L135.293 178.664L127.891 180.979L135.293 156.813L138.357 146.273L128.401 150.643L125.593 151.929C126.359 149.615 127.38 147.302 128.146 144.988C130.443 138.818 132.485 132.906 134.528 126.736C130.954 132.134 127.125 137.533 123.806 142.931C120.232 148.33 116.659 153.728 113.34 159.127L106.448 169.667L119.211 165.553C120.232 165.296 121.509 164.782 122.53 164.525L115.893 187.148L113.085 196.402L122.275 193.574L130.188 191.261C129.167 195.116 128.401 198.973 127.38 202.828L126.87 205.4L126.359 208.227L126.104 209.769V211.312C126.104 212.34 126.104 213.368 126.104 214.397C126.104 216.453 126.359 218.253 126.614 220.052C126.869 221.08 126.869 221.852 127.125 222.88C127.38 223.909 127.635 224.679 127.891 225.707L130.443 234.449L136.57 227.764L137.08 227.25C137.335 230.592 137.591 234.191 138.101 237.534C138.101 238.562 138.357 239.59 138.612 240.619C138.867 241.647 138.867 242.417 139.123 243.445C139.633 245.502 140.144 247.558 140.909 249.615C141.675 251.415 142.441 253.472 143.462 255.272C143.973 256.042 144.483 257.071 144.994 257.843C145.504 258.613 146.015 259.641 146.525 260.413L152.141 269.41L155.46 259.385V259.127C155.715 259.899 156.226 260.413 156.481 260.927C157.502 262.47 158.778 264.268 160.055 265.554C162.863 268.639 166.181 270.952 169.5 273.008C171.032 274.037 173.073 274.551 174.86 275.323C175.626 275.579 176.647 275.837 177.668 276.093C178.689 276.351 179.455 276.607 180.221 276.607C182.008 277.121 183.795 277.636 185.581 277.893C187.368 278.15 189.155 278.408 190.942 278.922C194.516 279.436 197.835 279.692 201.409 280.206C208.301 280.722 215.449 281.236 222.341 281.236C215.704 278.922 208.811 277.121 202.175 275.065Z" fill="#101C2E"/>
<path d="M151.12 147.559L135.804 155.271L135.293 156.813L128.146 180.721L135.548 178.408L144.228 175.836L141.93 184.577C140.143 191.261 138.612 197.945 137.08 204.372L136.569 206.943L136.059 209.255L135.804 210.284V211.312C135.804 211.826 135.804 212.084 135.804 212.598L137.846 210.542L146.78 200.771V213.882C146.78 215.683 146.78 217.481 146.78 219.282C146.78 221.08 146.78 222.88 147.036 224.679C147.291 228.278 147.546 231.879 148.057 235.477C148.057 236.248 148.312 237.276 148.312 238.048C148.567 238.818 148.567 240.105 148.822 240.619C148.822 240.875 149.078 241.133 149.078 241.389C149.333 241.133 149.588 240.875 149.843 240.619C150.099 240.361 150.354 240.104 150.865 239.59L156.736 233.935L159.289 241.903C159.799 243.189 160.31 244.988 160.82 246.274C161.331 247.816 162.097 249.359 162.862 250.643C163.118 251.415 163.628 251.929 163.883 252.7C164.394 253.472 164.649 253.728 165.16 254.5C165.926 255.786 166.947 256.814 167.712 257.843C169.755 259.899 172.052 261.698 174.86 262.984C176.136 263.754 177.413 264.526 178.945 265.554C179.711 266.069 180.221 266.325 180.987 266.839C181.753 267.353 182.519 267.611 183.285 268.125C184.56 268.895 186.347 269.41 187.879 269.924C189.41 270.438 190.942 271.21 192.729 271.724C193.24 271.98 193.749 271.98 194.516 272.238C189.921 266.583 182.007 257.329 173.328 244.732C162.607 228.792 162.607 203.342 162.607 203.342L154.438 227.764C154.438 227.764 153.162 219.538 151.375 208.485C149.588 197.43 152.907 171.723 152.907 171.723L144.993 187.662C144.993 187.662 144.483 177.636 145.249 169.667C145.504 164.525 151.12 147.559 151.12 147.559Z" fill="white"/>
<path d="M250.165 245.502C249.399 243.703 249.144 241.647 248.633 239.847C248.633 237.79 248.633 234.705 246.591 233.163C247.102 232.907 247.357 232.393 247.612 231.879L247.867 232.135L248.123 232.393C248.123 232.393 248.378 232.393 248.378 232.649C248.633 232.649 248.633 232.907 248.889 232.907C249.399 233.421 250.165 233.935 250.42 234.705C250.42 233.935 250.165 232.907 249.654 232.135C249.654 231.879 249.399 231.621 249.144 231.621L248.633 231.107C248.378 230.85 248.378 230.849 248.123 230.592C247.867 230.334 247.867 230.334 247.357 230.078H247.102L246.336 230.334C245.316 230.592 244.293 230.85 243.272 231.107C242.763 231.107 242.251 231.364 241.997 231.364H241.231H240.465C238.423 231.621 236.38 231.621 234.338 231.621H232.806C232.296 231.621 232.041 231.621 231.53 231.621C230.764 231.364 229.743 231.107 228.722 230.85L225.658 229.82C225.149 229.564 224.383 229.564 223.871 229.306C223.617 229.306 223.362 229.306 222.851 229.306H222.341C222.085 229.306 222.085 229.306 221.575 229.306C221.319 229.306 221.064 229.306 220.809 229.306C220.554 229.306 220.298 229.564 220.043 229.564L219.277 229.82C219.022 229.82 218.767 230.078 218.511 230.078C217.49 230.592 216.724 231.107 215.958 231.621C215.194 232.135 214.428 232.649 213.661 232.907C213.407 232.907 213.407 232.907 213.15 232.907C211.62 232.907 210.343 233.421 209.576 233.935C208.81 233.421 207.79 232.649 206.514 232.907C205.748 232.907 204.727 233.421 204.216 234.191C203.706 233.677 202.684 232.907 201.663 232.649C201.663 232.649 198.6 231.621 197.834 231.364C197.068 231.107 194.515 228.792 194.515 228.792C194.515 228.792 193.495 229.82 192.474 232.393C191.453 234.963 191.453 239.59 191.453 239.59C191.453 239.59 192.474 236.248 193.24 234.963C194.006 233.677 195.536 232.907 195.536 232.907L196.302 235.477C196.302 235.734 196.048 235.992 196.048 236.248C196.048 236.248 194.772 240.875 193.495 244.988C192.219 248.587 189.921 257.329 189.921 257.329C189.921 257.329 190.432 260.413 191.963 261.698C193.24 263.24 198.346 263.754 198.346 263.754C198.346 263.754 197.323 262.47 196.814 261.442C196.559 260.67 201.153 256.813 201.153 256.813C202.429 257.071 203.45 257.329 204.727 257.329C207.79 257.329 220.298 255.784 221.83 255.528C223.362 255.784 234.593 257.071 237.657 257.329H237.912C239.444 257.329 241.231 257.071 242.763 256.299C242.763 256.299 246.846 260.413 246.591 261.442C246.08 262.47 245.059 263.754 245.059 263.754C245.059 263.754 250.165 262.984 251.441 261.698C252.718 260.155 253.484 257.329 253.484 257.329C253.484 257.329 251.441 249.101 250.165 245.502Z" fill="#101C2E"/>
<path d="M243.527 234.449C243.273 234.449 242.252 235.219 241.486 236.248L240.21 238.048L239.444 235.992C239.444 235.734 238.933 234.963 237.402 234.963C235.87 234.963 235.359 235.477 235.359 235.477L234.593 237.276L233.317 235.477C233.317 235.477 232.806 234.963 231.019 234.963C229.232 234.963 228.723 235.477 228.723 235.477L227.702 236.506L226.936 234.963C226.936 234.963 226.425 234.191 225.149 234.191C224.128 234.191 223.617 235.219 223.617 235.219L222.341 238.304L221.064 235.219C221.064 235.219 220.554 234.191 219.532 234.191C218.256 234.191 217.49 235.477 217.49 235.477L216.215 237.276L215.192 235.219C215.192 235.219 214.937 234.963 213.405 234.963C211.618 234.963 210.598 235.992 210.598 235.992L209.577 237.02L208.556 235.734C208.301 235.477 207.535 234.705 206.769 234.705C206.514 234.705 205.748 235.477 205.237 235.992L204.216 237.276L203.195 235.992C202.684 235.477 201.663 234.191 200.642 234.191C200.131 234.191 199.622 234.449 199.367 234.705C198.344 235.992 198.09 238.562 198.344 240.619C198.601 242.417 200.642 244.732 201.408 245.502L202.684 246.788L200.897 247.558C200.897 247.558 198.344 248.587 198.344 250.387C198.344 250.643 198.601 251.157 198.856 251.671C200.131 252.958 202.684 253.986 204.727 253.728C207.79 253.728 221.575 251.929 221.83 251.929H222.085H222.341C222.341 251.929 235.104 253.472 238.167 253.728C240.21 253.728 242.506 253.214 243.527 252.186C244.039 251.671 244.039 251.415 244.039 251.157C244.039 249.101 243.273 248.587 243.273 248.587L241.997 247.816L243.018 246.788C243.018 246.788 245.571 243.96 245.825 240.361C246.591 235.477 245.059 234.705 243.527 234.449Z" fill="white"/>
<path d="M244.293 246.016C243.784 246.53 243.273 247.044 242.763 247.302C241.997 247.816 241.231 248.073 240.72 248.587C240.72 248.073 240.976 247.816 240.976 247.302C240.976 246.274 240.976 245.246 240.72 244.217L240.465 243.445C240.465 243.189 240.21 242.931 240.21 242.675C239.955 242.161 239.699 241.647 239.444 241.389C239.189 240.875 238.933 240.619 238.423 240.105C238.168 239.59 237.657 239.332 237.402 238.818L235.87 237.534L235.359 239.59C235.104 240.875 234.595 241.903 234.595 243.189C234.595 243.445 234.338 243.703 234.338 243.96C234.338 244.217 234.083 244.474 234.083 244.732C233.829 245.246 233.572 245.76 233.317 246.016C233.063 246.274 233.063 246.53 232.808 246.53H232.551H232.297C231.785 246.53 231.276 246.53 230.51 246.53C229.998 246.53 229.232 246.53 228.468 246.53C227.702 246.53 227.191 246.788 226.681 246.788L228.468 247.044C228.978 247.044 229.489 247.302 230.255 247.558C230.764 247.816 231.531 248.073 232.297 248.073C232.551 248.073 232.808 248.073 233.063 248.073C233.063 248.073 233.317 248.073 233.572 247.816C233.572 247.816 233.572 247.816 233.829 247.558C234.083 247.302 234.338 247.044 234.595 247.044C235.104 246.53 235.616 246.016 236.125 245.502C236.382 245.246 236.382 244.988 236.636 244.474C236.891 244.218 236.891 243.703 236.891 243.445C237.146 242.931 237.146 242.417 237.402 241.903L237.657 242.161C237.912 242.417 238.168 242.931 238.423 243.189L238.678 243.703L238.933 244.217C239.189 244.988 239.444 245.76 239.444 246.53C239.444 247.302 239.444 248.33 239.189 249.101L238.678 250.901L239.955 249.873C241.231 249.101 242.252 248.073 243.529 247.044C244.039 246.53 244.805 246.016 245.059 245.246C245.316 244.474 245.825 243.96 245.825 243.189C245.059 244.988 244.55 245.502 244.293 246.016Z" fill="#101C2E"/>
<path d="M218.768 247.302C217.745 247.302 216.724 247.044 215.958 246.788C215.194 246.53 214.171 246.016 213.407 245.502L212.384 244.988V246.274C212.13 246.016 211.875 245.76 211.62 245.502C211.364 245.246 211.109 244.988 210.854 244.474C210.854 244.218 210.598 244.218 210.598 243.96L210.343 243.445C209.577 241.903 208.811 240.105 208.046 238.304L206.769 236.506L205.493 238.048C204.982 238.818 204.473 239.59 203.961 240.361C203.707 240.875 203.45 241.133 203.45 241.647C203.45 241.903 203.195 242.417 203.195 242.675V243.445C203.195 244.474 203.195 245.246 203.45 246.016L203.707 247.302H203.45C202.684 247.044 202.174 246.788 201.663 246.788C200.642 246.274 199.622 245.502 198.855 244.988C199.622 246.016 200.388 246.788 201.154 247.558C201.663 248.073 202.174 248.331 202.684 248.587L204.216 249.359L205.493 250.129V248.587V247.302V246.016C205.493 245.246 205.493 244.474 205.748 243.445V242.931C205.748 242.675 205.748 242.675 205.748 242.675C205.748 242.417 206.003 242.161 206.259 241.647C206.259 241.647 206.259 241.647 206.259 241.389C206.769 242.417 207.28 243.446 207.79 244.732L208.301 245.246C208.556 245.502 208.556 245.76 208.811 246.016C209.067 246.53 209.577 246.788 210.088 247.044C210.598 247.302 210.854 247.558 211.364 247.816C211.875 248.073 212.13 248.331 212.896 248.587L214.171 249.101V247.816V247.302C214.683 247.558 215.449 247.558 215.958 247.558C216.724 247.816 217.745 247.558 218.768 247.302Z" fill="#101C2E"/>
<path d="M202.429 257.843L200.388 260.927C200.388 260.927 201.409 260.413 206.26 259.899C211.109 259.385 216.724 257.329 216.724 257.329L202.429 257.843Z" fill="white"/>
<path d="M193.24 229.05C193.24 229.05 194.261 227.25 195.027 225.965C195.537 225.193 197.069 225.451 197.069 225.451C197.069 225.451 197.58 226.221 198.856 227.764C200.388 229.564 201.663 230.85 201.663 230.85C201.663 230.85 198.09 229.05 197.324 228.536C196.557 228.022 196.048 227.508 196.048 227.508L193.24 229.05Z" fill="white"/>
<path d="M216.469 261.184C216.469 261.184 218.001 258.613 221.83 258.613C225.658 258.613 232.042 261.184 232.042 261.184C232.042 261.184 224.892 260.67 224.383 261.184C223.617 261.698 224.383 266.583 227.445 268.125C230.509 269.668 232.806 268.896 235.359 266.839C237.912 264.783 238.423 264.783 238.423 264.783C238.423 264.783 241.74 267.353 241.997 271.466C242.252 275.579 241.997 276.351 240.465 279.694C237.912 284.835 233.828 286.892 233.828 286.892C233.828 286.892 234.083 280.978 231.019 281.236C227.957 281.492 225.658 283.293 225.658 285.605C225.404 288.434 227.191 292.033 227.191 292.033C227.191 292.033 220.554 289.718 219.788 282.779C219.532 280.464 216.469 279.694 215.448 279.694C213.15 279.694 212.641 281.75 212.896 283.035C213.15 286.377 215.448 287.92 215.448 287.92C215.448 287.92 206.003 285.863 205.748 278.15C205.493 270.182 209.833 264.783 209.833 264.783C209.833 264.783 209.577 265.04 210.343 266.069C211.363 267.611 217.235 270.182 219.788 265.811C220.298 264.783 221.319 263.24 220.554 262.726C219.022 261.698 216.469 261.184 216.469 261.184Z" fill="white"/>
<path d="M155.204 182.263L153.417 179.692C153.417 179.692 151.886 185.092 152.141 188.176C152.396 191.261 152.396 196.658 152.396 196.658C152.396 196.658 152.907 190.747 153.162 187.662C153.417 186.12 155.204 182.263 155.204 182.263Z" fill="white"/>
<path d="M211.364 160.412C211.364 160.412 211.364 159.898 211.364 159.127C211.62 158.356 211.875 157.07 212.641 155.785C213.407 154.499 214.428 152.957 216.215 151.672C216.981 151.158 218.002 150.644 219.023 150.386C219.534 150.386 220.043 150.129 220.555 150.129C221.064 150.129 221.575 150.129 222.341 150.129H223.617C224.128 150.129 224.894 150.386 225.404 150.644C226.425 150.901 227.446 151.415 228.212 151.929C229.999 152.957 231.021 154.499 231.785 155.785C232.551 157.07 232.808 158.356 233.063 159.127C233.318 159.898 233.318 160.412 233.318 160.412C233.318 160.412 231.785 159.127 229.744 157.584C228.723 156.813 227.446 156.299 226.17 155.785C225.404 155.528 224.894 155.271 224.128 155.271C223.872 155.271 223.617 155.271 223.362 155.014H222.085H221.064H220.043C219.277 155.014 218.768 155.271 218.002 155.528C217.49 155.785 216.724 156.042 216.215 156.299C215.704 156.556 214.938 157.07 214.428 157.327C212.896 159.127 211.364 160.412 211.364 160.412Z" fill="#101C2E"/>
<path d="M243.784 180.979C242.506 177.38 236.891 167.096 233.317 163.754C229.744 160.412 222.596 159.127 222.596 159.127C222.596 159.127 215.194 160.155 211.875 163.754C208.556 167.353 202.684 177.38 201.408 180.979C199.876 184.577 198.855 202.316 198.855 208.999C198.855 217.739 198.855 228.28 201.408 230.336C203.961 232.393 222.851 233.421 222.851 233.421C222.851 233.421 241.742 232.393 244.293 230.336C246.846 228.28 246.846 217.739 246.846 208.999C246.337 202.316 245.316 184.319 243.784 180.979Z" fill="#101C2E"/>
<path d="M212.384 169.41C212.384 169.41 205.493 176.35 203.45 189.461C202.174 197.173 203.961 211.826 203.961 211.826C203.961 211.826 204.982 199.229 205.748 191.261C206.769 181.235 212.384 169.41 212.384 169.41Z" fill="white"/>
<path d="M134.017 19.7944C134.017 19.7944 121.509 19.0232 111.808 22.365C103.384 25.1929 95.9815 30.8484 95.9815 30.8484L94.7051 27.7635C94.7051 27.7635 103.895 21.8509 112.064 19.5374C120.232 17.4807 134.017 19.7944 134.017 19.7944Z" fill="white"/>
<path d="M202.686 289.462C202.686 289.462 200.897 290.747 200.133 297.174C199.367 303.6 203.45 316.197 205.237 311.57C209.322 301.543 212.641 297.688 217.235 306.172C222.085 314.654 219.532 320.824 219.532 320.824C219.532 320.824 231.019 317.997 229.743 309.771C228.468 301.801 228.977 299.231 233.062 299.745C244.038 301.029 244.038 316.711 244.038 316.711C244.038 316.711 249.144 311.569 247.867 301.287C247.103 293.317 245.316 289.462 245.316 289.462H224.894H202.686Z" fill="#EEF3F7"/>
<path d="M385.459 287.406L325.47 285.091H325.215H324.959C320.109 285.091 315.769 286.892 312.451 289.976C308.877 286.892 304.537 285.091 299.688 285.091H230.764C226.936 285.091 223.362 286.892 220.809 289.462C216.98 286.634 212.641 285.091 207.79 285.091H147.801C141.164 285.091 135.548 288.69 132.23 293.831C125.593 288.176 116.403 284.577 106.448 284.577H92.4076C64.5832 284.577 41.6089 304.372 41.6089 329.05V373.78C41.6089 398.46 64.5833 418.511 92.6629 418.511H112.064C119.977 418.511 127.38 415.94 132.996 411.313C136.314 415.684 141.42 418.511 147.036 418.511H206.769C210.342 418.511 213.916 417.482 216.98 415.94V418.254H227.19H259.354H269.566V407.972V403.087L274.415 412.855L277.224 418.511H283.606H315.515H322.917C323.428 418.511 323.938 418.511 324.449 418.511H383.927C397.201 418.511 407.922 406.942 407.922 393.061V343.703V341.132V330.85V311.827C408.177 298.458 398.222 287.662 385.459 287.406Z" fill="#101C2E"/>
<path d="M92.9181 405.914C71.7306 405.914 54.6274 391.518 54.6274 374.038V329.308C54.6274 311.827 71.7306 297.688 92.6628 297.688H106.703C120.232 297.688 131.464 306.942 131.464 317.997V390.234C131.464 398.974 123.04 405.914 112.319 405.914H92.9181Z" fill="url(#paint5_linear)"/>
<path d="M106.448 300.259C118.701 300.259 128.656 308.228 128.656 317.997V390.234C128.656 397.432 121.253 403.343 112.064 403.343H92.6632C73.0073 403.343 56.9253 390.234 56.9253 374.038V329.308C56.9253 313.37 72.752 300.259 92.4079 300.259H106.448ZM106.448 295.117H92.4079C69.9442 295.117 51.8198 310.285 51.8198 329.308V374.038C51.8198 393.061 70.1993 408.484 92.6632 408.484H112.064C124.062 408.484 133.762 400.258 133.762 390.234V317.997C133.762 305.4 121.509 295.117 106.448 295.117Z" fill="white"/>
<path d="M324.449 405.914C321.896 405.914 319.598 403.857 319.598 401.03V303.6C319.598 300.515 322.151 298.202 324.959 298.202L384.948 300.515C390.563 300.515 395.16 305.656 395.16 312.084V328.536H371.419C371.419 324.937 368.611 322.11 365.038 322.11H353.55C349.977 322.11 347.169 325.195 347.169 328.794V374.038C347.169 377.637 349.977 380.722 353.55 380.722H364.781C368.355 380.722 371.164 377.637 371.164 374.038V366.068H365.292V346.788H395.16V393.319C395.16 400.258 390.054 405.914 383.927 405.914H324.449Z" fill="url(#paint6_linear)"/>
<path d="M325.215 300.773L385.203 303.086C389.288 303.086 392.862 307.2 392.862 312.084V325.965H373.972C372.951 322.11 369.377 319.539 365.547 319.539H354.06C349.211 319.539 345.126 323.652 345.126 328.793V374.038C345.126 379.179 349.211 383.292 354.06 383.292H365.292C370.143 383.292 374.227 379.179 374.227 374.038V368.639V363.498H369.121H368.355V349.358H393.116V393.319C393.116 398.974 389.288 403.343 384.438 403.343H324.961C323.683 403.343 322.662 402.315 322.662 401.03V303.6C322.408 302.057 323.683 300.773 325.215 300.773ZM325.215 295.632C320.875 295.632 317.302 299.23 317.302 303.6V401.03C317.302 405.143 320.621 408.484 324.704 408.484H384.182C391.841 408.484 397.967 401.545 397.967 393.319V343.961H362.994V368.383H368.866V373.78C368.866 376.095 367.079 377.893 365.038 377.893H353.805C351.764 377.893 349.977 376.095 349.977 373.78V328.536C349.977 326.223 351.764 324.423 353.805 324.423H365.292C367.334 324.423 369.121 326.223 369.121 328.536V330.85H397.967V311.827C397.967 304.114 392.352 297.688 385.203 297.688L325.215 295.632Z" fill="white"/>
<path d="M285.138 405.658L267.779 371.21H256.803V405.658H229.744V299.745C229.744 298.716 230.51 297.944 231.021 297.944H299.943C304.028 297.944 307.602 302.057 307.602 307.2V353.729C307.602 362.213 301.73 369.411 294.582 369.411H290.242L311.175 405.658H285.138Z" fill="url(#paint7_linear)"/>
<path d="M299.943 300.773C302.75 300.773 305.048 303.858 305.048 307.456V353.986C305.048 361.185 300.454 367.097 294.582 367.097H285.648L289.987 374.808L306.58 403.343H286.668L270.587 371.724L269.054 368.897H265.992H259.099H253.993V374.038V403.343H232.296V300.773H299.943ZM299.943 295.632H231.021C228.977 295.632 227.19 297.688 227.19 300.001V408.484H259.354V374.038H266.247L283.606 408.484H315.515L294.582 372.238C303.262 372.238 310.154 364.012 310.154 353.986V307.456C310.154 300.773 305.56 295.632 299.943 295.632Z" fill="white"/>
<path d="M273.651 349.358H256.292C254.759 349.358 253.484 348.074 253.484 346.532V323.138C253.484 321.596 254.759 320.31 256.292 320.31H273.651C276.968 320.31 279.777 323.138 279.777 326.479V342.933C279.777 346.532 276.968 349.358 273.651 349.358Z" fill="#101C2E" stroke="white" stroke-width="2.5" stroke-miterlimit="10"/>
<path d="M93.1737 379.436H88.8341C82.197 379.436 76.8364 374.038 76.8364 367.354V332.136C76.8364 325.451 82.197 320.053 88.8341 320.053H93.1737C98.2792 320.053 102.364 324.166 102.364 329.308V370.181C102.364 375.323 98.2792 379.436 93.1737 379.436Z" fill="#101C2E" stroke="white" stroke-width="2.5" stroke-miterlimit="10"/>
<path d="M147.291 405.914C144.738 405.914 142.441 403.857 142.441 401.03V374.038H170.521V375.323C170.521 378.921 173.328 382.008 176.902 382.008H188.134C191.708 382.008 194.516 378.921 194.516 375.323V362.984H149.333C145.504 362.984 142.441 359.899 142.441 356.042V303.6C142.441 300.515 144.994 298.202 147.802 298.202H208.045C213.662 298.202 218.256 303.344 218.256 309.771V328.536H194.516C194.516 324.937 191.708 322.11 188.134 322.11H176.647C173.073 322.11 170.265 325.195 170.265 328.794V341.39H210.854C214.683 341.39 217.745 344.475 217.745 348.33V393.319C217.745 400.258 212.641 405.914 206.514 405.914H147.291Z" fill="url(#paint8_linear)"/>
<path d="M208.046 300.773C212.129 300.773 215.703 304.886 215.703 309.771V325.965H196.559C195.536 322.11 191.963 319.539 188.134 319.539H176.647C171.797 319.539 167.712 323.652 167.712 328.793V338.82V343.961H172.818H210.854C213.407 343.961 215.194 346.017 215.194 348.33V393.319C215.194 398.974 211.363 403.343 206.514 403.343H147.291C146.015 403.343 144.993 402.315 144.993 401.03V376.865H167.968C168.734 381.236 172.307 384.835 176.647 384.835H187.879C192.729 384.835 196.814 380.722 196.814 375.58V365.812V360.671H191.708H149.333C146.78 360.671 144.993 358.614 144.993 356.3V339.334V303.858C144.993 302.315 146.27 301.029 147.801 301.029H208.046V300.773ZM208.046 295.632H147.801C143.462 295.632 139.888 299.23 139.888 303.6V339.334V356.3C139.888 361.699 144.228 365.812 149.333 365.812H191.708V375.58C191.708 377.893 189.921 379.693 187.879 379.693H176.647C174.605 379.693 172.818 377.893 172.818 375.58V371.982H139.633V401.03C139.633 405.143 142.951 408.484 147.036 408.484H206.769C214.428 408.484 220.554 401.545 220.554 393.319V348.074C220.554 342.675 216.214 338.562 211.109 338.562H173.073V328.536C173.073 326.223 174.86 324.423 176.902 324.423H188.389C190.432 324.423 192.219 326.223 192.219 328.536V330.85H221.064V309.513C220.554 301.801 214.937 295.632 208.046 295.632Z" fill="white"/>
<defs>
<linearGradient id="paint0_linear" x1="369.872" y1="331.359" x2="96.0117" y2="174.73" gradientUnits="userSpaceOnUse">
<stop stop-color="#121B2C"/>
<stop offset="0.155" stop-color="#141D2E"/>
<stop offset="0.3145" stop-color="#1A2335"/>
<stop offset="0.4761" stop-color="#232D40"/>
<stop offset="0.6392" stop-color="#303A51"/>
<stop offset="0.8034" stop-color="#3F4B68"/>
<stop offset="0.9664" stop-color="#525F86"/>
<stop offset="1" stop-color="#56648D"/>
</linearGradient>
<linearGradient id="paint1_linear" x1="35.2208" y1="257.419" x2="412.678" y2="257.419" gradientUnits="userSpaceOnUse">
<stop stop-color="white"/>
<stop offset="0.2398" stop-color="#FBFCFE"/>
<stop offset="0.3262" stop-color="#F3F5FB"/>
<stop offset="0.3878" stop-color="#E6EBF6"/>
<stop offset="0.4376" stop-color="#D5DFF1"/>
<stop offset="0.4803" stop-color="#BFCFEA"/>
<stop offset="0.5173" stop-color="#A5BDE2"/>
<stop offset="0.5311" stop-color="#9AB6DE"/>
<stop offset="1" stop-color="white"/>
</linearGradient>
<linearGradient id="paint2_linear" x1="87.6227" y1="234.984" x2="95.8669" y2="224.406" gradientUnits="userSpaceOnUse">
<stop stop-color="white"/>
<stop offset="0.2398" stop-color="#FBFCFE"/>
<stop offset="0.3262" stop-color="#F3F5FB"/>
<stop offset="0.3878" stop-color="#E6EBF6"/>
<stop offset="0.4376" stop-color="#D5DFF1"/>
<stop offset="0.4803" stop-color="#BFCFEA"/>
<stop offset="0.5173" stop-color="#A5BDE2"/>
<stop offset="0.5311" stop-color="#9AB6DE"/>
<stop offset="1" stop-color="white"/>
</linearGradient>
<linearGradient id="paint3_linear" x1="357.391" y1="234.709" x2="349.147" y2="224.132" gradientUnits="userSpaceOnUse">
<stop stop-color="white"/>
<stop offset="0.2398" stop-color="#FBFCFE"/>
<stop offset="0.3262" stop-color="#F3F5FB"/>
<stop offset="0.3878" stop-color="#E6EBF6"/>
<stop offset="0.4376" stop-color="#D5DFF1"/>
<stop offset="0.4803" stop-color="#BFCFEA"/>
<stop offset="0.5173" stop-color="#A5BDE2"/>
<stop offset="0.5311" stop-color="#9AB6DE"/>
<stop offset="1" stop-color="white"/>
</linearGradient>
<linearGradient id="paint4_linear" x1="221.402" y1="280.483" x2="221.402" y2="76.9001" gradientUnits="userSpaceOnUse">
<stop stop-color="#3F4B86" stop-opacity="0.7"/>
<stop offset="0.167" stop-color="#576498" stop-opacity="0.778"/>
<stop offset="0.4928" stop-color="#859AC5" stop-opacity="0.93"/>
<stop offset="0.6429" stop-color="#9AB6DE"/>
</linearGradient>
<linearGradient id="paint5_linear" x1="92.8482" y1="297.751" x2="92.8482" y2="405.972" gradientUnits="userSpaceOnUse">
<stop stop-color="white"/>
<stop offset="0.2398" stop-color="#FBFCFE"/>
<stop offset="0.3262" stop-color="#F3F5FB"/>
<stop offset="0.3878" stop-color="#E6EBF6"/>
<stop offset="0.4376" stop-color="#D5DFF1"/>
<stop offset="0.4803" stop-color="#BFCFEA"/>
<stop offset="0.5173" stop-color="#A5BDE2"/>
<stop offset="0.5311" stop-color="#9AB6DE"/>
<stop offset="1" stop-color="white"/>
</linearGradient>
<linearGradient id="paint6_linear" x1="357.62" y1="298.134" x2="357.62" y2="403.237" gradientUnits="userSpaceOnUse">
<stop stop-color="white"/>
<stop offset="0.2398" stop-color="#FBFCFE"/>
<stop offset="0.3262" stop-color="#F3F5FB"/>
<stop offset="0.3878" stop-color="#E6EBF6"/>
<stop offset="0.4376" stop-color="#D5DFF1"/>
<stop offset="0.4803" stop-color="#BFCFEA"/>
<stop offset="0.5173" stop-color="#A5BDE2"/>
<stop offset="0.5311" stop-color="#9AB6DE"/>
<stop offset="1" stop-color="white"/>
</linearGradient>
<linearGradient id="paint7_linear" x1="270.495" y1="309.158" x2="270.495" y2="399.512" gradientUnits="userSpaceOnUse">
<stop stop-color="white"/>
<stop offset="0.2398" stop-color="#FBFCFE"/>
<stop offset="0.3262" stop-color="#F3F5FB"/>
<stop offset="0.3878" stop-color="#E6EBF6"/>
<stop offset="0.4376" stop-color="#D5DFF1"/>
<stop offset="0.4803" stop-color="#BFCFEA"/>
<stop offset="0.5173" stop-color="#A5BDE2"/>
<stop offset="0.5311" stop-color="#9AB6DE"/>
<stop offset="1" stop-color="white"/>
</linearGradient>
<linearGradient id="paint8_linear" x1="180.231" y1="298.134" x2="180.231" y2="403.237" gradientUnits="userSpaceOnUse">
<stop stop-color="white"/>
<stop offset="0.2398" stop-color="#FBFCFE"/>
<stop offset="0.3262" stop-color="#F3F5FB"/>
<stop offset="0.3878" stop-color="#E6EBF6"/>
<stop offset="0.4376" stop-color="#D5DFF1"/>
<stop offset="0.4803" stop-color="#BFCFEA"/>
<stop offset="0.5173" stop-color="#A5BDE2"/>
<stop offset="0.5311" stop-color="#9AB6DE"/>
<stop offset="1" stop-color="white"/>
</linearGradient>
</defs>
</svg>
