<?xml version="1.0" standalone="no"?>
<!DOCTYPE svg PUBLIC "-//W3C//DTD SVG 20010904//EN"
 "http://www.w3.org/TR/2001/REC-SVG-20010904/DTD/svg10.dtd">
<svg version="1.0" xmlns="http://www.w3.org/2000/svg"
 width="799.000000pt" height="799.000000pt" viewBox="0 0 799.000000 799.000000"
 preserveAspectRatio="xMidYMid meet">
<metadata>
Created by potrace 1.14, written by Peter Selinger 2001-2017
</metadata>
<g transform="translate(0.000000,799.000000) scale(0.100000,-0.100000)"
fill="#000000" stroke="none">
<path d="M5819 7129 c-114 -23 -165 -41 -294 -105 -231 -114 -496 -357 -604
-554 -47 -86 -82 -163 -86 -187 -2 -15 -7 -107 -9 -203 -3 -96 -8 -186 -10
-200 -2 -14 -7 -54 -10 -90 -4 -36 -8 -76 -10 -90 -16 -106 -17 -122 -8 -133
6 -7 -30 7 -79 31 -276 133 -633 210 -824 178 -16 -3 -50 -8 -75 -11 -50 -7
-256 -63 -281 -76 -11 -5 -22 -2 -35 10 -45 41 -119 136 -219 276 -59 83 -124
173 -145 200 -21 28 -49 70 -62 95 -14 25 -46 86 -73 135 -123 229 -274 414
-440 540 -94 71 -150 97 -280 131 -95 24 -129 28 -250 28 -122 0 -154 -3 -250
-28 -189 -49 -357 -125 -600 -269 -143 -85 -193 -119 -365 -246 -106 -78 -250
-198 -345 -286 -18 -16 -76 -70 -129 -119 -90 -84 -112 -111 -69 -87 22 13
193 91 199 91 2 0 43 18 91 41 82 38 124 57 148 67 6 3 -55 -61 -135 -142 -80
-82 -156 -160 -170 -175 -61 -66 -84 -94 -75 -89 6 2 90 44 188 91 97 48 180
87 183 87 3 0 -25 -23 -63 -52 -87 -65 -199 -163 -238 -207 -16 -19 -35 -39
-41 -45 -50 -51 -193 -394 -308 -739 -41 -123 -41 -123 -23 -105 22 21 197
180 225 205 27 23 43 23 24 1 -16 -20 -69 -186 -86 -271 -16 -74 -16 -278 -2
-377 3 -19 8 -69 11 -110 2 -41 7 -84 9 -95 2 -11 6 -45 10 -75 3 -30 9 -77
12 -105 10 -81 12 -99 13 -124 1 -15 5 -21 10 -15 5 5 51 104 102 221 51 117
94 211 96 210 1 -2 5 -39 8 -83 8 -105 12 -128 37 -198 46 -133 197 -387 367
-620 l51 -70 2 209 c3 191 4 206 18 179 8 -16 24 -45 36 -64 11 -19 42 -75 68
-125 27 -49 54 -97 62 -106 8 -8 14 -19 14 -24 0 -15 115 -151 221 -260 58
-60 128 -132 154 -160 30 -31 46 -42 42 -30 -3 11 -14 49 -25 85 -107 346
-102 324 -84 342 10 10 31 20 47 23 25 5 35 1 61 -27 17 -18 46 -62 65 -98 18
-36 60 -101 93 -145 95 -127 254 -307 243 -275 -20 62 -28 141 -21 209 4 42 8
78 9 81 1 3 7 45 15 93 12 82 20 99 45 103 6 1 43 11 83 23 41 13 76 20 78 18
3 -3 -9 -62 -26 -133 -41 -170 -41 -165 -45 -274 -3 -96 10 -197 40 -300 9
-30 20 -69 24 -86 16 -61 21 -61 88 11 34 37 63 63 64 59 2 -20 7 -63 13 -129
8 -88 13 -118 41 -231 10 -38 34 -104 55 -146 41 -84 181 -317 191 -318 3 0
16 33 29 73 42 132 36 126 69 76 16 -24 43 -60 61 -79 45 -48 162 -140 177
-140 7 0 13 -4 13 -9 0 -5 8 -11 18 -14 9 -3 42 -15 74 -26 52 -19 191 -53
263 -64 17 -3 57 -10 90 -15 60 -11 121 -18 225 -28 42 -4 59 -11 70 -27 28
-42 87 -92 129 -109 l43 -17 -15 23 c-20 30 -36 91 -28 104 4 6 32 10 65 10
62 -2 68 -7 80 -67 3 -19 18 -49 32 -68 l25 -33 -206 0 -206 0 -21 -46 c-29
-67 -33 -182 -8 -278 22 -88 46 -139 63 -133 7 2 28 35 47 73 65 129 98 159
147 133 29 -15 84 -105 108 -174 17 -50 23 -163 11 -184 -12 -18 22 -12 72 13
88 45 139 119 127 186 -20 112 -10 198 24 201 67 7 130 -17 173 -66 36 -40 74
-135 83 -209 l8 -59 18 24 c10 13 27 53 39 89 32 96 25 234 -20 393 l-11 37
-194 0 -193 0 -7 39 c-4 26 -2 50 7 68 14 29 71 63 98 58 8 -2 19 -4 23 -4 13
-1 37 -69 31 -85 -4 -10 -1 -16 9 -16 18 0 104 85 112 111 4 13 16 18 48 18
42 0 116 7 172 17 17 3 40 7 52 9 82 12 103 18 103 25 0 4 9 6 20 3 12 -3 20
0 20 7 0 7 8 9 19 5 11 -3 25 1 34 9 8 8 17 13 19 11 5 -5 143 38 198 62 53
23 149 90 203 142 57 54 92 102 147 203 l40 73 -2 -212 c-2 -116 0 -209 3
-207 3 2 32 47 64 101 32 54 68 112 80 128 12 17 25 37 29 45 3 8 17 33 31 55
14 22 30 50 35 62 5 12 23 54 39 93 17 39 35 99 41 133 6 34 12 73 14 87 3 14
5 63 5 109 l1 84 48 -53 48 -53 33 93 c44 122 60 241 56 425 -3 141 -6 180
-25 282 l-7 41 41 -25 c23 -15 111 -73 198 -130 86 -56 159 -103 162 -103 4 0
2 9 -4 19 -15 28 -12 52 7 73 16 18 18 17 50 -14 l33 -32 73 72 72 72 0 -245
c0 -135 0 -245 1 -245 1 0 35 64 74 143 40 78 103 201 140 272 37 72 102 199
145 284 l79 154 12 -64 c13 -63 104 -539 126 -654 12 -59 12 -60 19 -25 4 19
10 58 14 85 3 28 8 68 10 90 10 81 34 266 40 305 2 14 6 48 10 75 5 45 14 118
30 245 3 25 8 54 10 65 2 11 4 25 4 30 1 6 24 -41 51 -104 27 -63 52 -116 55
-119 3 -4 32 23 65 58 147 160 204 383 177 690 -7 70 -9 86 -22 150 -2 14 -7
46 -10 71 -4 25 -12 75 -20 110 -11 55 -12 83 -2 68 3 -5 56 -67 123 -145 29
-32 97 -112 153 -177 89 -104 105 -118 103 -97 0 3 -3 59 -7 125 -26 507 -48
704 -91 817 -26 68 -91 200 -159 321 -20 38 -39 85 -40 105 -4 49 -68 250
-107 332 -35 76 -82 140 -168 228 -34 35 -60 65 -58 67 2 1 75 10 163 19 88
10 174 19 190 22 36 4 106 12 177 19 29 3 67 7 83 10 17 2 41 4 55 5 16 0 -25
23 -110 60 -74 33 -144 64 -155 70 -88 40 -590 254 -665 283 -595 226 -955
299 -1211 246z"/>
</g>
</svg>
