<svg width="552" height="622" viewBox="0 0 552 622" fill="none" xmlns="http://www.w3.org/2000/svg">
<g opacity="0.1" clip-path="url(#clip0)">
<path d="M275.843 597.497C275.843 597.497 107.884 551.004 77.689 382.938C47.4942 214.873 43.4053 131.311 43.4053 131.311C43.4053 131.311 118.263 113.719 159.781 91.7293C201.299 69.7394 276.157 31.7283 276.157 31.7283C276.157 31.7283 351.016 69.7394 392.533 91.7293C434.051 113.719 508.91 131.311 508.91 131.311C508.91 131.311 504.821 214.873 474.626 382.938C444.431 551.004 275.843 597.497 275.843 597.497Z" fill="url(#paint0_linear)"/>
<path d="M275.843 66.9121C299.747 79.1636 347.556 103.667 377.436 119.374C406.058 134.767 448.205 147.646 474.94 154.872C471.48 190.998 463.302 265.135 442.858 376.97C431.85 437.599 399.453 487.862 346.926 525.873C317.361 547.234 289.367 558.858 275.843 563.884C262.318 558.858 234.01 547.234 204.759 525.873C151.918 487.547 119.521 437.599 108.827 376.97C88.6974 265.135 80.2051 190.998 76.7453 154.872C103.795 147.332 145.627 134.452 174.25 119.374C204.13 103.981 252.253 79.1636 275.843 66.9121ZM275.843 31.7283C275.843 31.7283 200.985 69.7394 159.467 91.7293C117.949 113.719 43.0906 131.311 43.0906 131.311C43.0906 131.311 47.1795 214.873 77.3743 382.938C107.569 551.004 275.528 597.497 275.528 597.497C275.528 597.497 443.487 551.004 473.682 382.938C503.877 214.873 507.966 131.311 507.966 131.311C507.966 131.311 433.108 113.719 391.59 91.7293C350.701 70.0535 275.843 31.7283 275.843 31.7283Z" fill="url(#paint1_linear)"/>
<path d="M275.843 36.4404C297.545 47.4353 355.419 77.2788 390.332 95.499C424.301 113.405 476.513 128.484 502.304 135.081C499.788 167.437 491.296 250.685 467.392 383.881C455.125 452.364 418.639 508.595 359.193 551.318C323.022 577.392 288.739 590.272 276.157 594.355C263.891 590.272 230.236 577.706 194.065 551.946C133.99 509.223 97.1899 452.678 84.6087 383.881C60.3899 250.685 52.2121 167.437 49.3813 135.081C75.4873 128.17 127.699 113.405 161.354 95.499C196.267 76.9646 254.14 47.4353 275.843 36.4404ZM275.843 15.0788C275.843 15.0788 196.581 55.603 152.547 78.8495C108.513 102.096 29.5659 120.63 29.5659 120.63C29.5659 120.63 33.9693 209.218 66.0514 387.022C98.1334 564.826 276.157 613.832 276.157 613.832C276.157 613.832 453.867 564.826 486.263 387.022C518.66 209.218 522.749 120.63 522.749 120.63C522.749 120.63 443.487 102.096 399.453 78.8495C355.104 55.603 275.843 15.0788 275.843 15.0788Z" fill="#101C2E"/>
<path d="M410.776 361.263C410.776 361.263 404.171 335.189 392.533 323.566C380.896 311.628 348.814 299.063 348.814 299.063L273.955 301.262L199.097 299.063C199.097 299.063 167.015 311.314 155.378 323.566C144.055 335.189 137.135 361.263 137.135 361.263L273.641 360.32L410.776 361.263Z" fill="#101C2E"/>
<path d="M218.284 363.147C218.284 363.147 196.581 346.184 176.137 325.765C155.692 305.345 131.159 276.759 131.159 276.759C131.159 276.759 109.142 267.963 89.3265 256.968C69.5111 245.973 38.0581 219.271 38.0581 219.271C38.0581 219.271 51.2684 248.8 66.0513 267.963C80.8342 287.125 152.547 339.273 152.547 339.273L218.284 363.147Z" fill="white" stroke="#101C2E" stroke-width="2" stroke-miterlimit="10"/>
<path d="M102.222 278.015C102.222 278.015 108.513 283.041 118.263 290.581C128.014 298.12 140.909 308.173 154.12 317.597C157.579 319.796 160.725 321.995 164.185 324.194C167.644 326.393 170.79 328.592 173.935 330.791C180.226 335.189 185.887 339.587 190.92 343.042C195.638 346.812 199.727 349.954 202.557 352.153C205.388 354.352 206.961 355.922 206.961 355.922L206.646 356.236C206.646 356.236 204.759 355.294 201.928 353.409C198.783 351.524 194.694 348.697 189.662 345.241C184.629 341.786 178.653 337.702 172.362 333.304C169.217 331.105 166.072 328.906 162.926 326.393C159.467 324.194 156.321 321.681 152.862 319.482C139.651 309.743 127.07 299.377 117.949 291.523C108.198 283.67 101.908 278.329 102.222 278.015Z" fill="#101C2E"/>
<path d="M184.315 337.074L174.564 323.88C193.121 341.472 193.121 341.472 218.598 362.833L152.547 338.959L151.918 338.33L152.547 336.131L184.315 337.074Z" fill="#101C2E"/>
<path opacity="0.4" d="M167.645 323.88C167.33 323.566 128.014 281.785 128.014 281.785C128.014 281.785 100.021 268.905 90.8992 263.879C81.7779 258.852 55.6719 239.69 55.6719 239.69L167.645 323.88Z" fill="url(#paint2_linear)"/>
<path d="M329.942 363.147C329.942 363.147 351.644 346.184 372.089 325.765C392.533 305.345 417.067 276.759 417.067 276.759C417.067 276.759 439.084 267.963 458.899 256.968C478.715 245.973 510.168 219.271 510.168 219.271C510.168 219.271 496.957 248.8 482.174 267.963C467.391 287.125 395.679 339.273 395.679 339.273L329.942 363.147Z" fill="white" stroke="#101C2E" stroke-width="2" stroke-miterlimit="10"/>
<path d="M446.318 278.329C446.318 278.329 440.028 283.67 430.592 291.523C421.156 299.377 408.575 309.743 395.679 319.482C392.533 321.995 389.074 324.194 385.614 326.393C382.469 328.592 379.009 331.105 376.178 333.304C369.887 337.702 363.911 341.786 358.879 345.241C353.846 348.697 349.443 351.524 346.612 353.409C343.467 355.294 341.894 356.236 341.894 356.236L341.58 355.922C341.58 355.922 343.152 354.666 345.983 352.153C348.814 349.954 352.588 346.498 357.621 343.042C362.339 339.273 368 334.875 374.605 330.791C377.751 328.592 381.21 326.393 384.356 324.194C387.816 321.995 391.275 319.796 394.421 317.597C407.631 308.173 420.527 298.12 430.277 290.581C439.713 283.041 446.004 278.015 446.318 278.329Z" fill="#101C2E"/>
<path d="M363.911 337.074L373.662 323.88C355.104 341.472 355.104 341.472 329.627 362.833L395.679 338.959L396.308 338.33L395.679 336.131L363.911 337.074Z" fill="#101C2E"/>
<path opacity="0.4" d="M380.581 323.88C380.896 323.566 420.212 281.785 420.212 281.785C420.212 281.785 448.205 268.905 457.327 263.879C466.448 258.852 492.554 239.69 492.554 239.69L380.581 323.88Z" fill="url(#paint3_linear)"/>
<path d="M146.885 589.328L228.978 514.248L211.679 495.4L129.586 570.48C128.643 571.422 128.643 572.679 129.586 573.621L143.74 589.014C144.369 589.957 145.942 590.271 146.885 589.328Z" fill="#9AB6DE" stroke="#101C2E" stroke-width="2" stroke-miterlimit="10"/>
<path d="M146.082 590.096L229.182 514.206L224.725 509.337L141.625 585.227L146.082 590.096Z" fill="#101C2E"/>
<path d="M131.751 573.98L214.619 498.302L211.859 495.288L128.992 570.966L131.751 573.98Z" fill="#EEF3F7"/>
<path d="M131.788 574.251L130.215 572.68L146.256 589.958L150.66 585.874L136.191 569.853L131.788 574.251Z" fill="#101C2E"/>
<path d="M147.24 581.992L148.865 580.508L135.069 565.438L133.444 566.922L147.24 581.992Z" fill="#EEF3F7"/>
<path d="M146.571 560.429L161.039 576.135L165.757 572.052L151.289 556.345L146.571 560.429Z" fill="#101C2E"/>
<path d="M162.072 568.158L163.697 566.674L150.114 551.837L148.489 553.321L162.072 568.158Z" fill="#EEF3F7"/>
<path d="M161.668 546.606L176.137 562.628L180.855 558.23L166.386 542.522L161.668 546.606Z" fill="#101C2E"/>
<path d="M177.244 554.509L178.869 553.025L165.073 537.956L163.448 539.44L177.244 554.509Z" fill="#EEF3F7"/>
<path d="M176.766 532.784L191.234 548.805L195.952 544.407L181.484 528.7L176.766 532.784Z" fill="#101C2E"/>
<path d="M192.072 540.658L193.697 539.175L179.901 524.105L178.276 525.589L192.072 540.658Z" fill="#EEF3F7"/>
<path d="M405.114 589.329L323.022 514.25L340.321 495.401L422.413 570.481C423.357 571.423 423.357 572.68 422.413 573.622L408.26 589.015C407.316 589.958 406.058 590.272 405.114 589.329Z" fill="#9AB6DE" stroke="#101C2E" stroke-width="2" stroke-miterlimit="10"/>
<path d="M410.526 585.241L327.426 509.351L322.968 514.22L406.068 590.109L410.526 585.241Z" fill="#101C2E"/>
<path d="M422.888 571.118L340.02 495.44L337.26 498.454L420.128 574.132L422.888 571.118Z" fill="#EEF3F7"/>
<path d="M420.212 574.251L421.47 572.68L405.744 589.958L401.026 585.874L415.494 569.853L420.212 574.251Z" fill="#101C2E"/>
<path d="M418.31 566.894L416.685 565.41L402.889 580.479L404.514 581.963L418.31 566.894Z" fill="#EEF3F7"/>
<path d="M405.115 560.428L390.646 576.135L385.928 572.051L400.711 556.345L405.115 560.428Z" fill="#101C2E"/>
<path d="M403.492 553.179L401.867 551.695L388.284 566.532L389.908 568.016L403.492 553.179Z" fill="#EEF3F7"/>
<path d="M390.017 546.606L375.549 562.627L371.145 558.229L385.614 542.522L390.017 546.606Z" fill="#101C2E"/>
<path d="M388.412 539.387L386.787 537.903L372.991 552.972L374.616 554.456L388.412 539.387Z" fill="#EEF3F7"/>
<path d="M374.92 532.784L360.451 548.805L356.048 544.407L370.516 528.7L374.92 532.784Z" fill="#101C2E"/>
<path d="M373.182 525.773L371.558 524.29L357.762 539.359L359.387 540.843L373.182 525.773Z" fill="#EEF3F7"/>
<path d="M525.894 211.417L496.328 281.157L350.072 422.834L308.239 379.797L454.81 237.491L525.894 211.417Z" fill="#1A293D"/>
<path d="M502.933 233.407L485.634 273.931L350.386 405.242L326.167 380.111L461.73 248.486L502.933 233.407ZM525.894 211.417L454.81 237.491L308.239 379.797L350.072 422.834L496.328 280.842L525.894 211.417Z" fill="#59C9E6"/>
<path d="M525.894 211.417L496.328 280.842L350.072 422.834L308.239 379.797L454.81 237.491L525.894 211.417ZM537.531 200.422L524.007 205.448L452.923 231.522L451.665 231.836L450.721 232.779L304.15 375.085L299.747 379.483L304.15 383.881L345.983 426.918L350.386 431.316L354.79 426.918L501.046 284.926L501.99 283.984L502.619 282.727L532.185 213.302L537.531 200.422Z" fill="#101C2E"/>
<path d="M435.309 306.602L434.051 305.345L453.867 286.183L468.335 286.497L478.4 276.444L479.658 277.701L468.964 288.382L454.496 288.068L435.309 306.602Z" fill="#60C3BD"/>
<path d="M441.914 281.785L440.656 280.528L461.415 260.423H473.053L487.836 245.973L489.094 247.543L473.682 262.308H462.044L441.914 281.785Z" fill="#60C3BD"/>
<path d="M379.637 346.498L378.065 345.241L401.654 322.309V310.372L423.043 289.638L424.301 290.895L403.542 311V323.251L379.637 346.498Z" fill="#60C3BD"/>
<path d="M398.824 340.529L397.565 339.273L410.776 326.707V313.513L423.042 301.576L424.301 303.146L412.663 314.141V327.335L398.824 340.529Z" fill="#60C3BD"/>
<path d="M412.349 335.503L411.091 333.932L431.85 314.141H439.713L447.891 305.974L449.463 307.544L440.342 316.026H432.479L412.349 335.503Z" fill="#60C3BD"/>
<path d="M439.084 287.439C438.14 287.439 436.882 287.125 436.253 286.183C434.68 284.612 434.68 281.785 436.253 280.214C437.825 278.643 440.656 278.643 442.229 280.214C443.802 281.785 443.802 284.612 442.229 286.183C440.971 287.125 440.027 287.439 439.084 287.439ZM439.084 281.157C438.454 281.157 437.825 281.471 437.511 281.785C436.567 282.727 436.567 283.984 437.511 284.926C438.454 285.869 439.713 285.869 440.656 284.926C441.6 283.984 441.6 282.727 440.656 281.785C440.342 281.471 439.713 281.157 439.084 281.157Z" fill="#60C3BD"/>
<path d="M432.479 312.257C431.22 312.257 430.277 311.942 429.648 311C429.019 310.058 428.39 309.115 428.39 308.173C428.39 306.916 428.704 305.974 429.648 305.345C430.591 304.717 431.535 304.089 432.479 304.089C433.737 304.089 434.68 304.403 435.309 305.345C435.938 306.288 436.567 307.23 436.567 308.173C436.567 309.429 436.253 310.372 435.309 311C434.366 311.942 433.422 312.257 432.479 312.257ZM432.479 305.974C431.849 305.974 431.22 306.288 430.906 306.602C430.591 306.916 430.277 307.544 430.277 308.173C430.277 308.801 430.591 309.429 430.906 309.743C431.22 310.058 431.849 310.372 432.479 310.372C433.108 310.372 433.737 310.058 434.051 309.743C434.366 309.429 434.68 308.801 434.68 308.173C434.68 307.544 434.366 306.916 434.051 306.602C433.737 306.288 433.108 305.974 432.479 305.974Z" fill="#60C3BD"/>
<path d="M448.205 284.926L446.947 283.67L453.552 277.073H461.415L466.762 272.047L468.02 273.303L462.359 278.958H454.496L448.205 284.926Z" fill="#60C3BD"/>
<path d="M25.7913 211.417L55.6716 281.157L201.613 422.834L243.76 379.797L97.1895 237.491L25.7913 211.417Z" fill="#1A293D"/>
<path d="M48.7519 233.407L90.2699 248.486L225.832 380.111L201.613 405.242L66.0511 273.617L48.7519 233.407ZM25.7913 211.417L55.3571 280.842L201.613 422.834L243.446 379.797L97.1896 237.491L25.7913 211.417Z" fill="#59C9E6"/>
<path d="M25.7913 211.417L96.8751 237.491L243.446 379.797L201.614 422.834L55.6717 281.157L25.7913 211.417ZM14.4683 200.422L20.1298 213.93L49.6956 283.356L50.3247 284.612L51.2683 285.555L197.525 427.546L201.928 431.944L206.332 427.546L248.164 384.509L252.567 380.111L248.164 375.713L101.593 233.093L100.649 232.151L99.3914 231.836L27.9931 205.448L14.4683 200.422Z" fill="#101C2E"/>
<path d="M116.376 306.602L97.504 288.068L82.7211 288.382L72.0271 277.701L73.2852 276.444L83.6647 286.497L98.1331 286.183L117.948 305.345L116.376 306.602Z" fill="#60C3BD"/>
<path d="M109.771 281.785L89.6408 262.308H78.3177L62.9058 247.543L64.1639 245.973L78.9468 260.423H90.5844L111.343 280.528L109.771 281.785Z" fill="#60C3BD"/>
<path d="M172.362 346.498L148.458 323.251L148.143 311L127.384 290.895L128.957 289.638L150.03 310.372L150.345 322.309L173.62 345.241L172.362 346.498Z" fill="#60C3BD"/>
<path d="M152.861 340.529L139.337 327.335L139.022 314.141L127.699 303.146L128.957 301.576L140.909 313.513L141.224 326.707L154.119 339.273L152.861 340.529Z" fill="#60C3BD"/>
<path d="M139.337 335.503L119.207 316.026H111.343L102.537 307.544L103.795 305.974L112.287 314.141H120.15L140.595 333.932L139.337 335.503Z" fill="#60C3BD"/>
<path d="M112.916 287.439C111.972 287.439 110.714 287.125 110.085 286.183C109.142 285.555 108.827 284.298 108.827 283.356C108.827 282.413 109.142 281.157 110.085 280.528C111.658 278.958 114.174 278.958 116.061 280.528C117.005 281.157 117.319 282.413 117.319 283.356C117.319 284.612 117.005 285.555 116.061 286.183C115.118 287.125 114.174 287.439 112.916 287.439ZM112.916 281.157C112.287 281.157 111.658 281.471 111.343 281.785C111.029 282.099 110.714 282.727 110.714 283.356C110.714 283.984 111.029 284.612 111.343 284.926C111.658 285.24 112.287 285.555 112.916 285.555C113.545 285.555 114.174 285.24 114.489 284.926C114.803 284.612 115.118 283.984 115.118 283.356C115.118 282.727 114.803 282.099 114.489 281.785C114.174 281.471 113.545 281.157 112.916 281.157Z" fill="#60C3BD"/>
<path d="M119.521 312.257C118.577 312.257 117.319 311.942 116.69 311C115.118 309.429 115.118 306.916 116.69 305.031C118.263 303.461 120.779 303.461 122.666 305.031C124.239 306.602 124.239 309.115 122.666 311C121.723 311.942 120.779 312.257 119.521 312.257ZM119.521 305.974C118.892 305.974 118.263 306.288 117.948 306.602C117.005 307.544 117.005 308.801 117.948 309.743C118.263 310.058 118.892 310.372 119.521 310.372C120.15 310.372 120.779 310.058 121.094 309.743C122.037 308.801 122.037 307.544 121.094 306.602C120.779 306.288 120.15 305.974 119.521 305.974Z" fill="#60C3BD"/>
<path d="M103.795 284.926L97.5041 278.958H89.6409L83.6648 273.303L84.9229 272.047L90.2699 277.073H98.1332L105.053 283.67L103.795 284.926Z" fill="#60C3BD"/>
<path opacity="0.2" d="M25.7913 211.417L55.6716 281.157L201.613 422.834L222.058 402.101L25.7913 211.417Z" fill="white"/>
<g opacity="0.6">
<path opacity="0.6" d="M25.7913 211.417L42.1468 217.386L25.7913 211.417L33.969 230.58L58.8169 243.46L25.7913 211.417Z" fill="white"/>
</g>
<g opacity="0.6">
<path opacity="0.6" d="M127.699 310.372L50.9536 270.162L53.7844 277.073L138.707 321.053L127.699 310.372Z" fill="white"/>
</g>
<g opacity="0.6">
<path opacity="0.6" d="M147.514 329.534L57.2444 282.727L95.9315 320.424L187.145 368.174L147.514 329.534Z" fill="white"/>
</g>
<g opacity="0.6">
<path opacity="0.6" d="M65.1076 249.742L35.5417 234.35L48.752 265.45L115.118 298.12L65.1076 249.742Z" fill="white"/>
</g>
<path d="M337.49 66.9121C342.523 47.1212 370.202 21.9899 394.735 20.4192C419.268 18.8485 471.166 41.7808 471.166 41.7808L427.131 46.493C427.131 46.493 475.255 62.2 486.263 76.3364C495.07 87.9596 498.844 93.9283 498.844 93.9283C497.901 90.1586 496.957 86.3889 495.699 82.6192L493.812 76.9647C493.183 75.0798 492.554 73.5091 491.61 71.3101C490.352 68.797 489.094 66.9122 487.836 65.0273C486.578 63.1425 485.005 61.5717 483.432 60.001C481.86 58.4303 480.602 56.8596 479.029 55.2889C478.4 54.6606 477.771 54.0323 477.142 53.4041L520.232 48.6919L476.513 29.8435C472.424 27.9586 468.649 26.3879 464.561 24.8172C460.472 23.2465 456.697 21.6758 452.608 20.4192C444.745 17.5919 436.567 14.7647 428.075 12.5657C419.583 10.3667 411.09 8.16769 401.34 7.53941C400.082 7.53941 398.509 7.53941 397.251 7.53941C396.308 7.53941 395.993 7.53941 395.364 7.53941H393.477C390.646 7.85355 388.13 8.16769 385.614 8.79598C380.581 9.7384 375.863 11.6232 371.46 13.5081C362.653 17.5919 354.79 22.9323 347.87 29.2152C344.41 32.3566 341.265 35.8121 338.119 39.5818C334.974 43.3515 332.143 47.4354 329.942 51.8334C328.684 54.0323 327.425 56.2313 326.482 59.0586C326.167 59.6869 325.853 60.6293 325.853 61.2576C325.853 61.8859 325.853 62.2 325.853 62.8283C325.853 62.8283 325.538 63.4566 325.853 63.1425V63.4566V63.7707V64.399V65.9697C325.853 69.7394 325.853 73.8233 325.538 77.9071C324.909 86.0748 324.28 94.5566 322.708 103.038C322.708 103.667 332.772 86.3889 337.49 66.9121Z" fill="#101C2E"/>
<path d="M322.708 103.667C322.708 103.667 332.773 86.3889 337.49 66.9121C342.523 47.1212 370.202 21.9899 394.735 20.4192C419.268 18.8485 471.166 41.7808 471.166 41.7808L427.132 46.4929C427.132 46.4929 475.255 62.2 486.263 76.3364C495.07 87.9596 498.844 93.9283 498.844 93.9283L482.489 81.3626C482.489 81.3626 500.417 107.751 505.135 121.887C507.651 129.426 509.224 159.27 509.224 159.27L479.973 125.342C479.973 125.342 488.779 156.757 490.038 178.432C491.296 200.108 483.118 209.532 483.118 209.532L471.166 182.516L465.504 224.925L459.843 196.653L436.253 242.203V222.098L416.438 242.203L402.284 234.664C402.284 234.664 384.67 167.123 368.314 146.39C351.959 125.657 322.708 103.667 322.708 103.667Z" fill="#9AB6DE"/>
<path d="M487.836 77.907C489.094 80.106 490.352 81.9909 491.61 83.5616C489.409 80.4202 488.15 78.2212 487.836 77.907Z" fill="#101C2E"/>
<path d="M492.239 148.903L516.458 176.862L515.514 158.641C515.2 153.615 513.942 127.541 511.111 119.688C508.595 112.148 502.619 101.468 497.272 92.6717L482.489 81.0485C482.489 81.0485 500.417 107.436 505.135 121.573C507.651 129.112 509.224 158.956 509.224 158.956L480.287 125.342C480.287 125.342 467.706 108.065 448.205 106.18C428.704 103.981 422.099 103.667 422.099 103.667C422.099 103.667 429.962 93.3 445.689 93.9283C461.415 94.5566 475.569 98.6404 475.569 98.6404C475.569 98.6404 457.327 76.6505 440.971 74.4515C424.615 72.2525 388.445 74.4515 388.445 74.4515C388.445 74.4515 387.501 68.4828 388.445 61.8859C389.388 55.2889 395.679 47.1212 395.679 47.1212C395.679 47.1212 373.662 49.3202 364.226 61.8859C354.79 74.4515 356.363 110.578 364.226 127.856C372.089 145.133 409.204 201.05 409.204 201.05L390.646 192.883L407.002 237.177L415.18 245.659L418.01 242.517L422.099 246.601L430.906 237.491V267.963L457.956 215.501L467.392 263.879L474.94 205.448L481.545 220.527L488.15 213.302C489.094 212.045 498.215 201.365 496.643 177.804C496.014 169.008 494.127 158.327 492.239 148.903Z" fill="#101C2E"/>
<path d="M322.079 103.667C322.079 103.667 292.198 93.9283 274.27 93.9283C256.342 93.9283 229.607 103.667 229.607 103.667C229.607 103.667 211.993 111.52 200.356 122.515C188.718 133.51 178.024 144.819 178.024 144.819C178.024 144.819 159.781 163.668 149.402 183.459C139.022 203.25 138.708 213.302 138.708 213.302L156.321 198.852L142.168 234.035L165.757 230.266L160.41 278.643L171.104 271.418C171.104 271.418 170.161 289.01 173.306 301.89C175.508 311.314 182.427 318.225 182.427 318.225L185.887 304.717C185.887 304.717 196.581 324.194 207.904 330.791C224.889 341.158 254.769 342.1 254.769 342.1C254.769 342.1 267.35 342.728 274.27 342.728C281.504 343.042 290.94 342.1 290.94 342.1C290.94 342.1 312.014 342.728 328.998 334.875C343.467 328.278 351.015 322.309 351.015 322.309L367.686 289.01L377.121 299.377L373.347 264.507L385.299 241.575L384.985 222.726L407.631 237.491L391.275 193.197L407.631 200.108L386.557 158.013C386.557 158.013 367.057 134.138 356.362 126.285C344.725 118.431 322.079 103.667 322.079 103.667Z" fill="#EEF3F7"/>
<path d="M322.079 103.667C322.079 103.667 292.198 93.9283 274.27 93.9283C256.342 93.9283 229.607 103.667 229.607 103.667C229.607 103.667 211.993 111.52 200.356 122.515C188.718 133.51 178.024 144.819 178.024 144.819C178.024 144.819 159.781 163.668 149.402 183.459C139.022 203.25 138.708 213.302 138.708 213.302L156.321 198.852L155.063 226.182L169.846 227.124L164.814 272.989L171.104 272.046C171.104 272.046 170.161 289.638 173.306 302.518C175.508 311.942 182.427 318.854 182.427 318.854L185.887 305.345C185.887 305.345 196.581 324.822 207.904 331.419C224.889 341.786 254.769 342.728 254.769 342.728C254.769 342.728 267.351 343.357 274.27 343.357C281.504 343.671 291.569 342.728 291.569 342.728C291.569 342.728 314.215 342.728 328.998 336.131C343.467 329.849 349.128 323.252 349.128 323.252L367.057 289.638L376.492 300.005L372.718 265.135L388.759 276.444L384.356 223.355L407.002 238.119L390.646 193.825L407.002 200.736L385.928 158.641C385.928 158.641 366.427 134.767 355.733 126.913C344.725 118.431 322.079 103.667 322.079 103.667Z" fill="url(#paint4_linear)"/>
<path d="M316.417 187.857C316.417 187.857 302.892 188.171 305.409 213.302C308.554 241.889 327.111 245.659 327.111 245.659L325.853 228.381C325.853 228.381 338.749 234.349 345.039 230.58C355.419 224.611 357.621 219.899 357.621 209.218C357.621 197.909 352.903 195.082 352.903 195.082C352.903 195.082 356.991 192.569 357.621 184.087C357.935 178.746 350.386 169.636 350.386 169.636C350.386 169.636 351.33 179.061 348.185 182.516C345.039 185.972 336.862 191.626 328.369 197.281C322.079 201.679 314.844 205.448 314.844 205.134C314.844 205.134 312.957 201.679 312.957 198.223C313.586 193.511 315.788 189.427 316.417 187.857Z" fill="white"/>
<path d="M344.725 196.338C342.838 205.449 335.604 218.957 330.257 218.957C324.91 218.957 321.135 216.443 321.135 207.019C321.135 204.82 325.224 202.307 329.942 199.48C335.289 196.653 346.297 187.542 344.725 196.338Z" fill="#101C2E"/>
<path d="M323.966 209.532C324.661 209.532 325.224 208.407 325.224 207.019C325.224 205.631 324.661 204.506 323.966 204.506C323.271 204.506 322.708 205.631 322.708 207.019C322.708 208.407 323.271 209.532 323.966 209.532Z" fill="white"/>
<path d="M231.808 187.857C231.808 187.857 245.333 188.171 242.817 213.302C239.672 241.889 221.114 245.659 221.114 245.659L222.373 228.381C222.373 228.381 209.477 234.349 203.186 230.58C192.807 224.611 190.605 219.899 190.605 209.218C190.605 197.909 195.323 195.082 195.323 195.082C195.323 195.082 191.234 192.569 190.605 184.087C190.29 178.746 197.839 169.636 197.839 169.636C197.839 169.636 196.896 179.061 200.041 182.516C203.186 185.972 211.364 191.626 219.856 197.281C226.147 201.679 233.381 205.448 233.381 205.134C233.381 205.134 235.268 201.679 235.268 198.223C234.639 193.511 232.752 189.427 231.808 187.857Z" fill="white"/>
<path d="M203.501 196.338C205.388 205.449 212.622 218.957 217.969 218.957C223.316 218.957 227.091 216.443 227.091 207.019C227.091 204.82 223.002 202.307 218.284 199.48C212.937 196.653 201.928 187.542 203.501 196.338Z" fill="#101C2E"/>
<path d="M207.904 201.051C208.599 201.051 209.162 199.925 209.162 198.537C209.162 197.149 208.599 196.024 207.904 196.024C207.209 196.024 206.646 197.149 206.646 198.537C206.646 199.925 207.209 201.051 207.904 201.051Z" fill="white"/>
<path d="M229.607 103.667C229.607 103.667 234.954 100.525 243.132 97.3838C245.333 96.4414 247.535 95.8131 250.051 95.1849C252.568 94.5566 255.084 93.6141 257.915 92.9859C260.745 92.3576 263.576 91.7293 266.407 91.4152C269.552 91.101 272.383 90.7869 275.528 90.7869C278.359 90.7869 281.819 91.4152 284.65 91.7293C287.48 92.0434 290.311 92.6717 293.142 93.3C298.489 94.5566 303.521 96.1273 307.925 97.698C316.417 100.839 321.764 103.667 321.764 103.667C321.764 103.667 315.788 102.724 306.981 101.468C302.578 100.839 297.545 99.897 292.198 98.9546C289.368 98.6404 286.851 98.3263 284.021 97.698C281.19 97.3838 278.674 97.0697 275.528 97.0697C272.698 96.7556 269.867 97.0697 267.036 97.3838C264.205 97.698 261.374 98.0121 258.858 98.3263C253.511 99.2687 248.479 100.211 244.075 100.839C235.583 102.724 229.607 103.667 229.607 103.667Z" fill="#101C2E"/>
<path d="M156.321 198.852L138.708 213.302C138.708 213.302 139.022 202.935 149.402 183.459C159.781 163.668 178.024 144.819 178.024 144.819C178.024 144.819 188.718 133.51 200.356 122.515C211.679 111.52 229.607 103.667 229.607 103.667C229.607 103.667 236.527 101.154 245.648 98.6404C238.728 90.7869 220.8 69.7394 215.768 63.4566C209.791 55.6031 192.492 13.8222 153.491 14.1364C114.489 14.4505 61.3334 61.8859 61.3334 61.8859L85.5522 51.8334L47.8086 86.3889L72.3419 74.4515C72.3419 74.4515 54.7282 88.2738 50.0103 96.4414C45.2923 104.609 34.9128 136.966 34.9128 136.966L56.6154 116.232C56.6154 116.232 43.4051 142.306 43.4051 154.872C43.4051 167.437 45.9214 188.485 45.9214 188.485L61.3334 152.673C61.3334 152.673 60.0752 171.835 61.3334 185.343C62.5915 198.852 80.2052 222.726 80.2052 222.726V197.595C80.2052 197.595 89.3265 209.532 94.0445 219.899C98.7624 230.266 114.489 234.978 114.489 234.978L156.007 208.276L156.321 198.852Z" fill="#9AB6DE"/>
<path d="M184 60.9434C174.564 48.3778 140.595 48.3778 140.595 48.3778C140.595 48.3778 155.378 55.603 159.781 60.9434C163.87 66.2838 159.781 73.5091 159.781 73.5091C159.781 73.5091 139.966 62.5141 123.61 64.399C107.255 66.2838 80.2052 91.101 80.2052 91.101C80.2052 91.101 94.0445 89.2162 100.964 90.7869C109.771 92.9859 110.715 102.724 110.715 102.724C110.715 102.724 110.4 100.211 101.908 100.839C82.407 102.724 72.342 124.4 72.342 124.4C72.342 124.4 69.5112 128.17 66.6804 133.51L66.995 126.599L56.6155 150.788C53.7847 157.699 50.9539 164.296 47.8086 171.207C47.8086 170.579 47.8086 169.95 47.4941 169.322C47.1796 166.181 46.8651 163.039 46.8651 160.212C46.8651 158.641 46.5505 157.385 46.5505 155.814C46.5505 154.872 46.5505 154.243 46.5505 153.615C46.5505 152.987 46.5505 152.359 46.8651 151.73C47.1796 148.903 47.8086 146.076 48.7522 143.248C49.6958 140.421 50.6394 137.594 51.583 134.767C53.7847 129.112 56.301 123.458 58.8172 117.803L67.624 99.5828L53.4702 113.719L39.9454 127.541L42.1471 120.002C44.0343 114.033 45.9215 108.065 48.1232 102.41C48.7522 100.839 49.0668 99.5828 50.0104 98.3263L50.6394 97.3838L51.2685 96.4414C51.583 95.8131 52.2121 95.1848 52.5266 94.5566C54.4138 92.0434 56.301 89.8444 58.5027 87.6455C62.9061 83.2475 67.3095 78.8495 72.0275 74.7657C66.995 78.5353 61.9625 82.305 57.2445 86.3889C55.0428 88.5879 52.5266 90.7869 50.6394 93.3C50.0104 93.9283 49.6958 94.5566 49.0668 95.1848L48.4377 96.1273L47.8086 97.0697C47.1796 98.3263 46.236 99.897 45.6069 101.468C43.0907 107.122 40.5745 113.091 38.3727 118.745C36.171 124.714 33.9693 130.369 32.0821 136.337L28.6223 146.39L36.4856 139.165L45.9215 130.683C45.6069 131.311 45.6069 131.625 45.2924 132.254C44.0343 135.081 42.7762 138.222 41.8326 141.364C40.889 144.505 39.9454 147.646 39.3163 151.102C39.0018 152.673 39.0018 154.872 39.0018 156.442C39.0018 158.013 39.0018 159.584 39.0018 161.155C39.0018 164.296 39.3163 167.437 39.6309 170.579C39.9454 176.862 40.5745 183.144 41.518 189.427L43.4052 205.448L50.0104 190.684C52.2121 185.972 54.0992 181.26 55.9864 176.862C55.9864 178.432 55.9864 180.003 56.301 181.574C56.301 183.144 56.6155 184.715 56.6155 186.6V187.857L56.93 189.427C57.2445 190.37 57.2445 191.312 57.5591 191.94C59.4463 198.537 62.5916 204.192 65.7369 209.846C67.3095 212.674 69.1967 215.187 70.7693 218.014C72.6565 220.841 74.2292 223.355 76.1163 225.868L84.2941 237.177V223.04V211.731C84.6087 212.045 84.9232 212.674 85.2377 212.988C86.4958 215.187 87.754 217.386 89.0121 219.585L90.8993 223.04L92.7864 226.496C94.0446 229.009 95.6172 231.208 96.8753 233.407C97.5044 234.664 98.448 235.606 99.3916 236.863C100.021 237.491 100.335 238.119 100.65 238.433L101.908 240.004C105.368 244.088 109.142 247.858 112.916 251.627L122.981 261.994L118.578 248.172C117.32 244.402 116.062 240.318 115.118 236.234C114.804 235.606 114.804 234.978 114.804 234.035C116.062 233.721 118.263 232.779 120.151 232.779C121.094 233.407 121.723 234.349 122.667 234.978C123.925 236.234 124.868 237.491 125.498 239.062L126.756 241.575C127.385 242.517 127.699 243.46 128.328 244.402C132.732 250.999 137.764 256.968 143.111 262.936L147.2 267.334L145.942 261.68C145.942 261.051 145.627 260.109 145.627 259.481C145.627 258.852 145.313 257.91 145.313 257.282C145.313 256.968 145.313 256.654 145.313 256.339C145.942 250.999 147.2 243.46 147.829 239.376C149.402 228.381 157.58 191.626 157.58 191.626L139.022 199.794C139.022 199.794 176.137 143.877 184 126.599C191.863 109.321 193.436 73.5091 184 60.9434Z" fill="#101C2E"/>
<path d="M224.26 70.996C221.429 67.2263 218.284 63.4566 216.397 59.3727C214.195 55.2889 211.993 50.8909 209.477 46.8071C206.961 42.7232 204.13 38.6394 200.985 34.8697C199.412 32.9848 197.839 31.1 196.267 29.2151C194.379 27.3303 192.807 25.7596 190.92 23.8747C189.032 22.304 187.145 20.7333 184.944 19.1626L181.798 16.9636C180.855 16.3353 179.597 15.7071 178.338 15.0788C177.08 14.4505 176.137 13.8222 174.879 13.5081L170.79 12.5656C168.274 11.6232 165.757 11.3091 163.241 10.6808C160.725 10.0525 158.209 10.0525 155.378 9.73838H154.434H153.805H153.491C153.491 9.73838 153.805 9.73838 153.176 9.73838H151.289L147.829 10.0525C145.627 10.0525 142.797 10.6808 140.28 11.3091C137.764 11.6232 135.248 12.5656 133.046 13.1939L129.586 14.1364L125.812 15.7071C123.61 16.6495 121.094 17.2778 118.892 18.5343C116.691 19.4768 114.489 20.7333 112.287 21.6758L105.997 25.1313C101.908 27.6444 97.5043 30.1576 93.4154 32.6707C91.2137 33.9273 89.3265 35.1838 87.4393 36.7545C85.5521 38.0111 83.3504 39.5818 81.4632 40.8384C77.6889 43.6657 73.6 46.8071 69.8256 49.6343C66.0513 52.7758 62.5914 55.9172 58.8171 59.0586L42.147 74.4515L62.5914 65.3414C65.7367 63.7707 69.1966 62.5141 72.3419 60.9434C70.1401 63.4566 67.6239 65.6556 65.4222 67.8545C59.4461 73.8232 53.4701 80.1061 47.494 86.3889C54.0991 81.0485 61.0188 75.7081 67.6239 70.3677C74.229 65.0273 80.8342 59.3727 87.4393 54.0323L99.3914 43.9798L84.6085 49.3202H84.294C85.2376 48.6919 85.8666 48.0636 86.8102 47.7495C90.5846 45.2364 94.6735 42.4091 98.7624 40.2101C102.851 37.697 106.626 35.498 110.715 32.9848L117.005 29.8434C119.207 28.901 121.094 27.9586 123.296 27.0162C125.497 26.0737 127.699 25.1313 129.586 24.503L132.732 23.2465L135.877 22.304C138.079 21.6758 140.28 20.7333 142.168 20.4192C144.369 20.105 146.256 19.4768 148.773 19.1626L152.232 18.8485H153.805H154.12H154.434H155.378L158.523 19.1626H160.096L161.668 19.4768C163.87 19.7909 166.072 20.105 167.959 20.7333L171.104 21.6758C172.048 21.9899 172.991 22.6182 174.25 22.9323C175.193 23.5606 176.137 23.8747 177.08 24.1889L179.911 25.7596C181.798 26.702 183.685 28.2727 185.258 29.5293C187.145 30.7859 188.718 32.3566 190.291 33.9273C191.863 35.498 193.436 37.0687 195.009 38.9535C198.154 42.4091 200.985 46.1788 203.501 49.9485C206.332 53.7182 208.533 57.802 211.364 61.8859C211.993 63.1424 212.622 63.7707 213.566 65.0273L216.082 67.8545L220.8 73.195C227.091 80.4202 234.01 87.0172 240.615 93.9283L224.26 70.996Z" fill="#101C2E"/>
<path d="M301.634 335.503C306.038 334.246 310.756 332.676 314.845 331.105C317.046 330.163 319.248 329.534 321.135 328.592L321.764 328.278H322.079L322.393 327.964L323.966 327.021C325.224 326.393 325.853 325.765 326.797 325.45C328.684 324.194 330.571 322.937 332.458 321.995C334.345 321.053 336.233 320.11 337.805 318.854C340.951 316.34 343.467 313.513 345.669 310.058C346.612 308.487 347.87 306.288 348.814 304.403C349.757 302.518 350.701 300.319 351.645 298.12C353.532 294.036 355.419 289.638 357.306 285.24L362.653 272.361L368.629 284.298C368.629 283.356 368.629 282.413 368.629 281.471L368.315 275.188L368 268.905L367.371 262.622L365.798 244.402L378.38 257.91L380.581 260.423V257.282V254.14C380.581 252.884 380.581 251.627 380.581 250.685C380.581 249.742 380.581 248.8 380.267 247.543C379.952 243.145 379.323 239.062 378.38 234.664C378.065 232.465 377.436 230.266 376.807 228.067L375.863 224.925L374.92 221.784L370.516 205.763L384.356 214.873L390.961 219.271L381.21 192.883L380.267 190.37L361.71 181.26C361.71 181.26 368.944 201.993 369.573 208.59C370.516 218.328 369.887 230.58 369.887 230.58L360.137 211.103C360.137 211.103 363.911 242.517 362.024 256.025C360.137 269.533 358.25 279.586 358.25 279.586L348.185 249.742C348.185 249.742 348.499 280.842 334.975 300.319C323.651 316.34 308.554 328.592 301.634 335.503C301.32 335.503 301.32 335.503 301.634 335.503Z" fill="white"/>
<path d="M398.195 201.051C399.138 201.365 400.397 201.679 401.34 201.993L417.067 207.019L408.574 194.139C404.171 187.542 400.082 180.945 395.679 174.348C391.275 167.752 386.872 161.155 382.468 154.558C384.985 162.097 387.501 169.636 390.332 176.862C391.275 179.689 392.533 182.516 393.477 185.343L390.017 183.773L376.807 178.118L381.839 191.626L391.59 218.014L384.985 213.616L371.145 204.506L375.549 220.527L376.492 223.669L377.436 226.81C378.065 229.009 378.379 231.208 379.009 233.407C379.952 237.805 380.581 241.889 380.896 246.287C380.896 247.229 381.21 248.486 381.21 249.428C381.21 250.371 381.21 251.627 381.21 252.884V256.025V259.167L379.009 256.654L366.427 243.145L368 261.366L368.629 267.648L368.944 273.931L369.258 280.214C369.258 281.157 369.258 282.099 369.258 283.041L363.282 271.104L357.935 283.984C356.048 288.068 354.475 292.466 352.274 296.864C351.33 299.063 350.386 300.947 349.443 303.146C348.499 305.031 347.241 307.23 346.297 308.801C344.096 312.571 341.579 315.398 338.434 317.597C336.862 318.854 334.974 319.796 333.087 320.738C331.2 321.681 329.313 322.937 327.426 324.194C326.482 324.822 325.538 325.136 324.595 325.765L323.022 326.707L322.708 327.021H322.393L321.764 327.335C319.877 328.278 317.675 329.22 315.474 329.848C311.07 331.419 306.667 332.99 302.263 334.246C297.86 335.503 293.142 336.76 288.738 338.016C284.021 339.273 279.617 340.529 274.899 341.472C284.335 341.472 294.085 341.158 303.521 340.215C308.239 339.901 312.957 339.273 317.99 338.33C320.506 338.016 322.708 337.388 325.224 336.76L328.998 335.817C330.256 335.503 331.515 335.189 332.773 334.875C335.289 334.246 337.805 333.304 340.007 332.047C342.209 330.791 344.41 329.22 346.612 327.65C351.015 324.508 354.79 319.796 357.306 315.398C358.879 312.885 359.822 311 361.08 308.801C361.395 308.173 361.395 307.859 361.709 307.23V311.314L361.395 333.932L373.347 314.77C373.976 313.513 374.605 312.571 375.234 311.628C375.863 310.686 376.492 309.429 376.807 308.487C377.75 306.288 378.694 304.089 379.638 301.89C380.581 299.691 381.21 297.178 381.525 294.665C381.839 293.408 381.839 292.152 382.154 290.895C382.154 289.638 382.468 288.068 382.468 287.125C382.468 284.926 382.468 282.727 382.468 280.528V278.329L388.444 284.926L391.904 275.502C392.219 274.874 392.219 274.56 392.219 274.245L392.533 273.303C392.848 272.675 392.848 272.046 392.848 271.418C393.162 270.162 393.162 268.905 393.477 267.648C393.791 265.135 394.106 262.622 394.106 260.423V256.968V253.198C394.106 251.941 394.106 250.999 394.106 249.742C394.106 248.486 394.106 247.229 393.791 245.973C393.477 241.889 392.848 237.491 391.904 233.407L401.34 239.376L417.067 249.742L410.462 231.836L398.195 201.051Z" fill="#101C2E"/>
<path d="M249.108 336.131C245.019 334.875 240.93 333.618 237.156 332.362C235.268 331.733 233.067 331.105 231.179 330.163C229.292 329.534 227.405 328.592 225.518 327.964C224.574 327.335 223.631 327.021 222.687 326.393C221.744 325.765 221.115 325.451 220.171 324.822C218.598 323.88 217.026 322.623 215.138 321.681C211.679 320.11 208.848 317.911 206.332 315.398C205.073 314.141 204.13 312.885 203.186 311.314C202.557 310.372 202.243 309.743 201.614 309.115C200.985 308.173 200.67 307.544 200.356 306.602C199.412 305.031 198.783 303.146 197.839 301.262C197.21 299.377 196.267 297.492 195.952 295.921L192.807 286.183L185.573 293.094C184.944 293.722 184.944 294.036 184.315 294.35C184 294.665 183.685 294.979 183.371 295.293C183.371 294.979 183.056 294.665 183.056 294.35C182.742 293.722 182.742 292.152 182.427 291.209C182.427 290.267 182.113 289.324 182.113 288.068C181.484 283.67 181.169 279.272 180.855 274.874C180.855 272.675 180.54 270.476 180.54 268.277C180.54 266.078 180.54 263.879 180.54 261.68V245.659L169.532 257.596L167.015 260.109C167.015 259.481 167.015 258.853 167.015 258.538V257.282L167.33 256.025L167.959 253.198L168.588 250.057C170.475 241.889 172.362 233.721 174.564 225.868L177.395 215.187L166.701 218.328L157.579 221.156L166.701 191.626L170.475 178.746L158.209 184.087L154.749 185.658C155.692 182.83 156.95 180.003 157.894 177.176C160.725 169.636 163.241 162.411 165.757 154.872C161.354 161.469 156.636 168.066 152.547 174.663C148.144 181.26 143.74 187.857 139.651 194.454L131.159 207.333L146.885 202.307C148.144 201.993 149.716 201.365 150.974 201.05L142.797 228.695L139.337 240.004L150.66 236.548L160.41 233.721C159.152 238.433 158.209 243.145 156.95 247.858L156.321 250.999L155.692 254.455L155.378 256.339V258.224C155.378 259.481 155.378 260.737 155.378 261.994C155.378 264.507 155.692 266.706 156.007 268.905C156.321 270.162 156.321 271.104 156.636 272.361C156.95 273.617 157.265 274.56 157.579 275.816L160.725 286.497L168.273 278.329L168.903 277.701C169.217 281.785 169.532 286.183 170.161 290.267C170.161 291.523 170.475 292.78 170.79 294.036C171.104 295.293 171.104 296.235 171.419 297.492C172.048 300.005 172.677 302.518 173.62 305.031C174.564 307.23 175.508 309.743 176.766 311.942C177.395 312.885 178.024 314.141 178.653 315.084C179.282 316.026 179.911 317.283 180.54 318.225L187.46 329.22L191.549 316.969V316.655C191.863 317.597 192.492 318.225 192.807 318.854C194.065 320.738 195.638 322.937 197.21 324.508C200.67 328.278 204.759 331.105 208.848 333.618C210.735 334.875 213.251 335.503 215.453 336.445C216.397 336.76 217.655 337.074 218.913 337.388C220.171 337.702 221.115 338.016 222.058 338.016C224.26 338.644 226.462 339.273 228.663 339.587C230.865 339.901 233.067 340.215 235.268 340.843C239.672 341.472 243.761 341.786 248.164 342.414C256.656 343.042 265.463 343.671 273.956 343.671C265.778 340.843 257.285 338.644 249.108 336.131Z" fill="#101C2E"/>
<path d="M186.202 180.317L167.33 189.741L166.701 191.626L157.894 220.841L167.015 218.014L177.709 214.873L174.879 225.554C172.677 233.721 170.79 241.889 168.903 249.742L168.274 252.884L167.644 255.711L167.33 256.968V258.224C167.33 258.853 167.33 259.167 167.33 259.795L169.846 257.282L180.855 245.344V261.366C180.855 263.565 180.855 265.764 180.855 267.963C180.855 270.162 180.855 272.361 181.169 274.56C181.484 278.958 181.798 283.356 182.427 287.754C182.427 288.696 182.742 289.953 182.742 290.895C183.056 291.837 183.056 293.408 183.371 294.036C183.371 294.351 183.685 294.665 183.685 294.979C184 294.665 184.315 294.351 184.629 294.036C184.944 293.722 185.258 293.408 185.887 292.78L193.121 285.869L196.267 295.607C196.896 297.178 197.525 299.377 198.154 300.947C198.783 302.832 199.727 304.717 200.67 306.288C200.985 307.23 201.614 307.859 201.928 308.801C202.557 309.743 202.872 310.058 203.501 311C204.444 312.571 205.703 313.827 206.646 315.084C209.162 317.597 211.993 319.796 215.453 321.367C217.026 322.309 218.598 323.252 220.485 324.508C221.429 325.136 222.058 325.451 223.002 326.079C223.945 326.707 224.889 327.021 225.832 327.65C227.405 328.592 229.607 329.22 231.494 329.848C233.381 330.477 235.268 331.419 237.47 332.047C238.099 332.362 238.728 332.362 239.672 332.676C234.01 325.765 224.26 314.456 213.566 299.063C200.356 279.586 200.356 248.486 200.356 248.486L190.291 278.329C190.291 278.329 188.718 268.277 186.516 254.769C184.315 241.261 188.403 209.846 188.403 209.846L178.653 229.323C178.653 229.323 178.024 217.072 178.968 207.333C179.282 201.051 186.202 180.317 186.202 180.317Z" fill="white"/>
<path d="M308.239 300.005C307.296 297.806 306.981 295.293 306.352 293.094C306.352 290.581 306.352 286.811 303.836 284.926C304.465 284.612 304.78 283.984 305.094 283.356L305.409 283.67L305.723 283.984C305.723 283.984 306.038 283.984 306.038 284.298C306.352 284.298 306.352 284.612 306.667 284.612C307.296 285.24 308.239 285.869 308.554 286.811C308.554 285.869 308.239 284.612 307.61 283.67C307.61 283.356 307.296 283.041 306.981 283.041L306.352 282.413C306.038 282.099 306.038 282.099 305.723 281.785C305.409 281.471 305.409 281.471 304.78 281.157H304.465L303.521 281.471C302.263 281.785 301.005 282.099 299.747 282.413C299.118 282.413 298.489 282.727 298.174 282.727H297.231H296.287C293.771 283.041 291.255 283.041 288.739 283.041H286.851C286.222 283.041 285.908 283.041 285.279 283.041C284.335 282.727 283.077 282.413 281.819 282.099L278.044 280.842C277.415 280.528 276.472 280.528 275.843 280.214C275.528 280.214 275.214 280.214 274.585 280.214H273.956C273.641 280.214 273.641 280.214 273.012 280.214C272.697 280.214 272.383 280.214 272.068 280.214C271.754 280.214 271.439 280.528 271.125 280.528L270.181 280.842C269.867 280.842 269.552 281.157 269.238 281.157C267.98 281.785 267.036 282.413 266.092 283.041C265.149 283.67 264.205 284.298 263.262 284.612C262.947 284.612 262.947 284.612 262.632 284.612C260.745 284.612 259.173 285.24 258.229 285.869C257.285 285.24 256.027 284.298 254.455 284.612C253.511 284.612 252.253 285.24 251.624 286.183C250.995 285.555 249.737 284.612 248.479 284.298C248.479 284.298 244.704 283.041 243.761 282.727C242.817 282.413 239.672 279.586 239.672 279.586C239.672 279.586 238.414 280.842 237.156 283.984C235.897 287.125 235.897 292.78 235.897 292.78C235.897 292.78 237.156 288.696 238.099 287.125C239.043 285.555 240.93 284.612 240.93 284.612L241.874 287.754C241.874 288.068 241.559 288.382 241.559 288.696C241.559 288.696 239.986 294.351 238.414 299.377C236.841 303.775 234.01 314.456 234.01 314.456C234.01 314.456 234.639 318.225 236.526 319.796C238.099 321.681 244.39 322.309 244.39 322.309C244.39 322.309 243.132 320.738 242.503 319.482C242.188 318.539 247.85 313.827 247.85 313.827C249.422 314.141 250.68 314.456 252.253 314.456C256.027 314.456 271.439 312.571 273.327 312.257C275.214 312.571 289.053 314.141 292.827 314.456H293.142C295.029 314.456 297.231 314.141 299.118 313.199C299.118 313.199 304.15 318.225 303.836 319.482C303.207 320.738 301.949 322.309 301.949 322.309C301.949 322.309 308.239 321.367 309.812 319.796C311.385 317.911 312.328 314.456 312.328 314.456C312.328 314.456 309.812 304.403 308.239 300.005Z" fill="#101C2E"/>
<path d="M300.062 286.497C299.747 286.497 298.489 287.439 297.545 288.696L295.973 290.895L295.029 288.382C295.029 288.068 294.4 287.125 292.513 287.125C290.626 287.125 289.997 287.754 289.997 287.754L289.053 289.953L287.48 287.754C287.48 287.754 286.851 287.125 284.65 287.125C282.448 287.125 281.819 287.754 281.819 287.754L280.561 289.01L279.617 287.125C279.617 287.125 278.988 286.183 277.415 286.183C276.157 286.183 275.528 287.439 275.528 287.439L273.956 291.209L272.383 287.439C272.383 287.439 271.754 286.183 270.496 286.183C268.923 286.183 267.98 287.754 267.98 287.754L266.407 289.953L265.149 287.439C265.149 287.439 264.834 287.125 262.947 287.125C260.745 287.125 259.487 288.382 259.487 288.382L258.229 289.638L256.971 288.068C256.656 287.753 255.713 286.811 254.769 286.811C254.455 286.811 253.511 287.754 252.882 288.382L251.624 289.953L250.366 288.382C249.737 287.754 248.479 286.183 247.221 286.183C246.592 286.183 245.962 286.497 245.648 286.811C244.39 288.382 244.075 291.523 244.39 294.036C244.704 296.235 247.221 299.063 248.164 300.005L249.737 301.576L247.535 302.518C247.535 302.518 244.39 303.775 244.39 305.974C244.39 306.288 244.704 306.916 245.019 307.544C246.592 309.115 249.737 310.372 252.253 310.057C256.027 310.057 273.012 307.859 273.327 307.859H273.641H273.956C273.956 307.859 289.682 309.743 293.456 310.057C295.973 310.057 298.803 309.429 300.062 308.173C300.691 307.544 300.691 307.23 300.691 306.916C300.691 304.403 299.747 303.775 299.747 303.775L298.174 302.832L299.433 301.576C299.433 301.576 302.578 298.12 302.892 293.722C303.836 287.754 301.949 286.811 300.062 286.497Z" fill="white"/>
<path d="M301.005 300.633C300.376 301.262 299.747 301.89 299.118 302.204C298.174 302.832 297.231 303.146 296.602 303.775C296.602 303.146 296.916 302.832 296.916 302.204C296.916 300.947 296.916 299.691 296.602 298.434L296.287 297.492C296.287 297.178 295.973 296.864 295.973 296.549C295.658 295.921 295.344 295.293 295.029 294.979C294.714 294.351 294.4 294.036 293.771 293.408C293.456 292.78 292.827 292.466 292.513 291.837L290.626 290.267L289.996 292.78C289.682 294.35 289.053 295.607 289.053 297.178C289.053 297.492 288.738 297.806 288.738 298.12C288.738 298.434 288.424 298.748 288.424 299.063C288.109 299.691 287.795 300.319 287.48 300.633C287.166 300.947 287.166 301.262 286.851 301.262H286.537H286.222C285.593 301.262 284.964 301.262 284.02 301.262C283.391 301.262 282.448 301.262 281.504 301.262C280.561 301.262 279.932 301.576 279.302 301.576L281.504 301.89C282.133 301.89 282.762 302.204 283.706 302.518C284.335 302.832 285.279 303.146 286.222 303.146C286.537 303.146 286.851 303.146 287.166 303.146C287.166 303.146 287.48 303.146 287.795 302.832C287.795 302.832 287.795 302.832 288.109 302.518C288.424 302.204 288.738 301.89 289.053 301.89C289.682 301.262 290.311 300.633 290.94 300.005C291.255 299.691 291.255 299.377 291.569 298.748C291.884 298.434 291.884 297.806 291.884 297.492C292.198 296.864 292.198 296.235 292.513 295.607L292.827 295.921C293.142 296.235 293.456 296.864 293.771 297.178L294.085 297.806L294.4 298.434C294.714 299.377 295.029 300.319 295.029 301.262C295.029 302.204 295.029 303.461 294.714 304.403L294.085 306.602L295.658 305.345C297.231 304.403 298.489 303.146 300.061 301.89C300.691 301.262 301.634 300.633 301.949 299.691C302.263 298.748 302.892 298.12 302.892 297.178C301.949 299.377 301.32 300.005 301.005 300.633Z" fill="#101C2E"/>
<path d="M269.552 302.204C268.294 302.204 267.036 301.89 266.092 301.576C265.149 301.262 263.891 300.633 262.947 300.005L261.689 299.377V300.947C261.374 300.633 261.06 300.319 260.745 300.005C260.431 299.691 260.116 299.377 259.802 298.748C259.802 298.434 259.487 298.434 259.487 298.12L259.173 297.492C258.229 295.607 257.285 293.408 256.342 291.209L254.769 289.01L253.197 290.895C252.568 291.837 251.938 292.78 251.309 293.722C250.995 294.351 250.68 294.665 250.68 295.293C250.68 295.607 250.366 296.235 250.366 296.55V297.492C250.366 298.748 250.366 299.691 250.68 300.633L250.995 302.204H250.68C249.737 301.89 249.108 301.576 248.479 301.576C247.221 300.947 245.962 300.005 245.019 299.377C245.962 300.633 246.906 301.576 247.85 302.518C248.479 303.146 249.108 303.461 249.737 303.775L251.624 304.717L253.197 305.66V303.775V302.204V300.633C253.197 299.691 253.197 298.748 253.511 297.492V296.864C253.511 296.549 253.511 296.55 253.511 296.55C253.511 296.235 253.826 295.921 254.14 295.293C254.14 295.293 254.14 295.293 254.14 294.979C254.769 296.235 255.398 297.492 256.027 299.063L256.656 299.691C256.971 300.005 256.971 300.319 257.285 300.633C257.6 301.262 258.229 301.576 258.858 301.89C259.487 302.204 259.802 302.518 260.431 302.832C261.06 303.146 261.374 303.461 262.318 303.775L263.891 304.403V302.832V302.204C264.52 302.518 265.463 302.518 266.092 302.518C267.036 302.832 268.294 302.518 269.552 302.204Z" fill="#101C2E"/>
<path d="M249.422 315.084L246.906 318.854C246.906 318.854 248.164 318.225 254.14 317.597C260.116 316.969 267.036 314.456 267.036 314.456L249.422 315.084Z" fill="white"/>
<path d="M238.099 279.9C238.099 279.9 239.357 277.701 240.301 276.13C240.93 275.188 242.817 275.502 242.817 275.502C242.817 275.502 243.446 276.444 245.019 278.329C246.906 280.528 248.479 282.099 248.479 282.099C248.479 282.099 244.075 279.9 243.132 279.272C242.188 278.643 241.559 278.015 241.559 278.015L238.099 279.9Z" fill="white"/>
<path d="M266.721 319.168C266.721 319.168 268.609 316.026 273.327 316.026C278.044 316.026 285.908 319.168 285.908 319.168C285.908 319.168 277.101 318.539 276.472 319.168C275.528 319.796 276.472 325.765 280.246 327.649C284.021 329.534 286.851 328.592 289.997 326.079C293.142 323.566 293.771 323.566 293.771 323.566C293.771 323.566 297.86 326.707 298.174 331.733C298.489 336.76 298.174 337.702 296.287 341.786C293.142 348.069 288.109 350.582 288.109 350.582C288.109 350.582 288.424 343.357 284.65 343.671C280.875 343.985 278.044 346.184 278.044 349.011C277.73 352.467 279.932 356.865 279.932 356.865C279.932 356.865 271.754 354.037 270.81 345.556C270.496 342.728 266.721 341.786 265.463 341.786C262.633 341.786 262.003 344.299 262.318 345.87C262.633 349.954 265.463 351.838 265.463 351.838C265.463 351.838 253.826 349.325 253.511 339.901C253.197 330.163 258.544 323.566 258.544 323.566C258.544 323.566 258.229 323.88 259.173 325.136C260.431 327.021 267.665 330.163 270.81 324.822C271.439 323.566 272.697 321.681 271.754 321.053C269.867 319.796 266.721 319.168 266.721 319.168Z" fill="white"/>
<path d="M191.234 222.726L189.033 219.585C189.033 219.585 187.145 226.182 187.46 229.951C187.774 233.721 187.774 240.318 187.774 240.318C187.774 240.318 188.404 233.093 188.718 229.323C189.033 227.438 191.234 222.726 191.234 222.726Z" fill="white"/>
<path d="M260.431 196.024C260.431 196.024 260.431 195.396 260.431 194.454C260.745 193.511 261.06 191.94 262.003 190.37C262.947 188.799 264.205 186.914 266.407 185.343C267.35 184.715 268.608 184.087 269.867 183.773C270.496 183.773 271.125 183.459 271.754 183.459C272.383 183.459 273.012 183.459 273.955 183.459H275.528C276.157 183.459 277.101 183.773 277.73 184.087C278.988 184.401 280.246 185.029 281.19 185.658C283.391 186.914 284.649 188.799 285.593 190.37C286.537 191.94 286.851 193.511 287.166 194.454C287.48 195.396 287.48 196.024 287.48 196.024C287.48 196.024 285.593 194.454 283.077 192.569C281.819 191.626 280.246 190.998 278.673 190.37C277.73 190.056 277.101 189.741 276.157 189.741C275.843 189.741 275.528 189.741 275.214 189.427H273.641H272.383H271.125C270.181 189.427 269.552 189.741 268.608 190.056C267.979 190.37 267.036 190.684 266.407 190.998C265.778 191.312 264.834 191.94 264.205 192.255C262.318 194.454 260.431 196.024 260.431 196.024Z" fill="#101C2E"/>
<path d="M300.376 221.156C298.803 216.758 291.884 204.192 287.48 200.108C283.077 196.024 274.27 194.454 274.27 194.454C274.27 194.454 265.149 195.71 261.06 200.108C256.971 204.506 249.737 216.758 248.164 221.156C246.277 225.554 245.019 247.229 245.019 255.397C245.019 266.078 245.019 278.958 248.164 281.471C251.309 283.984 274.585 285.24 274.585 285.24C274.585 285.24 297.86 283.984 301.005 281.471C304.15 278.958 304.15 266.078 304.15 255.397C303.521 247.229 302.263 225.239 300.376 221.156Z" fill="#101C2E"/>
<path d="M261.689 207.019C261.689 207.019 253.197 215.501 250.68 231.522C249.108 240.947 251.309 258.853 251.309 258.853C251.309 258.853 252.568 243.46 253.511 233.721C254.769 221.47 261.689 207.019 261.689 207.019Z" fill="white"/>
<path d="M165.128 24.1889C165.128 24.1889 149.716 23.2464 137.764 27.3303C127.385 30.7858 118.263 37.6969 118.263 37.6969L116.691 33.9273C116.691 33.9273 128.014 26.702 138.079 23.8747C148.144 21.3616 165.128 24.1889 165.128 24.1889Z" fill="white"/>
<path d="M249.737 353.723C249.737 353.723 247.535 355.294 246.591 363.147C245.648 371.001 250.68 386.394 252.882 380.739C257.914 368.488 262.003 363.776 267.665 374.142C273.641 384.509 270.496 392.048 270.496 392.048C270.496 392.048 284.649 388.593 283.077 378.54C281.504 368.802 282.133 365.661 287.166 366.289C300.691 367.86 300.69 387.022 300.69 387.022C300.69 387.022 306.981 380.739 305.408 368.174C304.465 358.435 302.263 353.723 302.263 353.723H277.101H249.737Z" fill="#EEF3F7"/>
<path d="M474.94 351.21L401.026 348.383H400.711H400.397C394.42 348.383 389.073 350.582 384.985 354.352C380.581 350.582 375.234 348.383 369.258 348.383H284.335C279.617 348.383 275.214 350.582 272.068 353.723C267.35 350.268 262.003 348.383 256.027 348.383H182.113C173.935 348.383 167.015 352.781 162.926 359.064C154.749 352.153 143.426 347.755 131.159 347.755H113.86C79.576 347.755 51.2683 371.943 51.2683 402.101V456.762C51.2683 486.919 79.576 511.422 114.174 511.422H138.079C147.829 511.422 156.95 508.281 163.87 502.626C167.959 507.967 174.25 511.422 181.169 511.422H254.769C259.173 511.422 263.576 510.166 267.35 508.281V511.108H279.932H319.562H332.144V498.542V492.574L338.12 504.511L341.579 511.422H349.443H388.759H397.88C398.509 511.422 399.138 511.422 399.767 511.422H473.053C489.408 511.422 502.619 497.286 502.619 480.322V420.007V416.866V404.3V381.054C502.933 364.718 490.667 351.524 474.94 351.21Z" fill="#101C2E"/>
<path d="M114.489 496.029C88.3826 496.029 67.3091 478.437 67.3091 457.076V402.415C67.3091 381.054 88.3826 363.776 114.174 363.776H131.473C148.143 363.776 161.983 375.085 161.983 388.593V476.867C161.983 487.548 151.603 496.029 138.393 496.029H114.489Z" fill="url(#paint5_linear)"/>
<path d="M131.159 366.917C146.256 366.917 158.523 376.656 158.523 388.593V476.867C158.523 485.663 149.402 492.888 138.078 492.888H114.174C89.9553 492.888 70.14 476.867 70.14 457.076V402.415C70.14 382.938 89.6408 366.917 113.86 366.917H131.159ZM131.159 360.634H113.86C86.181 360.634 63.8494 379.169 63.8494 402.415V457.076C63.8494 480.322 86.4955 499.171 114.174 499.171H138.078C152.861 499.171 164.813 489.118 164.813 476.867V388.593C164.813 373.2 149.716 360.634 131.159 360.634Z" fill="white"/>
<path d="M399.767 496.029C396.622 496.029 393.791 493.516 393.791 490.061V371.001C393.791 367.231 396.937 364.404 400.396 364.404L474.311 367.231C481.231 367.231 486.892 373.514 486.892 381.368V401.473H457.641C457.641 397.075 454.181 393.619 449.778 393.619H435.624C431.22 393.619 427.76 397.389 427.76 401.787V457.076C427.76 461.474 431.22 465.243 435.624 465.243H449.463C453.866 465.243 457.326 461.474 457.326 457.076V447.337H450.092V423.777H486.892V480.636C486.892 489.118 480.601 496.029 473.053 496.029H399.767Z" fill="url(#paint6_linear)"/>
<path d="M400.711 367.545L474.625 370.373C479.658 370.373 484.061 375.399 484.061 381.368V398.331H460.786C459.528 393.619 455.125 390.478 450.407 390.478H436.253C430.277 390.478 425.244 395.504 425.244 401.787V457.076C425.244 463.359 430.277 468.385 436.253 468.385H450.092C456.068 468.385 461.101 463.359 461.101 457.076V450.479V444.196H454.81H453.867V426.918H484.376V480.636C484.376 487.548 479.658 492.888 473.682 492.888H400.396C398.824 492.888 397.566 491.631 397.566 490.061V371.001C397.251 369.116 398.824 367.545 400.711 367.545ZM400.711 361.263C395.364 361.263 390.96 365.661 390.96 371.001V490.061C390.96 495.087 395.049 499.171 400.082 499.171H473.367C482.803 499.171 490.352 490.689 490.352 480.636V420.321H447.261V450.165H454.496V456.762C454.496 459.589 452.294 461.788 449.778 461.788H435.938C433.422 461.788 431.22 459.589 431.22 456.762V401.473C431.22 398.645 433.422 396.446 435.938 396.446H450.092C452.608 396.446 454.81 398.645 454.81 401.473V404.3H490.352V381.054C490.352 371.629 483.432 363.776 474.625 363.776L400.711 361.263Z" fill="white"/>
<path d="M351.33 495.715L329.942 453.62H316.417V495.715H283.077V366.289C283.077 365.032 284.02 364.09 284.65 364.09H369.573C374.605 364.09 379.008 369.116 379.008 375.399V432.259C379.008 442.625 371.774 451.421 362.967 451.421H357.62L383.412 495.715H351.33Z" fill="url(#paint7_linear)"/>
<path d="M369.573 367.545C373.032 367.545 375.863 371.315 375.863 375.713V432.573C375.863 441.369 370.202 448.594 362.968 448.594H351.959L357.306 458.018L377.75 492.888H353.217L333.402 454.249L331.515 450.793H327.74H319.248H312.957V457.076V492.888H286.222V367.545H369.573ZM369.573 361.263H284.65C282.133 361.263 279.932 363.776 279.932 366.603V499.171H319.562V457.076H328.055L349.443 499.171H388.759L362.968 454.877C373.662 454.877 382.154 444.824 382.154 432.573V375.713C382.154 367.545 376.492 361.263 369.573 361.263Z" fill="white"/>
<path d="M337.176 426.918H315.788C313.901 426.918 312.328 425.347 312.328 423.463V394.876C312.328 392.991 313.901 391.42 315.788 391.42H337.176C341.265 391.42 344.725 394.876 344.725 398.96V419.065C344.725 423.463 341.265 426.918 337.176 426.918Z" fill="#101C2E" stroke="white" stroke-width="2.5" stroke-miterlimit="10"/>
<path d="M114.803 463.673H109.456C101.278 463.673 94.6733 457.076 94.6733 448.908V405.871C94.6733 397.703 101.278 391.106 109.456 391.106H114.803C121.094 391.106 126.126 396.132 126.126 402.415V452.364C126.126 458.646 121.094 463.673 114.803 463.673Z" fill="#101C2E" stroke="white" stroke-width="2.5" stroke-miterlimit="10"/>
<path d="M181.484 496.029C178.339 496.029 175.508 493.516 175.508 490.061V457.076H210.106V458.646C210.106 463.044 213.566 466.814 217.969 466.814H231.809C236.212 466.814 239.672 463.044 239.672 458.646V443.568H184C179.282 443.568 175.508 439.798 175.508 435.086V371.001C175.508 367.231 178.653 364.404 182.113 364.404H256.342C263.262 364.404 268.923 370.687 268.923 378.54V401.473H239.672C239.672 397.075 236.212 393.619 231.809 393.619H217.655C213.251 393.619 209.792 397.389 209.792 401.787V417.18H259.802C264.52 417.18 268.294 420.949 268.294 425.662V480.636C268.294 489.118 262.004 496.029 254.455 496.029H181.484Z" fill="url(#paint8_linear)"/>
<path d="M256.342 367.545C261.374 367.545 265.778 372.572 265.778 378.54V398.331H242.188C240.93 393.619 236.526 390.478 231.809 390.478H217.655C211.679 390.478 206.646 395.504 206.646 401.787V414.038V420.321H212.937H259.802C262.947 420.321 265.149 422.834 265.149 425.662V480.636C265.149 487.548 260.431 492.888 254.455 492.888H181.484C179.911 492.888 178.653 491.631 178.653 490.061V460.531H206.961C207.904 465.872 212.308 470.27 217.655 470.27H231.494C237.47 470.27 242.503 465.243 242.503 458.961V447.023V440.74H236.212H184C180.855 440.74 178.653 438.227 178.653 435.4V414.667V371.315C178.653 369.43 180.226 367.86 182.113 367.86H256.342V367.545ZM256.342 361.263H182.113C176.766 361.263 172.362 365.661 172.362 371.001V414.667V435.4C172.362 441.997 177.709 447.023 184 447.023H236.212V458.961C236.212 461.788 234.01 463.987 231.494 463.987H217.655C215.138 463.987 212.937 461.788 212.937 458.961V454.563H172.048V490.061C172.048 495.087 176.137 499.171 181.169 499.171H254.769C264.205 499.171 271.754 490.689 271.754 480.636V425.347C271.754 418.751 266.407 413.724 260.116 413.724H213.251V401.473C213.251 398.645 215.453 396.446 217.969 396.446H232.123C234.639 396.446 236.841 398.645 236.841 401.473V404.3H272.383V378.226C271.754 368.802 264.834 361.263 256.342 361.263Z" fill="white"/>
<path d="M436.568 489.746H418.639V495.401H411.72V501.056V501.37H404.8V490.375H386.872C381.839 490.375 377.751 493.516 376.178 497.914V490.061H357.935V495.715H340.007V500.113H331.829V500.427C331.2 494.773 326.482 490.689 320.821 490.689H302.892V501.37H285.593H267.665C265.463 501.37 263.576 501.998 262.003 502.94C260.431 501.998 258.544 501.37 256.342 501.37H249.737C249.422 501.37 249.108 501.37 248.793 501.37H220.486H213.88V490.061H195.952C189.662 490.061 184.629 495.087 184.629 501.37V504.197C182.742 502.312 179.911 501.056 176.766 501.056H169.846H151.918C149.716 501.056 147.829 501.684 146.256 502.626C144.684 501.684 142.797 501.056 140.909 501.056H133.99C133.99 495.087 128.957 490.061 122.667 490.061H116.062C109.771 490.061 104.739 495.087 104.739 501.37V518.962C104.739 525.245 109.771 530.271 116.062 530.271H122.667V535.611H140.909V529.957C142.482 529.957 143.74 529.643 145.313 529.014V529.957H158.838H184.315V530.271H202.243C204.445 530.271 206.332 529.643 208.219 528.7C209.792 529.643 211.679 530.271 213.566 530.271H220.171C222.373 530.271 224.26 529.643 225.833 528.7C227.405 529.643 229.292 530.271 231.494 530.271H238.099H256.342V520.847C257.286 526.187 261.689 530.271 267.35 530.271H278.359H301.005V523.046H302.578V530.585H331.829V530.271H339.692H351.015H357.935H375.863V523.046C377.436 527.444 381.525 530.585 386.557 530.585H393.162C395.364 530.585 397.251 529.957 398.824 529.014C400.397 529.957 402.284 530.585 404.171 530.585H410.776C411.091 530.585 411.091 530.585 411.405 530.585H417.696H435.939H453.867V490.375H436.568V489.746Z" fill="#101C2E"/>
<path d="M122.667 523.988H116.062C113.231 523.988 111.029 521.789 111.029 518.962V501.37C111.029 498.543 113.231 496.344 116.062 496.344H122.667C125.497 496.344 127.699 498.543 127.699 501.37C127.699 507.338 127.699 513.307 127.699 518.962C127.699 521.789 125.497 523.988 122.667 523.988ZM116.691 518.333H122.352C122.352 512.679 122.352 507.338 122.352 501.684H116.691V518.333Z" fill="#59C9E6"/>
<path d="M129.272 529.328V507.339H140.909C143.74 507.339 145.942 509.538 145.942 512.365V518.962C145.942 521.789 143.74 523.988 140.909 523.988H134.933V529.643H129.272V529.328ZM134.619 518.333H140.28V512.993H134.619V518.333Z" fill="#59C9E6"/>
<path d="M163.556 507.024C163.556 510.166 163.556 513.307 163.556 516.448C159.781 516.448 156.321 516.448 152.547 516.448V518.647C156.321 518.647 157.58 518.647 161.354 518.647V523.36H151.289C148.773 523.045 146.885 520.846 146.885 518.333V512.05C146.885 509.223 149.087 507.024 151.918 507.024H163.556ZM152.862 512.05V513.307H158.838V512.05H152.862Z" fill="#59C9E6"/>
<path d="M170.79 523.674H165.128C165.128 519.904 165.128 511.108 165.128 507.024H176.766C179.282 507.024 181.798 509.223 181.798 511.736V523.674H176.137C176.137 519.904 176.137 516.448 176.137 512.679H170.79C170.79 516.448 170.79 520.218 170.79 523.674Z" fill="#59C9E6"/>
<path d="M207.275 511.736V518.962C207.275 521.789 205.074 523.988 202.243 523.988H190.605C190.605 520.846 190.605 518.019 190.605 514.878H194.694C195.323 514.878 195.638 514.878 196.267 514.878C196.267 516.134 196.267 517.077 196.267 518.333H201.928V514.564C198.468 512.365 194.38 510.48 190.92 508.281V501.056C190.92 498.228 193.121 496.029 195.952 496.029H207.59C207.59 499.171 207.59 501.998 207.59 505.139H203.501C202.872 505.139 202.557 505.139 201.928 505.139C201.928 503.883 201.928 502.94 201.928 501.684H196.267C196.267 502.94 196.267 503.883 196.267 505.139L207.275 511.736Z" fill="#59C9E6"/>
<path d="M225.204 512.365V518.962C225.204 521.789 223.002 523.988 220.171 523.988H213.566C210.735 523.988 208.533 521.789 208.533 518.962V512.365C208.533 509.538 210.735 507.339 213.566 507.339H220.171C223.002 507.339 225.204 509.538 225.204 512.365ZM219.857 512.679H214.195V518.019H219.857V512.679Z" fill="#59C9E6"/>
<path d="M237.785 518.333V507.339H243.446V518.962C243.446 521.789 241.245 523.988 238.414 523.988H231.809C228.978 523.988 226.776 521.789 226.776 518.962V507.339H232.438V518.333H237.785Z" fill="#59C9E6"/>
<path d="M250.366 518.333V523.988H244.704V512.05V511.422C245.019 508.909 247.221 507.024 249.737 507.024H256.342C259.173 507.024 261.374 509.223 261.374 512.05V512.679C246.592 512.679 264.834 512.679 250.366 512.679V518.333Z" fill="#59C9E6"/>
<path d="M268.294 512.679V518.019C272.068 518.019 275.528 518.019 279.303 518.019C279.303 519.904 279.303 521.789 279.303 523.674H267.665C264.834 523.674 262.633 521.475 262.633 518.647V512.05C262.633 509.223 264.834 507.024 267.665 507.024H279.303C279.303 508.909 279.303 510.794 279.303 512.679C275.528 512.679 272.068 512.679 268.294 512.679Z" fill="#59C9E6"/>
<path d="M297.231 507.024C297.231 510.166 297.231 513.307 297.231 516.448C293.457 516.448 289.997 516.448 286.222 516.448V518.647C289.997 518.647 291.255 518.647 295.029 518.647V523.36H284.964C282.448 523.045 280.561 520.846 280.561 518.333V512.05C280.561 509.223 282.763 507.024 285.593 507.024H297.231ZM286.222 512.05V513.307H292.198V512.05H286.222Z" fill="#59C9E6"/>
<path d="M314.844 512.993V523.988H309.183V507.967V496.344H320.821C323.651 496.344 325.853 498.543 325.853 501.37V507.338C325.853 507.967 325.538 509.852 324.595 510.166C325.853 510.794 325.853 512.051 325.853 512.679V523.988H320.191V512.993H314.844ZM314.844 507.338H320.506V501.998H314.844V507.338Z" fill="#59C9E6"/>
<path d="M343.781 518.333H345.039V523.988C341.265 523.988 335.918 523.988 332.144 523.988C329.313 523.988 327.111 521.789 327.111 518.962V512.051C327.111 509.223 329.313 507.024 332.144 507.024H338.12V505.768H343.781V507.024C343.781 510.794 343.781 514.564 343.781 518.333ZM338.12 518.333V512.993H332.458V518.333H338.12Z" fill="#59C9E6"/>
<path d="M346.297 505.454V501.37H351.959V505.454H346.297ZM346.297 523.674V507.024H351.959V523.674H346.297Z" fill="#59C9E6"/>
<path d="M369.887 496.029V523.674C366.113 523.674 362.024 523.674 358.249 523.674C355.419 523.674 353.217 521.475 353.217 518.648V512.051C353.217 509.223 355.419 507.024 358.249 507.024H364.226V495.715H369.887V496.029ZM364.54 512.679H358.879V518.019H364.54V512.679Z" fill="#59C9E6"/>
<path d="M387.501 518.333H393.162V512.679H390.017V507.024H398.509V512.679V518.647C398.509 521.475 396.308 523.674 393.477 523.674H386.872C384.041 523.674 381.839 521.475 381.839 518.647V501.056C381.839 498.228 384.041 496.029 386.872 496.029H398.509C398.509 498.857 398.509 501.684 398.509 504.511H392.848V501.37H387.501V501.998V518.333Z" fill="#59C9E6"/>
<path d="M410.776 518.333V507.339H416.438V518.962C416.438 521.789 414.236 523.988 411.405 523.988H404.8C401.969 523.988 399.768 521.789 399.768 518.962V507.339H405.429V518.333H410.776Z" fill="#59C9E6"/>
<path d="M417.696 505.454V501.37H423.357V505.454H417.696ZM417.696 523.674V507.024H423.357V523.674H417.696Z" fill="#59C9E6"/>
<path d="M430.277 523.674H424.615V496.029H430.277V523.674Z" fill="#59C9E6"/>
<path d="M448.205 496.029V523.674C444.431 523.674 440.342 523.674 436.568 523.674C433.737 523.674 431.535 521.475 431.535 518.648V512.051C431.535 509.223 433.737 507.024 436.568 507.024H442.544V495.715H448.205V496.029ZM442.858 512.679H437.197V518.019H442.858V512.679Z" fill="#59C9E6"/>
</g>
<defs>
<linearGradient id="paint0_linear" x1="455.735" y1="404.923" x2="119.681" y2="211.128" gradientUnits="userSpaceOnUse">
<stop stop-color="#121B2C"/>
<stop offset="0.155" stop-color="#141D2E"/>
<stop offset="0.3145" stop-color="#1A2335"/>
<stop offset="0.4761" stop-color="#232D40"/>
<stop offset="0.6392" stop-color="#303A51"/>
<stop offset="0.8034" stop-color="#3F4B68"/>
<stop offset="0.9664" stop-color="#525F86"/>
<stop offset="1" stop-color="#56648D"/>
</linearGradient>
<linearGradient id="paint1_linear" x1="43.3976" y1="314.568" x2="508.478" y2="314.568" gradientUnits="userSpaceOnUse">
<stop stop-color="white"/>
<stop offset="0.2398" stop-color="#FBFCFE"/>
<stop offset="0.3262" stop-color="#F3F5FB"/>
<stop offset="0.3878" stop-color="#E6EBF6"/>
<stop offset="0.4376" stop-color="#D5DFF1"/>
<stop offset="0.4803" stop-color="#BFCFEA"/>
<stop offset="0.5173" stop-color="#A5BDE2"/>
<stop offset="0.5311" stop-color="#9AB6DE"/>
<stop offset="1" stop-color="white"/>
</linearGradient>
<linearGradient id="paint2_linear" x1="107.964" y1="287.15" x2="118.018" y2="274.145" gradientUnits="userSpaceOnUse">
<stop stop-color="white"/>
<stop offset="0.2398" stop-color="#FBFCFE"/>
<stop offset="0.3262" stop-color="#F3F5FB"/>
<stop offset="0.3878" stop-color="#E6EBF6"/>
<stop offset="0.4376" stop-color="#D5DFF1"/>
<stop offset="0.4803" stop-color="#BFCFEA"/>
<stop offset="0.5173" stop-color="#A5BDE2"/>
<stop offset="0.5311" stop-color="#9AB6DE"/>
<stop offset="1" stop-color="white"/>
</linearGradient>
<linearGradient id="paint3_linear" x1="440.358" y1="286.815" x2="430.304" y2="273.81" gradientUnits="userSpaceOnUse">
<stop stop-color="white"/>
<stop offset="0.2398" stop-color="#FBFCFE"/>
<stop offset="0.3262" stop-color="#F3F5FB"/>
<stop offset="0.3878" stop-color="#E6EBF6"/>
<stop offset="0.4376" stop-color="#D5DFF1"/>
<stop offset="0.4803" stop-color="#BFCFEA"/>
<stop offset="0.5173" stop-color="#A5BDE2"/>
<stop offset="0.5311" stop-color="#9AB6DE"/>
<stop offset="1" stop-color="white"/>
</linearGradient>
<linearGradient id="paint4_linear" x1="272.799" y1="342.75" x2="272.799" y2="93.9723" gradientUnits="userSpaceOnUse">
<stop stop-color="#3F4B86" stop-opacity="0.7"/>
<stop offset="0.167" stop-color="#576498" stop-opacity="0.778"/>
<stop offset="0.4928" stop-color="#859AC5" stop-opacity="0.93"/>
<stop offset="0.6429" stop-color="#9AB6DE"/>
</linearGradient>
<linearGradient id="paint5_linear" x1="114.402" y1="363.854" x2="114.402" y2="496.1" gradientUnits="userSpaceOnUse">
<stop stop-color="white"/>
<stop offset="0.2398" stop-color="#FBFCFE"/>
<stop offset="0.3262" stop-color="#F3F5FB"/>
<stop offset="0.3878" stop-color="#E6EBF6"/>
<stop offset="0.4376" stop-color="#D5DFF1"/>
<stop offset="0.4803" stop-color="#BFCFEA"/>
<stop offset="0.5173" stop-color="#A5BDE2"/>
<stop offset="0.5311" stop-color="#9AB6DE"/>
<stop offset="1" stop-color="white"/>
</linearGradient>
<linearGradient id="paint6_linear" x1="440.638" y1="364.32" x2="440.638" y2="492.758" gradientUnits="userSpaceOnUse">
<stop stop-color="white"/>
<stop offset="0.2398" stop-color="#FBFCFE"/>
<stop offset="0.3262" stop-color="#F3F5FB"/>
<stop offset="0.3878" stop-color="#E6EBF6"/>
<stop offset="0.4376" stop-color="#D5DFF1"/>
<stop offset="0.4803" stop-color="#BFCFEA"/>
<stop offset="0.5173" stop-color="#A5BDE2"/>
<stop offset="0.5311" stop-color="#9AB6DE"/>
<stop offset="1" stop-color="white"/>
</linearGradient>
<linearGradient id="paint7_linear" x1="333.288" y1="377.791" x2="333.288" y2="488.206" gradientUnits="userSpaceOnUse">
<stop stop-color="white"/>
<stop offset="0.2398" stop-color="#FBFCFE"/>
<stop offset="0.3262" stop-color="#F3F5FB"/>
<stop offset="0.3878" stop-color="#E6EBF6"/>
<stop offset="0.4376" stop-color="#D5DFF1"/>
<stop offset="0.4803" stop-color="#BFCFEA"/>
<stop offset="0.5173" stop-color="#A5BDE2"/>
<stop offset="0.5311" stop-color="#9AB6DE"/>
<stop offset="1" stop-color="white"/>
</linearGradient>
<linearGradient id="paint8_linear" x1="222.071" y1="364.32" x2="222.071" y2="492.758" gradientUnits="userSpaceOnUse">
<stop stop-color="white"/>
<stop offset="0.2398" stop-color="#FBFCFE"/>
<stop offset="0.3262" stop-color="#F3F5FB"/>
<stop offset="0.3878" stop-color="#E6EBF6"/>
<stop offset="0.4376" stop-color="#D5DFF1"/>
<stop offset="0.4803" stop-color="#BFCFEA"/>
<stop offset="0.5173" stop-color="#A5BDE2"/>
<stop offset="0.5311" stop-color="#9AB6DE"/>
<stop offset="1" stop-color="white"/>
</linearGradient>
<clipPath id="clip0">
<rect width="552" height="622" fill="white"/>
</clipPath>
</defs>
</svg>
